<svg version="1.2" xmlns="http://www.w3.org/2000/svg" viewBox="0 0 507 792" width="300" height="469">
	<style>
		.s0 { opacity: .98;fill: #d2a949 } 
	</style>
	<path id="Path 0" fill-rule="evenodd" class="s0" d="m351.15 14.33c128.12 0.17 129.67 0.19 131.84 2.17 1.21 1.1 2.84 3.57 3.63 5.5 0.79 1.93 1.43 4.85 1.43 6.5-0.01 1.65-0.72 5.03-1.58 7.5-0.86 2.47-2.39 5.4-3.39 6.5-1.01 1.1-2 2.45-2.2 3-0.21 0.55-3.5 5.73-7.31 11.5-3.81 5.78-13.88 21.07-22.37 34-8.5 12.93-16.47 25.07-17.71 27-1.25 1.93-6.66 10.25-12.02 18.5-5.36 8.25-11.33 17.48-13.27 20.5-1.93 3.02-5.54 8.65-8.02 12.5-2.48 3.85-5.49 8.57-6.68 10.5-1.19 1.93-4.19 6.65-6.66 10.5-2.47 3.85-5.81 9.02-7.42 11.5-1.6 2.48-3.15 4.95-3.42 5.5-0.27 0.55-4.37 6.85-9.1 14-4.73 7.15-11.21 17.05-14.39 22-3.18 4.95-8.76 13.64-12.4 19.31-3.63 5.67-9.79 15.12-13.67 21-3.88 5.88-7.38 11.59-7.77 12.69-0.45 1.24-0.24 2.28 0.55 2.73 0.71 0.41 3.76 0.76 6.78 0.78 3.02 0.02 12.02 0.69 20 1.49 7.98 0.8 25.75 2.14 39.5 2.97 13.75 0.84 29.95 1.97 36 2.51 6.05 0.54 21.35 1.45 34 2.03 12.65 0.58 24.8 1.34 27 1.68 2.2 0.34 5.91 1.45 8.25 2.47 3.09 1.34 4.79 2.93 6.25 5.84 1.1 2.2 2.01 5.24 2.02 6.75 0.01 1.51-1 4.66-2.25 7-1.25 2.34-5.43 7.51-9.3 11.5-3.87 3.99-13.09 14-20.49 22.25-7.41 8.25-18.37 20.4-24.38 27-6 6.6-12.55 13.8-14.56 16-2.01 2.2-6.29 6.92-9.51 10.5-3.22 3.58-9.72 10.76-14.44 15.96-4.72 5.21-11.57 12.63-15.21 16.5-3.65 3.87-8.55 9.29-10.89 12.04-2.35 2.75-4.55 5.23-4.9 5.5-0.34 0.27-4.65 5-9.56 10.5-4.92 5.5-10.54 11.77-12.49 13.94-1.95 2.16-4.81 5.31-6.36 7-1.55 1.68-4.72 5.08-7.05 7.56-2.32 2.48-7.1 7.88-10.62 12-3.52 4.13-9.87 11.1-14.1 15.5-4.24 4.4-9.44 10.08-11.56 12.61-2.12 2.54-8.55 9.74-14.29 16-5.73 6.27-14.51 15.88-19.5 21.36-4.98 5.48-11.71 12.91-14.96 16.5-3.24 3.59-8.66 9.45-12.03 13.03-3.38 3.58-10.39 11.23-15.58 17-5.19 5.77-12.38 13.65-15.97 17.5-3.6 3.85-11.71 12.62-18.03 19.48-6.32 6.86-15.09 16.34-19.49 21.05-4.4 4.72-11.37 12.37-15.5 17.01-4.12 4.64-10.17 11.36-13.44 14.94-3.26 3.59-10.51 11.47-16.11 17.52-5.59 6.05-12.19 13.25-14.66 16-2.48 2.75-7.33 8.15-10.79 12-3.46 3.85-7.69 8.73-9.39 10.83-1.71 2.11-4.46 4.69-6.11 5.72-1.65 1.04-4.35 1.9-6 1.91-1.65 0.02-4.97-0.76-7.38-1.72-3.25-1.29-4.87-2.72-6.25-5.49-1.03-2.06-1.86-5.44-1.84-7.5 0.01-2.06 1.39-6.67 3.07-10.25 1.67-3.58 4.07-8.75 5.32-11.5 1.25-2.75 3.63-7.92 5.29-11.5 1.67-3.58 3.99-8.52 5.16-11 1.17-2.48 2.14-4.95 2.15-5.5 0.01-0.55 1.39-3.92 3.08-7.5 1.69-3.58 4.16-8.75 5.48-11.5 1.33-2.75 2.42-5.56 2.42-6.25 0-0.69 0.9-2.71 2-4.5 1.09-1.79 1.98-3.92 1.97-4.75-0.01-0.83 1.16-3.75 2.6-6.5 1.45-2.75 3.21-6.58 3.93-8.5 0.71-1.92 2.27-5.98 3.46-9 1.19-3.02 3.08-7.52 4.2-10 1.12-2.48 2.65-5.85 3.41-7.5 0.75-1.65 2.76-6.37 4.46-10.5 1.69-4.12 4.9-11.77 7.12-17 2.23-5.23 4.76-11.08 5.62-13 0.87-1.92 2.34-5.52 3.27-8 0.93-2.48 3.74-9.45 6.24-15.5 2.51-6.05 5.98-14.37 7.72-18.5 1.75-4.12 6.11-14.7 9.7-23.5 3.59-8.8 7.86-19.37 9.48-23.5 1.63-4.12 4.03-9.75 5.34-12.5 1.3-2.75 3.76-8.37 5.47-12.5 1.71-4.12 4.04-9.75 5.18-12.5 1.14-2.75 2.87-6.8 3.84-9 0.97-2.2 2.27-5.69 2.88-7.75 0.61-2.06 1.56-3.98 2.11-4.25 0.55-0.27 1.79-2.98 2.75-6.01q1.74-5.5 0.75-6.47c-0.6-0.58-32.5-1.3-80.5-1.81-59.45-0.64-80.26-1.17-82.5-2.1-1.65-0.68-4.05-2.23-5.34-3.43-1.28-1.2-2.98-3.76-3.77-5.68-0.79-1.92-1.44-4.85-1.44-6.5 0-1.65 1.32-5.7 2.94-9 1.61-3.3 3.93-8.25 5.15-11 1.21-2.75 4.66-10.18 7.66-16.5 3-6.32 6.27-13.3 7.28-15.5 1.01-2.2 3.19-6.93 4.85-10.5 1.66-3.57 5.08-10.89 7.59-16.25 2.52-5.36 4.58-10.09 4.58-10.5-0.01-0.41 0.95-2.55 2.13-4.75 1.18-2.2 3.7-7.6 5.6-12 1.91-4.4 4.58-10.48 5.93-13.5 1.36-3.02 3.34-7.19 4.4-9.25 1.07-2.06 1.95-4.31 1.96-5 0.01-0.69 1.09-3.5 2.4-6.25 1.3-2.75 3.58-7.7 5.06-11 1.47-3.3 3.5-7.8 4.5-10 1-2.2 3.61-7.82 5.8-12.5 2.2-4.68 5.67-12.1 7.73-16.5 2.06-4.4 4.85-10.48 6.2-13.5 1.36-3.02 3.3-7.3 4.32-9.5 1.01-2.2 3.71-8.05 5.99-13 2.28-4.95 5.74-12.37 7.68-16.5 1.94-4.12 5.02-10.65 6.84-14.5 1.82-3.85 5.64-11.95 8.49-18 2.85-6.05 6.05-13.25 7.11-16 1.06-2.75 3.24-7.7 4.84-11 1.6-3.3 6.1-12.75 9.99-21 3.9-8.25 7.07-15.11 7.06-15.25-0.02-0.14 2.45-5.43 5.47-11.75 3.02-6.32 5.5-11.72 5.5-12 0-0.28 1.61-3.99 3.57-8.25 1.97-4.26 4.43-9.55 5.48-11.75 1.05-2.2 1.91-4.45 1.92-5 0.01-0.55 0.86-2.57 1.89-4.5 1.02-1.93 2.22-4.62 2.67-6 0.45-1.37 2.03-4.3 3.52-6.5 1.49-2.2 3.33-4.55 4.08-5.23 0.75-0.67 2.72-1.65 4.37-2.17 1.82-0.57 53.94-0.87 132.65-0.77zm-127.41 50.01c-3.72 8.34-7.83 17.41-9.13 20.16-1.31 2.75-3.94 8.38-5.86 12.5-1.92 4.13-4.94 10.65-6.71 14.5-1.77 3.85-4.26 9.25-5.54 12-1.28 2.75-3.26 7.14-4.41 9.75-1.15 2.61-2.94 6.66-3.98 9-1.04 2.34-3.91 8.52-6.38 13.75-2.46 5.23-5.63 12.2-7.03 15.5-1.39 3.3-4.37 9.71-6.62 14.25-2.24 4.54-4.09 8.59-4.1 9-0.01 0.41-1.2 3.23-2.64 6.25-1.44 3.02-3 6.29-3.48 7.25-0.47 0.96-2.6 5.69-4.74 10.5-2.13 4.81-5.32 11.9-7.09 15.75-1.78 3.85-4.25 9.25-5.5 12-1.25 2.75-5.48 11.86-9.4 20.25-3.92 8.39-7.13 15.7-7.13 16.25 0 0.55-1.8 4.49-4 8.75-2.2 4.26-4 8.09-4 8.5 0 0.41-2.21 5.36-4.91 11-2.7 5.64-5.17 11.38-5.48 12.75-0.32 1.38-1.28 3.18-2.14 4-0.86 0.82-1.53 1.95-1.5 2.5 0.03 0.55-1.13 3.48-2.57 6.5-1.44 3.02-3.65 7.75-4.92 10.5-1.26 2.75-3.68 8.04-5.38 11.75-1.71 3.71-3.1 7.2-3.1 7.75 0 0.55-1.11 3.14-2.47 5.75-1.37 2.61-3.66 7.45-5.1 10.75-1.44 3.3-4.57 10.05-6.94 15-2.37 4.95-4.62 10.13-4.99 11.5-0.45 1.64-0.22 2.75 0.66 3.23 0.74 0.41 34.19 0.74 74.34 0.74 53.42 0 73.94 0.31 76.5 1.18 1.93 0.64 4.9 2.11 6.61 3.26 1.71 1.15 4.41 3.64 6 5.53 2.7 3.21 2.89 4.02 2.89 12.04 0 6.8-0.46 9.53-2.18 13.06-1.2 2.45-3.32 7.16-4.72 10.46-1.4 3.3-2.56 6.56-2.57 7.25-0.02 0.69-0.98 3.39-2.15 6-1.16 2.61-2.72 6.1-3.46 7.75-0.74 1.65-2.21 5.25-3.28 8-1.06 2.75-3.83 9.5-6.16 15-2.32 5.5-5.34 12.7-6.7 16-1.37 3.3-3.29 8.02-4.28 10.5-0.99 2.48-2.56 6.52-3.49 9-0.93 2.48-2.29 5.85-3.03 7.5-0.74 1.65-2.75 6.38-4.46 10.5-1.72 4.13-3.99 9.3-5.04 11.5-1.06 2.2-1.94 4.34-1.96 4.75-0.01 0.41-2.73 7.16-6.04 15-3.32 7.84-6.92 16.39-8 19-1.09 2.61-2.86 6.89-3.93 9.5-1.07 2.61-4.61 10.83-7.87 18.25-3.26 7.42-6.25 14.63-6.65 16-0.4 1.38-1.85 4.98-3.22 8-1.38 3.02-3.31 7.3-4.31 9.5-1 2.2-2.64 6.34-3.66 9.19-1.01 2.85-1.5 5.44-1.09 5.75 0.41 0.31 2.21-0.93 4-2.75 1.79-1.82 7.97-8.45 13.75-14.75 5.77-6.29 13.47-14.59 17.1-18.44 3.63-3.85 9.26-9.89 12.5-13.43 3.25-3.54 7.9-8.49 10.35-11 2.44-2.51 14.79-16.05 27.44-30.07 12.64-14.02 25.94-28.59 29.55-32.36 3.61-3.77 7.03-7.37 7.61-8 0.58-0.63 10.21-11.26 21.39-23.64 11.19-12.37 24.04-26.55 28.56-31.5 4.52-4.95 9.97-11.03 12.11-13.51 2.14-2.48 4.79-5.45 5.89-6.6 1.1-1.14 3.83-4.06 6.06-6.49 2.23-2.42 11.18-12.27 19.89-21.9 8.71-9.62 19.93-22 24.94-27.49 5.01-5.5 12.26-13.39 16.11-17.54 3.85-4.15 8.79-9.55 10.97-12.01 2.19-2.45 5.5-6.26 7.37-8.46 1.87-2.2 8.63-9.61 15.03-16.46 6.39-6.85 14.22-15.06 17.38-18.25 3.16-3.18 5.75-6.47 5.75-7.29 0-0.82-1.01-1.9-2.25-2.4-1.24-0.49-13.95-1.64-28.25-2.54-14.3-0.91-30.5-2.07-36-2.58-5.5-0.52-20.8-1.41-34-1.98-13.2-0.57-30.41-1.71-38.25-2.52-7.84-0.81-15.94-1.86-18-2.31-2.06-0.46-5.13-2.15-6.81-3.75-1.68-1.61-3.9-4.27-4.92-5.92q-1.87-3-1.83-8.5c0.03-4.17 0.73-6.73 2.92-10.6 1.59-2.8 4.47-7.49 6.39-10.41 1.92-2.93 7.18-10.98 11.68-17.91 4.49-6.92 9.31-13.93 10.7-15.58 1.39-1.65 2.55-3.34 2.58-3.75 0.02-0.41 3.27-5.59 7.21-11.5 3.94-5.91 8.3-12.55 9.67-14.75 1.38-2.2 3.49-5.57 4.68-7.5 1.2-1.93 3.93-6.14 6.08-9.38 2.14-3.23 4.8-7.28 5.9-9.01 1.1-1.72 4.06-6.28 6.57-10.12 2.52-3.85 5.89-9.08 7.5-11.64 1.61-2.55 4.68-7.28 6.82-10.5 2.14-3.22 5.18-7.76 6.75-10.1 1.57-2.34 2.87-4.59 2.89-5 0.01-0.41 1.14-2.21 2.5-4 1.36-1.79 2.47-3.48 2.47-3.75 0-0.27 0.84-1.74 1.87-3.25 1.03-1.51 4.51-6.73 7.75-11.58 3.23-4.86 6.75-10.26 7.82-12 1.07-1.75 3.95-6.32 6.41-10.17 2.45-3.85 6.34-9.93 8.65-13.5 2.3-3.57 6.85-10.49 10.1-15.36 3.24-4.88 6.67-10.05 7.62-11.5 0.95-1.45 2.64-4.21 3.77-6.14 1.13-1.93 3.61-5.64 5.53-8.25 1.91-2.61 3.25-5.43 2.98-6.25-0.44-1.32-12.78-1.5-103-1.5-56.37 0-103.12-0.26-103.87-0.58-0.79-0.33-2.6 0.78-4.25 2.59-1.58 1.74-5.92 9.99-9.64 18.33z"/>
</svg>