<svg version="1.2" xmlns="http://www.w3.org/2000/svg" viewBox="0 0 206 206" width="206" height="206">
	<style>
		.s0 { opacity: 1;fill: #6e303a } 
	</style>
	<g id="Background">
	</g>
	<g id="Folder 2">
		<path id="Path 0" fill-rule="evenodd" class="s0" d="m49.57 16c0.79 0 2.11 1.01 2.94 2.25 0.83 1.24 1.5 3.94 1.49 9.75h17v-5c0-4.02 0.4-5.2 2.04-6.04 1.4-0.71 2.64-0.71 4 0 1.46 0.78 2.02 2.25 2.46 10.54l15.5 0.5v-4.5c0-2.79 0.6-5.07 1.57-6 0.87-0.82 2.1-1.51 2.75-1.52 0.65-0.01 1.75 0.56 2.45 1.25 0.69 0.7 1.26 3.41 1.23 10.77h17l-0.04-3.75c-0.03-2.28 0.73-4.73 1.93-6.25 1.62-2.05 2.31-2.3 3.8-1.4 1.3 0.8 1.88 2.54 2.31 11.4h18v-5.5c0-5.18 0.16-5.54 2.75-6.13 2.05-0.47 3.07-0.15 4.02 1.25 0.69 1.03 1.26 3.79 1.23 10.38h12.25c10.49 0.01 12.72 0.29 15.5 2 1.79 1.1 3.67 2.79 4.18 3.75 0.54 1 1.18 31.52 1.5 71.5 0.46 56.24 0.32 70.38-0.74 73-0.72 1.79-2.41 4.04-3.75 5.01-2.28 1.64-7.71 1.75-162.94 1.74l-7-7v-70.5c0-60.67 0.21-70.92 1.5-73.5 0.82-1.65 2.85-3.68 4.5-4.5 2.14-1.07 6.28-1.5 26-1.5l-0.07-4.43c-0.05-2.88 0.5-4.98 1.57-6 0.9-0.86 2.29-1.57 3.07-1.57zm-7.55 21.11c-1.65 1.73-2.34 3.52-2.21 5.7 0.1 1.76 1.31 4.54 2.69 6.19 1.4 1.68 3.82 3.22 5.5 3.5 1.67 0.28 4.33-0.17 6-1 1.65-0.83 3.45-2.4 4-3.5 0.55-1.1 1.01-3.46 1.03-5.25 0.01-2.24-0.77-3.95-2.5-5.5-1.84-1.63-2.7-1.91-3.15-1-0.34 0.69-0.32 2.38 0.04 3.75 0.36 1.38 0.41 3.29 0.12 4.25-0.3 0.96-1.33 1.98-2.29 2.26-0.96 0.29-2.76-0.16-4-1-1.71-1.14-2.32-2.65-2.54-6.21l-0.29-4.7zm97.88 5.27c0.06 1.16 1.01 3.58 2.11 5.36 1.09 1.79 3.23 3.73 4.74 4.3 1.52 0.58 3.88 0.81 5.25 0.51 1.38-0.29 3.51-1.55 4.75-2.8 1.23-1.24 2.51-3.83 2.84-5.76 0.45-2.65 0.09-4.16-1.5-6.25-1.15-1.51-2.54-2.75-3.09-2.75-0.55 0-1 2.25-1 5 0 4.3-0.34 5.18-2.45 6.25-2.03 1.04-2.72 1-4.04-0.25-1.03-0.96-1.54-2.99-1.45-5.69 0.08-2.3-0.31-4.44-0.87-4.76-0.56-0.31-2 0.63-3.2 2.08-1.21 1.45-2.15 3.6-2.09 4.76zm-118.9 81.61c0 51 0.04 52.02 2 53 1.28 0.65 29.17 1 77.5 1 48.34 0 76.22-0.35 77.5-1 1.96-0.98 2-2 2-53v-52h-159zm25.5-33c4.36-0.02 7.48 0.45 8.27 1.24 0.77 0.77 1.28 3.98 1.29 8.26 0.02 4.46-0.44 7.46-1.26 8.25-0.87 0.83-3.96 1.17-17.3 0.75l-0.47-8.41c-0.37-6.72-0.17-8.58 1-9.23 0.81-0.46 4.62-0.84 8.47-0.86zm26.23 0.02c4.27 0.01 8.34 0.35 9.04 0.75 0.89 0.52 1.18 3.2 0.73 17.73h-18l-0.29-7.91c-0.16-4.35-0.06-8.51 0.23-9.25 0.37-0.96 2.71-1.33 8.29-1.32zm28.77 0.05c4.44-0.06 7.47 0.37 8.27 1.17 0.78 0.78 1.27 3.95 1.27 8.26 0 4.15-0.5 7.51-1.22 8.25-0.74 0.76-3.89 1.25-8.02 1.25-3.74 0-7.47-0.22-8.3-0.5-1.15-0.38-1.54-2.45-1.7-8.91-0.15-6.59 0.12-8.53 1.25-8.92 0.8-0.28 4.6-0.55 8.45-0.6zm36 0.43v18l-8 0.27c-4.4 0.14-8.35-0.08-8.79-0.5-0.43-0.42-0.99-3.8-1.25-7.52-0.26-3.81 0.01-7.63 0.61-8.78 0.97-1.84 1.87-2.02 17.43-1.47zm18.23-0.48c4.27 0.01 8.34 0.35 9.04 0.75 0.89 0.52 1.18 3.2 0.73 17.73h-18l-0.29-7.91c-0.16-4.35-0.06-8.51 0.23-9.25 0.37-0.96 2.71-1.33 8.29-1.32zm-118.81 27.98h9.04c7.15 0 9.15 0.32 9.54 1.5 0.28 0.83 0.5 4.32 0.49 7.75-0.01 3.44-0.35 6.82-0.75 7.52-0.52 0.9-3.2 1.19-17.74 0.73zm45.58 0.5v17h-18l-0.31-7.4c-0.17-4.08-0.05-8.03 0.27-8.79 0.44-1.06 2.61-1.32 18.04-0.81zm28 0v17h-18l-0.31-7.4c-0.17-4.08-0.05-8.03 0.27-8.79 0.44-1.06 2.61-1.32 18.04-0.81zm9.42-0.5h9.04c8.59 0 9.06 0.12 9.45 2.25 0.23 1.24 0.12 5.18-0.91 15.25h-17zm45.9 0l-0.32 17.5-8.5 0.27c-6.03 0.19-8.71-0.1-9.23-1-0.41-0.7-0.82-4.45-0.92-8.35-0.1-3.89 0.19-7.38 0.65-7.75 0.46-0.37 4.77-0.67 18.32-0.67zm-113.82 26.9c1.38 0.22 2.83 0.9 3.24 1.5 0.4 0.61 0.76 4.03 0.79 7.6 0.04 4.09-0.42 6.97-1.23 7.75-0.87 0.83-3.96 1.17-17.3 0.75v-17l6-0.5c3.3-0.27 7.13-0.32 8.5-0.1zm30.82 0.1l-0.32 17.5h-18l-0.31-7.4c-0.17-4.08-0.07-8.01 0.23-8.75 0.39-0.99 2.92-1.35 18.4-1.35zm27.68 0.5v17h-18l-0.31-7.4c-0.17-4.08-0.05-8.03 0.27-8.79 0.44-1.06 2.61-1.32 18.04-0.81zm27.32-0.5l-0.32 17.5-8.5 0.27c-6.07 0.19-8.68-0.1-9.14-1-0.36-0.7-0.71-3.97-0.78-7.27-0.07-3.3 0.13-6.78 0.45-7.75 0.49-1.49 1.89-1.75 18.29-1.75z"/>
	</g>
</svg>