<svg version="1.2" xmlns="http://www.w3.org/2000/svg" viewBox="0 0 206 206" width="206" height="206">
	<style>
		.s0 { fill: #70313d } 
		.s1 { fill: #eec872 } 
	</style>
	<g id="Background">
	</g>
	<g id="Layer 2">
		<path id="Path 1" class="s0" d="m22.29 16.98c-1.21 0.47-3.14 2.13-4.28 3.69-2.06 2.81-2.08 3.42-2.08 81.33 0 77.38 0.03 78.54 2.04 81.25 1.11 1.51 3.38 3.43 5.03 4.25 2.59 1.29-2.13 1.48 77.62 1.5h74.62c0 0 4-0.43 6.11-2.69 1.69-1.82 1.65-5.31 1.65-5.31l-0.5-158.15c0 0-0.63-2.95-1.85-5.59-0.13-0.29-0.11-0.41-0.39-0.52-1.67-0.68-2-0.77-5.26-0.74-76.25 0.75-151.49 0.51-152.71 0.98z"/>
		<path id="Path 2" class="s1" d="m112.37 87.25l-27.12 27.25-23.36-23-17.39 17.5c31 31 40.45 40.01 41 40 0.55 0 16.86-15.86 36.25-35.25 19.38-19.39 35.25-35.92 35.26-36.75 0-0.83-3.49-4.98-7.75-9.24-4.27-4.26-8.21-7.75-8.76-7.75-0.55-0.01-13.21 12.25-28.13 27.24z"/>
	</g>
</svg>