<svg version="1.2" xmlns="http://www.w3.org/2000/svg" viewBox="0 0 206 206" width="206" height="206">
	<style>
		.s0 { fill: #6f303d } 
		.s1 { fill: #f4cf68 } 
	</style>
	<g id="Background">
		<path id="Path 1" class="s0" d="m79.11 15.25c-0.65 0.74-1.01 4.3-0.86 8.72 0.23 6.84 0.46 7.59 2.75 8.77 1.84 0.96 7.43 1.22 21.29 1.03 15.41-0.22 18.96-0.54 19.73-1.77 0.52-0.83 0.96-4.54 0.96-8.25 0.02-4.68-0.44-7.21-1.48-8.25-1.23-1.23-5.04-1.5-21.39-1.5-14.65 0-20.18 0.33-21 1.25zm-51.39 30.51c-6.01 5.98-7.78 8.37-7.75 10.49 0.02 1.81 1.06 3.61 3.03 5.25 1.65 1.37 3.71 2.5 4.58 2.5 0.87 0 5.15-3.6 9.5-8 5.65-5.7 7.92-8.72 7.92-10.5 0-1.56-1.13-3.44-3-5-1.65-1.38-3.79-2.5-4.75-2.49-0.96 0-5.25 3.49-9.53 7.75zm129.75-4.68c-1.49 1.69-2.65 3.71-2.59 4.5 0.07 0.78 3.72 5.02 8.12 9.42 6.07 6.07 8.66 8.01 10.75 8.03 1.59 0.01 3.65-0.93 4.89-2.25 1.17-1.26 2.44-3.41 2.82-4.78 0.61-2.19-0.33-3.44-7.63-10.22-6-5.57-9.08-7.74-11-7.75-1.75-0.02-3.6 1.03-5.36 3.05zm-76.47-0.08c-4.12 1.03-10.2 3.06-13.5 4.54-3.3 1.47-9.33 4.98-13.4 7.81-4.07 2.83-10.37 8.32-14 12.2-3.91 4.18-8.29 10.29-10.75 15-2.28 4.37-5.14 11.1-6.36 14.95-1.54 4.9-2.36 10.61-2.72 19-0.39 9.01-0.1 13.99 1.15 20 0.92 4.4 3.49 11.82 5.7 16.5 2.21 4.68 5.97 11.2 8.36 14.5 2.39 3.3 6.52 8.09 9.18 10.65 2.66 2.56 7.54 6.52 10.84 8.79 3.3 2.28 9.38 5.43 13.5 7.02 4.13 1.58 11.33 3.65 16 4.59 6.36 1.29 11.4 1.59 20 1.2 9.18-0.41 13.42-1.14 21-3.61 5.23-1.7 12.41-4.79 15.97-6.87 3.56-2.07 10.31-7.61 15-12.29 5.76-5.75 9.99-11.12 13.01-16.5 2.46-4.39 5.83-11.8 7.47-16.48 2.8-7.92 3-9.48 3.03-23 0.02-12.49-0.31-15.54-2.34-22-1.3-4.12-3.83-10.42-5.64-14-1.8-3.58-5.46-9.39-8.14-12.92-2.67-3.53-6.88-8.19-9.36-10.36-2.47-2.18-7.2-5.79-10.5-8.04-3.3-2.25-9.26-5.35-13.25-6.89-3.99-1.53-10.4-3.46-14.25-4.29-3.95-0.85-11.68-1.47-17.75-1.43-6.89 0.05-13.44 0.74-18.25 1.93z"/>
		<path id="Path 2" class="s1" d="m181.5 20.67c-0.46 0.36-0.76 1.49-0.67 2.5q0.17 1.83-2.83 2.83c-1.65 0.55-2.85 1.56-2.67 2.25 0.18 0.69 1.3 1.36 2.5 1.5 1.53 0.18 2.46 1.28 3.17 3.75 0.55 1.92 1.34 3.51 1.75 3.52 0.41 0.02 1.09-1.33 1.5-3 0.53-2.11 1.72-3.42 4-4.36l3.25-1.35c-5.65-2.43-6.63-3.56-6.86-5.56-0.18-1.51-0.77-2.75-1.32-2.75-0.54 0-1.36 0.3-1.82 0.67zm-92.5 15.83v2.5h23v-5h-23zm67.78 13.5c0.22 0.83-0.89 2.62-2.49 4l-2.89 2.5 10.6 9.5 6.5-5.5c-9.4-9.3-11.95-11.33-11.72-10.5zm-119.91 6.41l-5.37 5.23 6 6.17 11-10.78-6.25-5.85zm53.42-1.59c-1.21 0.29-5.26 1.39-9 2.44-3.74 1.05-9.27 3.22-12.3 4.82-3.02 1.61-7.75 4.76-10.5 7.01-2.75 2.26-6.9 6.42-9.24 9.26-2.33 2.83-5.58 7.85-7.23 11.15-1.65 3.3-3.76 8.93-4.7 12.5-1.02 3.94-1.69 10.25-1.68 16 0.01 5.88 0.69 11.98 1.77 16 0.97 3.58 3.62 10.1 5.89 14.5 2.96 5.73 6.28 10.14 11.68 15.5 4.76 4.74 10.12 8.87 14.53 11.21 3.84 2.04 10.58 4.63 14.98 5.76 4.89 1.26 11.12 2.05 16 2.03 4.4-0.01 10.93-0.72 14.5-1.56 3.58-0.84 9.65-3.07 13.5-4.95 3.85-1.87 9.48-5.38 12.5-7.79 3.03-2.41 7.71-7.27 10.4-10.79 2.69-3.52 6.16-9.11 7.71-12.41 1.55-3.3 3.53-8.7 4.4-12 0.9-3.43 1.59-10.06 1.59-15.5 0.01-5.46-0.65-12.05-1.56-15.5-0.86-3.3-3.22-9.37-5.23-13.5-2.73-5.59-5.72-9.55-11.73-15.57-6.31-6.31-9.94-9-16.58-12.27-4.67-2.31-11.65-4.85-15.5-5.66-3.85-0.8-10.37-1.41-14.5-1.34-4.12 0.06-8.49 0.36-9.7 0.66z"/>
		<path id="Path 3" class="s0" d="m86 60.51c-3.03 0.73-7.75 2.31-10.5 3.49-2.75 1.19-7.7 4.07-11 6.41-3.3 2.34-8.18 6.91-10.84 10.17-2.67 3.26-6.12 8.62-7.67 11.92-1.56 3.3-3.54 9.49-4.41 13.75-0.87 4.26-1.58 9.55-1.58 11.75 0 2.2 0.68 7.49 1.52 11.75 0.83 4.26 3.19 11.13 5.23 15.25 2.65 5.36 5.86 9.66 11.23 15.05 4.98 5.01 9.88 8.79 14.52 11.19 3.85 2 9.92 4.33 13.5 5.18 3.58 0.85 10.1 1.56 14.5 1.57 4.4 0.01 10.7-0.66 14-1.49 3.3-0.84 9.38-3.18 13.5-5.21 5.56-2.74 9.4-5.64 14.87-11.24 5.35-5.49 8.43-9.73 11.27-15.55 2.14-4.4 4.56-11.15 5.36-15 0.81-3.85 1.47-8.91 1.48-11.25 0.01-2.34-0.67-7.74-1.51-12-0.84-4.26-2.84-10.45-4.44-13.75-1.6-3.3-4.85-8.28-7.22-11.06-2.37-2.79-6.34-6.75-8.81-8.81-2.47-2.06-8.1-5.47-12.5-7.59-4.4-2.12-10.36-4.35-13.25-4.95-2.89-0.6-8.96-1.05-13.5-1.01-4.54 0.05-10.72 0.69-13.75 1.43z"/>
		<path id="Path 4" class="s1" d="m98.19 66.75c0.26 3.98 0.63 4.75 2.31 4.75 1.69 0 2.03-0.73 2.2-4.75 0.2-4.46 0.06-4.75-2.3-4.75-2.38 0-2.5 0.26-2.21 4.75zm0.86 20.92c-1.15 0.39-1.41 2.52-1.25 10.41 0.18 9.17 0.05 9.96-1.8 10.42-1.1 0.28-2.92 1.74-4.03 3.25-1.32 1.78-2.03 4.25-2 7 0.02 3.36 0.66 4.88 3.03 7.25 2.44 2.44 3.83 3 7.5 3 3.25 0 5.2-0.62 7.02-2.25 1.38-1.24 2.9-3.6 3.37-5.25 0.53-1.87 0.43-4.32-0.27-6.48-0.66-2.07-2.42-4.3-4.31-5.5l-3.18-2.02c-0.49-15.43-1.07-19.95-1.63-20.09-0.55-0.13-1.65-0.02-2.45 0.26zm-55.57 29.83c-0.27 0.82-0.25 1.95 0.02 2.5 0.28 0.55 1.96 0.99 3.75 0.98 1.79 0 3.92-0.41 4.75-0.91 0.94-0.56 1.22-1.49 0.75-2.48q-0.74-1.59-4.77-1.59-4.04 0-4.5 1.5zm104.81-0.02c-0.44 0.88-0.34 2.04 0.21 2.59 0.55 0.55 2.8 0.87 5 0.71 3.24-0.23 4-0.66 4-2.28 0-1.63-0.77-2.06-4.21-2.31-3.09-0.22-4.43 0.12-5 1.29zm-17.77 21.02c-0.34 1.62-1.67 2.99-3.77 3.88l-3.25 1.37c4.39 1.8 5.9 3.46 6.5 5.25 0.55 1.65 1.45 3 2 3 0.55 0 1.23-1.12 1.5-2.5 0.3-1.52 1.78-3.16 3.75-4.19l3.25-1.68c-5.72-1.87-6.59-2.79-6.85-4.88-0.19-1.51-0.85-2.75-1.48-2.75-0.63 0-1.37 1.13-1.65 2.5zm-31.55 26.23c-0.95 0.3-1.31 1.93-1.17 5.35 0.18 4.46 0.41 4.9 2.45 4.67 1.87-0.21 2.3-0.94 2.53-4.34 0.18-2.56-0.22-4.46-1.07-5.1-0.75-0.56-1.98-0.83-2.74-0.58z"/>
	</g>
</svg>