<svg version="1.2" xmlns="http://www.w3.org/2000/svg" viewBox="0 0 308 289" width="308" height="289">
	<style>
		.s0 { fill: #dcc05b } 
	</style>
	<path id="Path 0" fill-rule="evenodd" class="s0" d="m157 3.66c3.02 0.3 7.08 1.35 9 2.32 1.92 0.98 5.02 3.07 6.89 4.65 1.86 1.58 4.42 4.67 5.7 6.87 1.27 2.2 2.79 6.25 4.44 14l7.73 2.33c4.26 1.29 10.89 3.84 14.74 5.69 3.85 1.84 8.19 4.17 9.64 5.16 2.64 1.82 2.64 1.82 7-1.96 2.4-2.07 6.61-4.5 9.36-5.38 3.24-1.05 6.94-1.45 10.5-1.13 3.41 0.3 7.55 1.59 10.89 3.39 2.97 1.59 6.92 4.7 8.78 6.9 1.86 2.2 4.13 6.25 5.05 9 0.93 2.77 1.61 7.67 1.54 11-0.11 4.42-0.92 7.58-6.04 18l4.25 8c2.34 4.4 5.32 11.23 9.03 22.37l5.5 1.1c3.02 0.6 7.3 2.14 9.5 3.42 2.2 1.28 5.7 4.31 7.77 6.72 2.07 2.41 4.44 6.41 5.26 8.89 0.82 2.48 1.47 6.98 1.44 10-0.03 3.02-0.71 7.3-1.51 9.5-0.8 2.2-2.69 5.73-4.21 7.85-1.51 2.12-4.77 5.17-7.25 6.78-2.48 1.61-6.98 3.42-15.5 5.13l-2.37 6.62c-1.3 3.64-4.56 10.78-12.13 25.12l2.75 5.21c2.34 4.43 2.75 6.4 2.75 13.25 0 6.31-0.48 9.01-2.24 12.54-1.23 2.48-3.03 5.41-4 6.53-0.97 1.11-3.34 3.19-5.26 4.62-1.92 1.43-5.98 3.38-9 4.33-3.74 1.17-6.94 1.52-10 1.09-2.48-0.36-5.4-0.91-6.5-1.23-1.1-0.32-4.59-2.32-13.5-8.34l-8.75 4.3c-4.81 2.37-12.35 5.13-24.75 7.93l-1.25 5.64c-0.69 3.09-2.6 7.99-4.25 10.88-1.65 2.89-4.91 6.62-7.25 8.3-2.34 1.68-6.5 3.71-9.25 4.51-2.75 0.8-6.35 1.46-8 1.47-1.65 0.01-5.43-0.79-8.4-1.76-2.97-0.97-7.02-3.16-9-4.86-1.98-1.71-5.04-5.76-6.81-9-1.76-3.25-3.56-8.05-4-10.68-0.53-3.21-1.28-4.76-2.29-4.77-0.82 0-5.32-1.13-10-2.51-4.68-1.37-11.76-4.06-23-9.45l-2.75 2.51c-1.51 1.38-4.32 3.26-6.25 4.19-1.93 0.93-6.43 1.87-10 2.09-3.57 0.22-8.3-0.11-10.5-0.73-2.2-0.63-6.25-2.83-9-4.9-3.44-2.58-6.01-5.69-8.25-9.96-2.75-5.24-3.25-7.25-3.23-12.95 0.02-5.24 0.63-8.04 5.48-18.27l-5.24-10.74c-2.88-5.91-5.85-13.22-6.61-16.24-1.37-5.48-1.39-5.5-5.76-6.06-2.41-0.3-6.19-1.48-8.39-2.62-2.2-1.14-5.35-3.19-7-4.56-1.65-1.37-4.35-4.91-5.99-7.88-2.54-4.56-3-6.47-3-12.48-0.01-6.15 0.46-8.03 3.49-13.98 2.81-5.53 4.58-7.62 9-10.64 3.83-2.62 7.14-3.99 16.31-5.28l2.22-6.5c1.22-3.57 3.37-8.98 4.78-12 1.41-3.02 3.55-7.07 6.95-12.5l-3.15-6.5c-2.48-5.11-3.15-7.78-3.13-12.5 0.02-4.49 0.74-7.51 2.86-12 1.66-3.5 4.69-7.64 7.25-9.93 2.43-2.16 5.98-4.58 7.91-5.38 1.93-0.79 6.2-1.46 9.5-1.49 3.3-0.02 7.8 0.57 10 1.32 2.2 0.76 5.91 2.86 12.5 7.98l9.25-4.82c5.09-2.65 13.15-5.91 26.61-9.68l0.41-4c0.23-2.2 1.27-5.77 2.32-7.92 1.05-2.16 3.71-5.7 5.91-7.87 2.2-2.17 5.24-4.56 6.75-5.32 1.51-0.77 4.44-1.81 6.5-2.33 2.06-0.52 6.23-0.7 9.25-0.4zm-20.47 15.47c-1.75 2.4-3.52 6.17-3.94 8.37-0.42 2.2-0.42 6.02 0 8.5 0.45 2.62 2.07 6.17 3.89 8.5 1.72 2.2 4.68 5.02 6.57 6.26 1.9 1.25 5.47 2.55 7.95 2.9 2.51 0.35 6.49 0.1 9-0.56 2.48-0.66 6.02-2.41 7.87-3.9 1.85-1.48 4.46-4.72 5.79-7.2q2.43-4.5 2.47-9.5c0.02-2.75-0.7-6.8-1.6-9-0.9-2.2-2.85-5.28-4.33-6.84-1.49-1.56-4.39-3.7-6.45-4.75-2.41-1.23-5.82-1.91-9.53-1.91-4.2 0-6.99 0.65-10.15 2.38-2.41 1.3-5.8 4.34-7.54 6.75zm-25.53 23.22c-3.57 1.42-9.09 3.95-12.25 5.61l-5.75 3.04c3.81 8.47 4.17 10.81 3.8 15.5-0.26 3.42-1.5 8.15-2.87 11-1.32 2.75-3.87 6.46-5.67 8.25-1.79 1.79-5.17 4.2-7.51 5.37-2.34 1.17-6.5 2.36-9.25 2.65-2.75 0.29-7.25-0.03-10-0.71-2.75-0.68-6.24-2.1-7.75-3.15-1.51-1.05-2.9-1.8-3.09-1.66-0.18 0.14-1.7 2.73-3.37 5.75-1.68 3.02-4.23 8.54-5.67 12.25-1.44 3.71-2.61 7.54-2.59 8.5 0.01 1.03 1.55 2.46 3.75 3.47 2.04 0.95 5.45 3.2 7.57 5 2.12 1.8 5.05 5.76 6.5 8.78 2.17 4.5 2.64 6.86 2.59 13-0.05 6-0.57 8.5-2.62 12.5-1.41 2.75-4.31 6.54-6.44 8.43-2.13 1.88-5.79 4.24-8.13 5.25-2.34 1-4.25 2.16-4.25 2.57-0.01 0.41 1.38 4.35 3.07 8.75 1.69 4.4 4.39 10.36 6 13.25 1.61 2.89 3.38 5.25 3.93 5.25 0.55 0 1.23-0.45 1.5-1 0.27-0.55 3.54-1.91 7.25-3.02 3.71-1.11 7.99-2.01 9.5-2 1.51 0.01 4.89 0.75 7.5 1.64 2.61 0.89 6.69 3.03 9.06 4.75 2.37 1.72 5.41 4.82 6.75 6.88 1.34 2.06 3.14 6.11 3.99 9 1.24 4.21 1.34 6.39 0.5 11-0.58 3.16-1.5 6.65-2.05 7.75-0.55 1.1-0.83 2.34-0.63 2.75 0.2 0.41 2.79 1.97 5.75 3.46 2.96 1.49 8.08 3.63 11.38 4.76 3.3 1.13 8.02 2.33 10.5 2.66l4.5 0.59c1.85-5.98 4.13-9.74 6.27-12.22 2.34-2.7 6.05-5.48 9.31-6.96 4.06-1.85 7.17-2.47 12.42-2.5 5.43-0.03 8.01 0.48 11.5 2.3 2.48 1.28 6.08 3.83 8 5.67 1.92 1.84 4.63 5.64 6 8.44 1.38 2.81 3.17 5.09 4 5.08 0.83-0.02 4.65-0.94 8.5-2.05 3.85-1.11 10.15-3.6 14-5.54l7-3.52c-2.1-6.53-2.67-10.67-2.61-13.42 0.05-2.75 0.56-6.58 1.13-8.5 0.56-1.92 2.14-5.41 3.5-7.75 1.37-2.34 3.94-5.32 5.73-6.64 1.79-1.31 5.27-3.38 7.75-4.61 3.32-1.64 6.13-2.2 10.75-2.11 3.86 0.07 7.97 0.87 10.75 2.11 2.48 1.1 4.73 2.45 5 3 0.27 0.55 0.84 1.01 1.25 1.02 0.41 0.02 2.65-3.24 4.97-7.25 2.32-4 5.09-9.75 6.15-12.77 1.06-3.02 2.22-6.17 2.58-7 0.47-1.09-0.52-1.96-3.65-3.2-2.37-0.94-6.32-3.47-8.8-5.62-2.48-2.15-5.59-6.1-6.91-8.79-1.43-2.89-2.59-7.35-2.85-10.89-0.34-4.61 0.09-7.39 1.85-12 1.26-3.3 3.89-7.73 5.85-9.83 1.96-2.11 5.92-4.93 8.81-6.25l5.25-2.42c-4.04-11.24-6.76-17.43-8.64-21l-3.43-6.5c-9.38 4.49-11.93 4.98-17.93 4.94-5.8-0.03-8.52-0.57-12-2.35-2.48-1.27-6-3.72-7.84-5.45-1.84-1.73-4.48-5.39-5.88-8.14-1.4-2.75-2.77-7.48-3.06-10.5-0.34-3.64 0.04-7.19 1.11-10.5 0.94-2.86 1.26-5.43 0.77-6-0.47-0.55-3.73-2.43-7.23-4.17-3.5-1.75-9.07-4.05-12.37-5.13-3.3-1.07-7.12-2.23-8.5-2.57-2.21-0.55-2.7-0.14-4.24 3.62-0.95 2.34-3.02 5.82-4.6 7.75-1.58 1.93-5.3 4.81-8.27 6.41-3.62 1.96-7.36 3.07-11.39 3.39-3.95 0.32-7.71-0.07-11-1.12-2.75-0.88-7.02-3.36-9.5-5.5-2.69-2.33-5.56-6.16-7.14-9.54-1.45-3.1-2.8-5.59-3-5.53-0.2 0.06-2.16 0.46-4.36 0.89-2.2 0.43-6.93 1.94-10.5 3.35zm-54.43 3.69c-2.16 1.35-4.91 3.81-6.11 5.46-1.2 1.65-2.7 4.57-3.34 6.5-0.63 1.93-1.15 5.41-1.14 7.75 0.01 2.34 0.72 5.94 1.57 8 0.86 2.06 2.77 5.03 4.25 6.59 1.49 1.56 4.5 3.79 6.7 4.96 2.74 1.45 5.89 2.12 10 2.15 4.77 0.03 6.97-0.52 10.75-2.7 2.96-1.72 5.88-4.54 7.75-7.5 1.65-2.61 3.28-6.77 3.62-9.25 0.35-2.54 0.09-6.24-0.58-8.5-0.66-2.2-2.4-5.73-3.87-7.83-1.47-2.11-4.24-4.75-6.17-5.86-1.93-1.11-5.55-2.33-8.06-2.71-2.5-0.37-6.1-0.42-8-0.1-1.89 0.31-5.21 1.68-7.37 3.04zm168.56 2.19c-1.85 1.8-4.29 5.07-5.42 7.27-1.39 2.72-2.05 5.92-2.05 10-0.01 3.56 0.64 7.22 1.58 9 0.87 1.65 3.09 4.41 4.92 6.14 1.84 1.72 4.69 3.8 6.34 4.61 1.65 0.81 4.35 1.78 6 2.16 1.65 0.38 5.02 0.36 7.5-0.05 2.48-0.4 6.5-2.12 8.94-3.8 2.68-1.84 5.35-4.85 6.73-7.56 1.56-3.1 2.28-6.29 2.3-10.25 0.02-3.16-0.67-7.44-1.52-9.5-0.85-2.06-3.21-5.46-5.25-7.54-2.38-2.44-5.48-4.31-8.7-5.26-2.75-0.81-6.13-1.43-7.5-1.38-1.38 0.05-4.3 0.72-6.5 1.49-2.2 0.77-5.52 2.87-7.37 4.67zm-209.38 80.27c-1.61 1.65-3.52 4.13-4.25 5.5-0.73 1.38-1.64 4.75-2.02 7.5-0.39 2.84-0.2 6.84 0.42 9.25 0.62 2.38 2.75 6.06 4.85 8.37 2.06 2.27 5.44 4.97 7.5 6 2.31 1.16 5.87 1.88 9.25 1.88 3.38 0 6.94-0.72 9.25-1.88 2.06-1.03 5.44-3.73 7.5-6 2.06-2.27 4.2-5.81 4.74-7.87 0.55-2.06 1-4.76 1-6 0.01-1.24-0.45-4.16-1-6.5-0.56-2.34-2.7-6.24-4.75-8.67-2.06-2.44-5.54-5.24-7.74-6.23-2.3-1.04-6.34-1.81-9.5-1.81-3.23 0.01-6.91 0.72-8.91 1.73-1.88 0.95-4.73 3.08-6.34 4.73zm245.08 0c-1.74 1.65-3.98 4.8-4.97 7-1 2.2-1.83 6.14-1.84 8.75-0.01 2.61 0.68 6.44 1.54 8.5 0.86 2.06 2.58 5.1 3.83 6.75 1.24 1.65 4.48 4.07 7.19 5.37 3.43 1.66 6.73 2.39 10.92 2.43 4.38 0.03 6.94-0.52 9.5-2.06 1.92-1.15 4.71-3.37 6.2-4.92 1.48-1.55 3.39-4.51 4.25-6.57 0.85-2.06 1.55-6 1.55-8.75 0-2.75-0.59-6.46-1.31-8.25-0.72-1.79-2.63-4.96-4.25-7.06-1.62-2.09-4.85-4.68-7.19-5.75-2.63-1.2-6.44-1.94-10-1.94-3.58-0.01-6.98 0.65-9.01 1.75-1.79 0.96-4.68 3.1-6.41 4.75zm-203.58 76.18c-1.51 0.92-3.69 2.61-4.83 3.75-1.14 1.14-2.88 3.65-3.86 5.57-0.98 1.92-2.02 5.52-2.31 8-0.28 2.48-0.02 6.08 0.58 8 0.61 1.92 2.47 5.41 4.14 7.75 1.98 2.78 4.84 5.11 8.28 6.74 2.89 1.37 6.82 2.49 8.75 2.49 1.93 0.01 5.19-0.44 7.25-0.99 2.06-0.54 5.6-2.68 7.87-4.74 2.27-2.06 4.97-5.44 6-7.5 1.16-2.31 1.88-5.87 1.88-9.25 0-3.02-0.6-6.96-1.33-8.75-0.73-1.79-2.87-4.97-4.75-7.06-1.88-2.1-5.22-4.43-7.42-5.18-2.2-0.76-5.13-1.57-6.5-1.81-1.38-0.24-4.41-0.04-6.75 0.43-2.34 0.48-5.49 1.63-7 2.55zm164 7.09c-2.1 3.05-3.49 6.5-3.91 9.73-0.4 3.1-0.13 6.9 0.7 10 0.97 3.57 2.66 6.3 5.91 9.55 3.87 3.87 5.45 4.71 10.55 5.64 4.39 0.79 7.22 0.78 10.54-0.05 2.5-0.63 6.3-2.49 8.45-4.14 2.27-1.75 4.86-5.09 6.19-8 1.27-2.75 2.3-6.8 2.3-9 0.01-2.2-0.44-5.69-0.99-7.75-0.54-2.06-2.68-5.62-4.74-7.91-2.06-2.28-5.55-4.97-7.75-5.97-2.32-1.06-6.31-1.83-9.5-1.82-4 0-6.73 0.68-10 2.5-2.58 1.43-5.89 4.52-7.75 7.22zm-83.65 30.31c-1.6 1.88-3.51 4.88-4.25 6.67-0.74 1.79-1.34 5.84-1.33 9 0.02 3.45 0.77 7.35 1.88 9.75 1.01 2.2 3.14 5.21 4.72 6.7 1.59 1.48 4.68 3.45 6.88 4.37 2.26 0.95 6.39 1.63 9.5 1.58 3.96-0.07 6.69-0.81 9.75-2.63 2.34-1.38 5.3-3.98 6.59-5.77 1.29-1.79 2.89-4.6 3.55-6.25 0.67-1.65 1.25-5.48 1.3-8.5 0.06-3.71-0.58-6.8-1.96-9.5-1.13-2.2-3.33-5.21-4.89-6.7-1.56-1.48-4.53-3.39-6.59-4.25-2.06-0.85-6.11-1.54-9-1.53-2.89 0.01-7.05 0.84-9.25 1.83-2.2 0.99-5.31 3.35-6.9 5.23zm15.98-165.08c0.78 0 3.96 2.81 7.05 6.25 3.1 3.44 7.37 9.4 9.49 13.25 2.12 3.85 3.97 7.4 4.12 7.88 0.14 0.48 2.96-0.84 6.26-2.93 3.3-2.1 8.81-5.08 12.25-6.63 3.44-1.55 7.6-2.82 9.25-2.82 2.62 0 3.06 0.41 3.47 3.25 0.26 1.79 0.82 6.3 2.03 16.82l4-0.62c2.2-0.34 6.32-0.69 9.16-0.78 2.85-0.09 5.55 0.19 6 0.63 0.46 0.44 0.05 4.04-0.92 8-0.96 3.96-3.33 10.46-8.74 21.7l4.92 2.75c2.7 1.51 7.89 5.23 11.52 8.25 3.63 3.02 6.59 6.06 6.58 6.75-0.01 0.69-3.51 4.43-7.77 8.32-5.04 4.6-10.55 8.44-15.75 10.99-4.4 2.16-10.92 4.66-14.5 5.55-4.34 1.08-9.39 1.5-23.92 0.89l-1.79 3.98c-0.98 2.18-4.33 6.68-7.42 10-3.1 3.31-7.71 7.48-14.87 12.52l-5.75-4.31c-3.16-2.37-7.66-6.53-9.99-9.25-2.33-2.72-5.19-6.74-8.49-12.94l-10.64-0.01c-8.16-0.01-12.26-0.52-17.63-2.22-3.85-1.21-9.9-3.91-13.45-5.99-3.55-2.08-9.53-6.7-13.29-10.28-3.77-3.58-6.84-6.95-6.84-7.5 0-0.55 3.28-3.64 7.29-6.87 4.01-3.23 9.2-6.94 15.79-10.63l-3.5-7.25c-1.92-3.99-4.22-10.62-5.1-14.75-1.33-6.25-1.37-7.63-0.25-8.3 0.74-0.44 4.73-0.51 8.85-0.16 4.13 0.36 7.95 0.84 8.5 1.07 0.59 0.26 1.29-3.13 1.7-8.34 0.39-4.82 1.07-9.59 1.5-10.59 0.63-1.42 1.44-1.66 3.8-1.13 1.65 0.38 5.7 1.75 9 3.05 3.3 1.29 8.59 4.17 17.5 10.4l4.54-8.25c2.5-4.54 6.81-10.84 9.58-14 2.77-3.16 5.68-5.75 6.46-5.75zm-13.06 26.5c-1.88 3.85-4.11 9.93-4.96 13.5-0.84 3.57-1.51 9.2-1.48 12.5 0.05 5.08 0.21 5.62 1.08 3.5 0.56-1.37 2.39-5.43 4.06-9 1.68-3.57 4.9-8.92 7.16-11.87 2.27-2.96 4.91-5.77 5.87-6.25 0.96-0.48 2.35-0.54 3.07-0.13 0.73 0.41 2.94 2.55 4.91 4.75 1.97 2.2 5.2 6.7 7.18 10 1.98 3.3 3.82 7.24 4.09 8.75 0.28 1.51 0.95 2.75 1.5 2.75 0.63 0 0.78-2.51 0.4-6.75-0.34-3.71-1.72-10.12-3.08-14.25-1.35-4.12-3.85-9.75-5.53-12.5-1.69-2.75-4.7-6.93-6.68-9.3-1.99-2.36-4.06-4.26-4.61-4.23-0.55 0.03-2.92 2.64-5.28 5.79-2.35 3.16-5.81 8.89-7.7 12.74zm-33.27 9c0.38 7.24 1.29 13.05 2.66 17l2.09 6c10.46 1.68 14.37 2.58 15.43 3.09 1.83 0.86 1.9 0.6 1.26-5.09-0.37-3.3-0.27-8.7 0.22-12 0.49-3.3 1.16-7.12 1.49-8.5 0.5-2.12-0.13-3.02-4.16-5.95-2.61-1.89-7.55-4.7-10.99-6.25-3.44-1.54-6.49-2.8-6.77-2.8-0.29 0-0.82 0.79-1.17 1.75-0.35 0.96-0.38 6.7-0.06 12.75zm72.92-3.77c-3.29 2.74-3.31 2.83-2.17 7.27 0.64 2.48 1.02 8.69 0.83 13.8-0.32 8.91-0.25 9.28 1.67 8.7 1.1-0.34 5.06-1.15 8.8-1.8l6.8-1.2c3.12-10.07 4.29-16.82 4.61-21.5 0.32-4.68 0.36-10.19 0.09-12.25-0.26-2.06-0.89-3.74-1.39-3.72-0.5 0.02-4.28 1.81-8.41 3.98-4.12 2.17-9 5.19-10.83 6.72zm-35.56 17.02c-1.43 2.89-3.28 7.84-4.09 11-0.82 3.16-1.27 7.44-1 9.5 0.26 2.06 1.61 6.11 2.99 9 1.38 2.89 4.51 7.27 6.95 9.75 4.42 4.48 4.45 4.49 6.99 2.75 1.4-0.96 4.13-3.89 6.05-6.5 1.93-2.61 4.23-7.23 5.12-10.25 0.95-3.23 1.45-7.57 1.2-10.5-0.23-2.78-1.88-8.11-3.71-12-1.81-3.85-4.75-9.14-6.52-11.75-1.78-2.61-3.66-4.74-4.16-4.72-0.51 0.02-2.34 1.93-4.07 4.25-1.72 2.32-4.31 6.58-5.75 9.47zm-56.01-4.5c0.75 2.89 2.72 8.06 4.38 11.5 2.37 4.91 3.39 6.12 4.77 5.66 0.96-0.32 3.24-0.88 5.07-1.25 2.73-0.54 3.21-1.02 2.72-2.66-0.32-1.1-1.26-4.48-2.07-7.5-0.81-3.02-1.48-6.29-1.48-7.25 0.01-1.26-1.25-2.03-4.49-2.75-2.48-0.55-5.8-1-7.38-1h-2.88zm118.27-2.49c-0.34 0.41-1.32 3.67-2.16 7.24-0.84 3.57-1.83 7.4-2.19 8.5-0.55 1.66-0.1 2.11 2.66 2.66 1.82 0.37 3.99 0.95 4.82 1.29 1.02 0.42 2.19-0.58 3.7-3.17 1.2-2.08 3.12-6.48 4.26-9.78 1.14-3.3 2.06-6.79 2.05-7.75-0.01-1.04-0.72-1.71-1.76-1.64-0.96 0.06-3.78 0.51-6.25 1.01-2.48 0.5-4.78 1.23-5.13 1.64zm-105.87 25.24c0 0.55 1.95 3.14 4.33 5.75 2.38 2.61 7 6.54 10.25 8.72 3.26 2.18 8.62 4.94 11.92 6.13 3.3 1.19 8.36 2.44 11.25 2.78l5.25 0.62c-5.1-6.59-7.42-10.75-8.43-13.5-1.01-2.75-2.91-6.01-4.21-7.25-1.3-1.24-4.72-2.93-7.61-3.76-2.89-0.83-7.95-1.44-11.25-1.35-3.3 0.09-7.24 0.32-8.75 0.51-1.51 0.19-2.75 0.8-2.75 1.35zm77.71 1.82c-3.16 1.4-4.05 2.51-5.42 6.68-0.9 2.75-2.53 6.58-3.63 8.5-1.1 1.92-2.72 4.3-3.58 5.28-1.48 1.67-1.38 1.78 1.42 1.74 1.65-0.02 5.25-0.64 8-1.36 2.75-0.72 7.92-2.86 11.49-4.74 3.57-1.88 9.78-6.57 13.79-10.42 4.01-3.85 6.94-7.36 6.51-7.81-0.44-0.44-4.84-1-9.79-1.23-4.97-0.24-10.35 0.04-12 0.62-1.65 0.58-4.71 1.81-6.79 2.74zm-99.21 9.58l-4 3.6c6.97 6.36 11.92 9.95 15.5 12.08 3.86 2.3 9.95 4.75 15 6.02 6.41 1.62 10.34 2.03 16 1.65 4.12-0.27 10.32-1.34 13.77-2.37 3.45-1.03 6.26-2.22 6.25-2.63-0.01-0.41-1.48-0.76-3.27-0.76-1.79-0.01-5.5-0.61-8.25-1.35-2.75-0.73-7.48-2.55-10.5-4.04-3.03-1.48-7.64-4.25-10.25-6.15-2.61-1.9-6.89-6.12-9.5-9.38-2.61-3.26-5.2-5.96-5.75-5.99-0.55-0.03-3.25 1.24-6 2.83-2.75 1.59-6.8 4.51-9 6.49zm111.5 10.87c-3.58 1.97-9.2 4.3-12.5 5.17-3.3 0.86-8.03 1.57-10.5 1.58-3.32 0.01-4.11 0.27-3 1 0.82 0.54 4.42 1.92 8 3.05 4.52 1.44 9.09 2.06 15 2.03 4.67-0.02 11.2-0.75 14.5-1.63 3.3-0.88 8.92-3.14 12.5-5.03 3.57-1.89 9.2-5.83 12.5-8.76l6-5.33c-8.53-6.24-12.91-9.02-15.25-10.2-2.34-1.18-4.36-2.13-4.5-2.1-0.14 0.02-3.85 3.77-8.25 8.33-5.07 5.26-10.38 9.61-14.5 11.89zm-51.5 14.94c-2.2 0.63-4.11 1.29-4.25 1.47-0.14 0.18 1.77 3.24 4.25 6.82 2.47 3.58 6.75 8.3 9.5 10.5l5 4c5.81-4.51 8.69-7.09 10.15-8.66 1.45-1.56 3.83-4.64 5.28-6.84 1.44-2.2 2.62-4.56 2.6-5.25-0.02-0.69-0.59-1.24-1.28-1.22-0.69 0.02-4.85-1.77-9.25-3.97-4.4-2.2-8.23-3.98-8.5-3.95-0.28 0.02-2.53 1.38-5 3-2.48 1.63-6.3 3.47-8.5 4.1z"/>
</svg>