<svg version="1.2" xmlns="http://www.w3.org/2000/svg" viewBox="0 0 816 678" width="816" height="678">
	<style>
		.s0 { fill: #d2b160 } 
	</style>
	<path id="Path 0" fill-rule="evenodd" class="s0" d="m250.5 5.11c8.25-0.08 16.35 0.26 18 0.76 1.65 0.5 7.27 1.45 12.5 2.12 5.23 0.67 13.32 2.01 18 2.99 4.68 0.98 13.45 3.23 19.5 4.99 6.05 1.77 15.27 5.03 20.5 7.25 5.23 2.21 13.55 6.05 18.5 8.54 4.95 2.48 14.17 7.92 20.5 12.1 6.33 4.17 15.33 10.69 20 14.48 4.67 3.78 11.2 9.47 14.5 12.64 3.3 3.16 9.7 9.75 14.22 14.64 4.52 4.88 9.92 11.2 12 14.04 2.08 2.84 6.09 8.47 8.91 12.5 2.82 4.04 6.89 10.49 9.06 14.34 2.16 3.85 6.21 11.95 9 18 2.79 6.05 7.11 17.07 9.61 24.5 2.5 7.43 5.23 16.43 6.06 20 0.84 3.57 1.89 8.65 2.33 11.28 0.63 3.73 1.14 4.64 2.31 4.12 0.83-0.37 3.3-1.12 5.5-1.66 2.2-0.55 5.58-1.6 7.5-2.34 1.92-0.74 8.23-2.45 14-3.81 5.77-1.36 13.88-2.97 18-3.57 4.13-0.61 13.8-1.43 21.5-1.83 7.7-0.39 20.75-0.42 29-0.06 8.25 0.36 20.17 1.42 26.5 2.35 6.33 0.94 18.25 3.64 26.5 5.99 8.25 2.36 18.15 5.53 22 7.04 3.85 1.51 11.5 4.9 17 7.54 5.5 2.64 14.27 7.36 19.5 10.5 5.23 3.14 10.63 6.58 12 7.65 1.37 1.06 5.88 4.42 10 7.45 4.13 3.04 10.88 8.51 15 12.17 4.13 3.66 9.75 8.96 12.5 11.8 2.75 2.83 7.48 8 10.5 11.49 3.02 3.48 7.41 8.94 9.75 12.11 2.34 3.18 6.67 9.49 9.63 14.03 2.96 4.54 7.24 11.51 9.5 15.5 2.27 3.99 4.12 7.59 4.11 8-0.01 0.41 1.96 4.8 4.37 9.75 2.4 4.95 6.19 14.63 8.41 21.5 2.22 6.87 4.73 14.98 5.59 18 0.85 3.02 2.29 9.77 3.19 15 0.9 5.23 1.82 9.84 2.05 10.25 0.22 0.41 0.79 8.51 1.26 18 0.47 9.49 0.49 23.55 0.04 31.25-0.45 7.7-1.75 19.4-2.89 26-1.14 6.6-3.69 17.63-5.67 24.5-1.98 6.87-5.51 17.23-7.85 23-2.33 5.77-5.77 13.65-7.64 17.5-1.87 3.85-5.37 10.6-7.79 15-2.41 4.4-4.76 8.11-5.22 8.25-0.46 0.14-0.84 0.7-0.84 1.25 0 0.55-2.36 4.47-5.25 8.7-2.89 4.24-6.95 9.53-9.03 11.75-2.08 2.23-3.78 4.28-3.78 4.55-0.01 0.27-1.97 2.75-4.36 5.5-2.39 2.75-8.11 8.66-12.71 13.14-4.61 4.48-10.86 10.11-13.91 12.5-3.04 2.4-7.32 5.73-9.5 7.4-2.18 1.67-6.44 4.66-9.46 6.64-3.02 1.99-9.55 5.95-14.5 8.81-4.95 2.86-12.38 6.79-16.5 8.73-4.13 1.94-11.77 5.23-17 7.31-5.23 2.07-12.88 4.74-17 5.92-4.13 1.19-9.75 2.82-12.5 3.65-2.75 0.82-10.63 2.48-17.5 3.69-10.65 1.88-16.17 2.21-37.29 2.21-20.94 0-24.93-0.23-25.73-1.5q-0.95-1.49-0.96-0.25c-0.02 0.92-1.52 1.09-5.77 0.64-3.16-0.33-10.25-1.46-15.75-2.52-5.5-1.05-13.38-2.83-17.5-3.95-4.13-1.12-12.67-3.86-19-6.08-6.33-2.22-13.08-4.84-15-5.8-1.92-0.97-7.55-3.71-12.5-6.07-4.95-2.37-12.83-6.68-17.5-9.56-4.67-2.89-12.17-7.88-16.65-11.08-4.48-3.21-12.24-9.43-17.24-13.83-5-4.4-9.1-8.56-9.1-9.25-0.01-0.69-0.8-1.45-1.76-1.69-0.96-0.25-5.13-4.12-9.25-8.61-4.13-4.49-8.63-9.81-10.01-11.81-1.38-2-5.08-7.01-8.22-11.14-3.15-4.12-5.74-7.95-5.76-8.5-0.03-0.55-0.92-1.9-1.98-3-1.06-1.1-4.07-6.05-6.68-11-2.61-4.95-6.16-11.92-7.9-15.5-1.73-3.58-4.31-9.42-5.73-13-1.41-3.58-4.14-11.67-6.05-18-1.91-6.33-4.13-15.33-4.92-20-1.08-6.32-1.81-8.41-2.85-8.14-0.77 0.2-5.67 1.6-10.9 3.11-5.23 1.51-14 3.67-19.5 4.8-5.5 1.13-13.6 2.53-18 3.11-4.4 0.59-15.2 1.36-24 1.71-9.87 0.4-21.18 0.19-29.5-0.55-7.43-0.67-18.9-2.28-25.5-3.59-6.6-1.32-17.63-4-24.5-5.96-6.88-1.97-14.3-4.41-16.5-5.44-2.2-1.03-5.13-2.18-6.5-2.57-1.38-0.39-4.07-1.48-6-2.43-1.93-0.94-6.65-3.24-10.5-5.11-3.85-1.86-11.73-6.27-17.5-9.78-5.77-3.52-12.75-8.01-15.5-9.99-2.75-1.98-7.48-5.58-10.5-8-3.02-2.43-9.51-8.07-14.41-12.54-4.89-4.47-11.87-11.59-15.5-15.81-3.62-4.23-8.45-10.08-10.72-13-2.28-2.93-6.59-9.14-9.59-13.82-3-4.68-6.17-9.85-7.06-11.5-0.88-1.65-3.6-7.05-6.04-12-2.44-4.95-5.81-12.15-7.47-16-1.67-3.85-4.68-11.95-6.7-18-2.02-6.05-4.58-14.82-5.7-19.5-1.11-4.68-2.71-12.1-3.55-16.5-1.01-5.26-1.68-16.39-1.95-32.5-0.33-18.79-0.05-27.41 1.19-37 0.89-6.87 2.73-17.23 4.08-23 1.36-5.77 3.63-14.1 5.05-18.5 1.42-4.4 4.6-12.95 7.07-19 2.47-6.05 6.77-15.28 9.56-20.5 2.8-5.22 6.49-11.75 8.22-14.5 1.73-2.75 4.25-6.64 5.59-8.64 1.33-2 5.09-7.18 8.33-11.5 3.25-4.32 7.47-9.66 9.38-11.86 1.9-2.2 7.35-7.99 12.09-12.87 4.75-4.87 12.9-12.34 18.13-16.58 5.23-4.25 13.77-10.6 19-14.11 5.23-3.51 16.48-9.81 25-14 8.52-4.19 17.07-8.18 19-8.88 1.93-0.69 4.4-1.65 5.5-2.12 1.1-0.48 6.27-2.22 11.5-3.87 5.23-1.66 12.43-3.64 16-4.41 3.57-0.76 9.65-1.97 13.5-2.67 3.85-0.7 12.62-1.83 19.5-2.51 6.87-0.67 19.25-1.29 27.5-1.37zm-36.5 39.97c-4.13 0.62-11.1 2-15.5 3.07-4.4 1.07-13.4 3.78-20 6.01-6.6 2.24-16.5 6.3-22 9.04-5.5 2.74-12.7 6.6-16 8.57-3.3 1.97-11.18 7.41-17.5 12.08-6.32 4.68-15.06 12.13-19.41 16.58-4.36 4.44-10.54 11.11-13.75 14.82-3.21 3.71-8.84 11.36-12.5 17-3.67 5.64-7.41 11.38-8.31 12.75-0.9 1.38-3.37 5.88-5.49 10-2.11 4.13-6.44 14.7-9.61 23.5-3.17 8.8-6.72 20.73-7.89 26.5-1.16 5.77-2.59 16.57-3.18 24-0.58 7.43-0.77 18.45-0.42 24.5 0.35 6.05 1.3 15.95 2.12 22 0.82 6.05 2.2 13.93 3.06 17.5 0.85 3.57 2.7 10.1 4.09 14.5 1.4 4.4 3.66 10.7 5.02 14 1.36 3.3 3.87 8.93 5.57 12.5 1.7 3.57 4.42 8.75 6.05 11.5 1.63 2.75 5.37 8.71 8.31 13.25 2.94 4.54 7.99 11.51 11.22 15.5 3.24 3.99 9.43 10.86 13.75 15.27 4.33 4.41 11.24 10.73 15.37 14.05 4.12 3.32 11.77 8.94 17 12.5 5.23 3.56 14.23 8.81 20 11.68 5.77 2.86 12.98 6.09 16 7.17 3.02 1.08 7.52 2.68 10 3.55 2.48 0.87 5.4 1.99 6.5 2.49 1.1 0.49 7.18 2.04 13.5 3.43 6.32 1.4 14.87 3.11 19 3.81 4.48 0.75 16.15 1.26 29 1.25 15.86-0.01 24.38-0.49 32.5-1.81 6.05-0.99 17.07-3.51 24.5-5.61 7.43-2.1 15.19-4.54 17.25-5.42l3.75-1.61c0.02-9.69 0.48-17.9 1.05-24.5 0.57-6.6 1.94-17.4 3.05-24 1.1-6.6 3.15-15.82 4.54-20.5 1.39-4.68 3.44-11.2 4.56-14.5 1.12-3.3 2.44-6.45 2.93-7 0.5-0.55 0.9-1.56 0.89-2.25-0.01-0.69 2.49-6.54 5.56-13 3.08-6.46 8.1-16.02 11.16-21.25 3.07-5.23 9.53-14.68 14.35-21 4.82-6.32 12.54-15.32 17.16-20 4.61-4.68 11.67-11.43 15.69-15 4.02-3.57 11.19-9.35 15.94-12.84 4.74-3.49 9.29-6.61 10.12-6.94 0.83-0.34 3.52-2.04 6-3.79 2.48-1.75 5.96-3.91 7.75-4.81 3.14-1.56 3.23-1.79 2.68-6.37-0.32-2.61-1.71-9.48-3.09-15.25-1.39-5.77-3.22-12.75-4.08-15.5-0.86-2.75-2.81-8.15-4.32-12-1.51-3.85-4.42-10.6-6.46-15-2.04-4.4-6.21-12.28-9.28-17.5-3.06-5.22-7.37-11.97-9.57-15-2.21-3.03-7.7-9.78-12.21-15-4.51-5.22-9.71-10.91-11.56-12.64-1.85-1.73-6.96-6.14-11.36-9.8-4.4-3.67-12.95-9.83-19-13.7-6.05-3.87-16.4-9.67-23-12.89-6.6-3.22-16.05-7.21-21-8.86-4.95-1.65-13.73-4.11-19.5-5.47-5.77-1.35-15.45-3.15-21.5-3.99-6.05-0.85-16.63-1.75-23.5-2.01-6.88-0.25-16.1-0.07-20.5 0.42-4.4 0.49-11.38 1.4-15.5 2.02zm312 186.04c-5.23 1.18-13.1 3.21-17.5 4.51-4.4 1.3-10.48 3.28-13.5 4.39l-5.5 2.03c-1.11 24.37-2.13 35.95-2.97 41.45-0.85 5.5-2.05 12.25-2.67 15-0.62 2.75-2.71 10.63-4.66 17.5-1.94 6.88-5.5 17.45-7.92 23.5-2.41 6.05-7.23 16.18-10.72 22.5-3.48 6.32-8.62 14.88-11.41 19-2.79 4.13-6.5 9.52-8.23 12-1.74 2.48-5.23 6.98-7.75 10-2.52 3.02-8.65 9.7-13.62 14.84-4.98 5.14-12.43 12.08-16.55 15.42-4.13 3.34-13.13 9.78-20 14.31-6.88 4.53-13.75 8.85-15.28 9.59-1.53 0.73-2.75 2.01-2.72 2.84 0.04 0.83 0.92 5.55 1.96 10.5 1.04 4.95 2.53 11.25 3.3 14 0.78 2.75 3.34 10.17 5.71 16.5 2.36 6.33 6.68 16.23 9.6 22 2.93 5.77 6.47 12.19 7.87 14.25 1.41 2.06 2.56 3.98 2.56 4.25 0 0.27 1.91 3.13 4.25 6.35 2.34 3.22 6.12 8.28 8.4 11.25 2.29 2.97 7.79 9.23 12.24 13.9 4.45 4.67 8.09 8.73 8.1 9 0.01 0.27 5.39 4.55 11.97 9.5 6.57 4.95 11.96 9.45 11.97 10 0.01 0.55 1.38 1.34 3.05 1.75 1.66 0.41 4.14 1.88 5.52 3.25 1.37 1.38 3.06 2.49 3.75 2.49 0.69-0.01 3.5 1.4 6.25 3.13 2.75 1.73 6.58 3.71 8.5 4.39 1.92 0.68 6.42 2.61 10 4.29 3.58 1.68 9.65 4.02 13.5 5.2 3.85 1.18 7.9 2.53 9 3 1.1 0.47 3.12 1.07 4.5 1.33 1.37 0.27 7 1.4 12.5 2.52 5.5 1.12 16.98 2.56 25.5 3.21 11.79 0.89 18.73 0.9 29 0.02 7.42-0.64 19.8-2.47 27.5-4.07 7.7-1.61 16.25-3.55 19-4.32 2.75-0.78 10.17-3.6 16.5-6.27 6.33-2.67 16.23-7.52 22-10.78 5.77-3.26 13.2-7.78 16.5-10.03 3.3-2.26 6.23-4.35 6.5-4.63 0.27-0.29 2.98-2.46 6-4.82 3.02-2.37 9.73-8.43 14.9-13.48 5.17-5.05 13.28-14.35 18.03-20.68 4.75-6.33 11.83-17.12 15.74-24 3.9-6.87 7.87-14.3 8.83-16.5 0.95-2.2 2.6-6.25 3.66-9 1.07-2.75 3.05-8.37 4.42-12.5 1.37-4.12 2.89-8.85 3.38-10.5 0.49-1.65 1.6-6.6 2.47-11 0.87-4.4 2.04-11.6 2.61-16 0.57-4.4 1.02-15.76 1-25.25-0.02-9.49-0.51-20.74-1.08-25-0.58-4.26-1.96-12.25-3.07-17.75-1.12-5.5-3.6-14.73-5.53-20.5-1.93-5.77-6.93-17.48-11.13-26-4.19-8.52-9.63-18.43-12.1-22-2.46-3.57-8.05-11-12.43-16.5-4.37-5.5-12.05-14.06-17.07-19.02-5.02-4.97-12.96-11.9-17.63-15.41-4.67-3.51-10.26-7.55-12.41-8.97-2.16-1.43-5.53-3.63-7.5-4.9-1.98-1.26-9.44-5.16-16.59-8.65-7.15-3.5-17.5-7.8-23-9.56-5.5-1.76-13.6-4.09-18-5.18-4.4-1.08-11.83-2.64-16.5-3.45-4.67-0.81-16.83-1.64-27-1.85-10.17-0.21-22.55 0.03-27.5 0.54-4.95 0.51-13.27 1.89-18.5 3.07zm-97.54 51.16c-4.42 3.97-11.55 11.27-15.85 16.22-4.29 4.95-10.64 13.27-14.11 18.5-3.46 5.23-8.52 13.77-11.23 19-2.72 5.23-6.33 12.88-8.03 17-1.69 4.13-3.98 10.2-5.09 13.5-1.1 3.3-3.14 9.83-4.52 14.5-1.39 4.68-3.25 13-4.14 18.5-0.88 5.5-1.47 11.25-1.3 12.78l0.31 2.78c7.78-5.86 12.28-9.34 15.02-11.52 2.74-2.18 8.13-7.14 11.98-11.02 3.85-3.89 9.04-9.53 11.54-12.54 2.49-3.01 6.78-8.4 9.53-11.98 2.75-3.57 7.56-11 10.69-16.5 3.13-5.5 7.68-14.5 10.1-20 2.43-5.5 5.84-14.05 7.58-19 1.74-4.95 4.02-12.37 5.06-16.5 1.04-4.12 2.63-11.77 3.53-17 0.89-5.23 1.43-10.49 1.19-11.7-0.42-2.08-0.83-1.92-7.33 2.78-3.79 2.74-10.51 8.23-14.93 12.2z"/>
</svg>