<svg version="1.2" xmlns="http://www.w3.org/2000/svg" viewBox="0 0 206 206" width="206" height="206">
	<style>
		.s0 { fill: #70303d } 
		.s1 { fill: #d6ac52 } 
	</style>
	<g id="Background">
	</g>
	<g id="Layer 3">
		<path id="Path 1" class="s0" d="m90.44 17.83c-3.82 2.65-11.39 9.06-16.83 14.25-5.44 5.18-12.68 13.02-16.09 17.42-3.42 4.4-8.05 11.15-10.31 15-2.26 3.85-5.45 10.38-7.09 14.5-1.64 4.13-3.52 10.65-4.19 14.5-0.7 4.09-0.94 10.01-0.57 14.25 0.35 3.99 1.66 10.06 2.91 13.5 1.25 3.44 3.59 8.5 5.19 11.25 1.61 2.75 4.97 7.19 7.48 9.88 2.51 2.68 7.26 6.79 10.56 9.13 3.3 2.34 8.7 5.6 12 7.26 3.3 1.65 9.5 4.29 13.78 5.86l7.79 2.87c-0.03 13.95 0.29 18.6 0.7 19.32 0.4 0.73 1.63 1.18 2.73 0.99 1.81-0.3 2.05-1.31 2.5-10.68l0.5-10.35c14.72-5.27 22.38-8.71 26.5-11.04 4.52-2.55 10.5-7.21 15.03-11.73 4.39-4.38 8.86-10.01 10.7-13.51 1.73-3.3 3.91-8.93 4.84-12.5 0.98-3.75 1.69-10.3 1.69-15.5 0-6.21-0.68-11.48-2.2-17-1.21-4.4-4.19-11.83-6.62-16.5-2.42-4.68-7.29-12.33-10.81-17-3.53-4.68-11.07-13.03-16.77-18.56-5.7-5.53-13.73-12.4-17.86-15.27-4.12-2.87-7.75-5.21-8.06-5.2-0.31 0.02-3.69 2.2-7.5 4.86z"/>
		<path id="Path 2" class="s1" d="m39.37 46.2c-0.61 2.22-1.63 3.38-3.37 3.79-1.37 0.33-2.5 1.16-2.5 1.84 0 0.68 1.1 1.78 2.45 2.45 1.35 0.67 2.7 2.3 3 3.63 0.3 1.33 1.11 2.56 1.8 2.75 0.69 0.19 1.7-1.01 2.25-2.66 0.55-1.65 1.9-3.23 3-3.5 1.1-0.28 2-1.18 2-2 0-0.83-1.01-1.89-2.25-2.36-1.37-0.52-2.54-2.09-3-4-0.41-1.73-1.15-3.14-1.63-3.14-0.49 0-1.28 1.44-1.75 3.2zm123.63 84.8c0 1.1-1.36 3.01-3.02 4.25-1.66 1.24-3.01 2.59-3 3 0.01 0.41 1.15 0.97 2.52 1.25 1.38 0.28 2.49 1.06 2.48 1.75-0.01 0.69 0.64 2.15 1.45 3.25 1.41 1.93 1.5 1.89 2.52-1.25 0.73-2.25 1.82-3.4 3.55-3.75 1.38-0.28 2.5-0.95 2.5-1.5 0-0.55-1.12-1.45-2.5-2q-2.5-1-3-4c-0.3-1.78-1.11-3-2-3-0.83 0-1.5 0.89-1.5 2zm-129.52 27.5c-0.27 0.82-0.7 2.18-0.98 3-0.27 0.82-1.86 1.84-3.53 2.25-1.66 0.41-2.86 1.2-2.67 1.75 0.2 0.55 1.33 1.11 2.53 1.25 1.41 0.16 2.7 1.48 3.67 3.75 0.83 1.93 1.73 3.5 2 3.5 0.28 0 1.18-1.57 2-3.5 0.97-2.27 2.26-3.59 3.67-3.75 1.2-0.14 2.32-0.81 2.5-1.5 0.18-0.69-0.68-1.36-1.92-1.5-1.52-0.17-2.63-1.31-3.43-3.5-0.65-1.79-1.68-3.25-2.28-3.25-0.6 0-1.3 0.68-1.56 1.5zm62.52-102.75c0 3.16-0.33 10.57-0.75 16.46l-0.75 10.71c-16.27-16.16-21.79-20.87-22.75-20.89-0.96-0.01-2.02 0.53-2.36 1.22-0.36 0.75 4.84 6.66 12.98 14.75l13.58 13.5c0.04 30.46-0.33 38.4-0.87 38.25-0.5-0.14-7.7-6.66-16-14.5-8.29-7.84-15.53-14.03-16.08-13.75-0.55 0.28-1.02 1.29-1.04 2.25-0.02 0.99 7.15 8.6 16.5 17.5l16.54 15.75c0.49 28.6 0.62 29.49 2.5 29.81 1.1 0.19 2.35-0.26 2.77-0.99 0.43-0.72 0.71-7.39 0.62-14.82l-0.15-13.5c26.62-25.58 34.33-33.56 34.3-34.25-0.02-0.69-0.72-1.47-1.54-1.75-0.95-0.32-7.05 4.8-16.75 14.07l-15.25 14.56-0.61-39.63c20.26-19.37 26.14-25.79 26.13-26.75-0.01-0.96-0.68-1.75-1.48-1.75-0.8 0-6.54 4.84-12.75 10.75l-11.29 10.75c-0.38-22.47-0.71-30.01-0.99-31.25-0.32-1.41-1.25-2.25-2.51-2.25-1.77 0-2 0.67-2 5.75z"/>
	</g>
</svg>