<svg version="1.2" xmlns="http://www.w3.org/2000/svg" viewBox="0 0 490 484" width="490" height="484">
	<style>
		.s0 { opacity: 1;fill: #642835 } 
		.s1 { opacity: .99;fill: #f1c555 } 
		.s2 { opacity: .36;fill: #a0918a } 
	</style>
	<g id="Background">
		<path id="Path 1" fill-rule="evenodd" class="s0" d="m250 6.41c23.97 0.25 30.25 0.63 39.5 2.4 6.05 1.16 16.4 3.66 23 5.55 6.6 1.89 16.27 5.12 21.5 7.18 5.23 2.05 14 5.99 19.5 8.74 5.5 2.75 14.05 7.51 19 10.58 4.95 3.07 13.27 8.79 18.5 12.72 5.23 3.93 14.4 11.82 20.4 17.53 5.99 5.71 14.47 14.66 18.84 19.89 4.37 5.23 11.57 14.9 15.99 21.5 4.42 6.6 11.33 18.75 15.35 27 4.02 8.25 9.08 20.4 11.25 27 2.17 6.6 5.11 17.18 6.53 23.5 1.43 6.32 3.28 17.35 4.12 24.5 0.84 7.15 1.52 19.41 1.52 27.25 0 7.84-0.71 20.66-1.58 28.5-0.87 7.84-3.16 20.55-5.1 28.25-1.93 7.7-5.32 18.95-7.53 25-2.21 6.05-6.64 16.17-9.85 22.5-3.21 6.33-8.22 15.33-11.15 20-2.92 4.67-8.69 12.97-12.8 18.43-4.12 5.46-11.99 14.64-17.49 20.39-5.5 5.75-13.83 13.66-18.5 17.58-4.67 3.91-12.1 9.65-16.5 12.74-4.4 3.09-13.17 8.58-19.5 12.19-6.33 3.61-16.67 8.79-23 11.5-6.33 2.72-16.67 6.57-23 8.57-6.33 2-16.9 4.74-23.5 6.09-6.6 1.35-17.63 2.97-24.5 3.61-7.53 0.69-20.45 0.92-32.5 0.58-11-0.32-24.39-1.28-29.75-2.13-5.36-0.85-15.94-3.14-23.5-5.09-7.56-1.94-18.93-5.6-25.25-8.13-6.32-2.52-16-6.84-21.5-9.6-5.5-2.75-14.27-7.7-19.5-11-5.23-3.29-13.99-9.42-19.47-13.61-5.49-4.19-15.16-12.81-21.5-19.15-6.34-6.34-14.96-16.01-19.14-21.5-4.19-5.48-10.1-13.8-13.14-18.47-3.04-4.67-7.8-12.77-10.59-18-2.78-5.23-7.13-14.67-9.66-21-2.53-6.33-5.89-16-7.46-21.5-1.57-5.5-3.6-13.38-4.51-17.5-0.91-4.13-2.3-12-3.08-17.5-0.86-6.1-1.42-18.39-1.43-31.5-0.01-16.37 0.47-24.72 1.99-35 1.09-7.43 3.31-18.45 4.93-24.5 1.62-6.05 4.63-15.73 6.69-21.5 2.07-5.77 6.93-16.8 10.82-24.5 3.89-7.7 10.08-18.5 13.76-24 3.68-5.5 9.75-13.82 13.48-18.5 3.73-4.68 11.29-13.02 16.8-18.55 5.5-5.53 14.51-13.63 20.01-18 5.5-4.37 14.28-10.71 19.5-14.07 5.23-3.37 13.32-8.19 18-10.71 4.68-2.52 13.45-6.66 19.5-9.2 6.05-2.53 15.95-6.1 22-7.93 6.05-1.83 14.82-4.11 19.5-5.07 4.68-0.96 12.32-2.33 17-3.04 5.91-0.91 17.19-1.22 37-1.02zm-55.5 15.25c-6.05 1.44-16.18 4.38-22.5 6.53-6.32 2.16-16.9 6.52-23.5 9.7-6.6 3.17-16.27 8.42-21.5 11.66-5.23 3.24-14 9.26-19.5 13.39-5.5 4.13-15.63 13.16-22.5 20.05-6.88 6.9-15.88 17.01-20 22.48-4.13 5.47-10.99 15.81-15.27 22.99-4.27 7.17-10.04 18.44-12.82 25.04-2.78 6.6-6.58 17.18-8.43 23.5-1.86 6.32-4.28 16-5.39 21.5-1.1 5.5-2.53 15.18-3.19 21.5-0.73 7.08-0.95 18.03-0.59 28.5 0.33 9.35 1.31 21.5 2.18 27 0.87 5.5 2.74 14.73 4.16 20.5 1.42 5.77 4.14 15 6.03 20.5 1.9 5.5 6.52 16.3 10.27 24 3.76 7.7 9.63 18.27 13.06 23.5 3.43 5.23 9.63 13.77 13.79 19 4.16 5.23 12.09 14 17.64 19.5 5.54 5.5 15.47 14.07 22.07 19.05 6.59 4.98 16.04 11.45 20.99 14.37 4.95 2.93 11.93 6.79 15.5 8.58 3.57 1.79 11.9 5.38 18.5 7.98 6.6 2.6 17.85 6.22 25 8.04 7.15 1.83 17.73 4.06 23.5 4.95 5.77 0.89 18.6 1.89 28.5 2.2 13.64 0.44 21.27 0.18 31.5-1.08 7.42-0.92 18-2.58 23.5-3.7 5.5-1.13 16.08-4.04 23.5-6.48 7.42-2.45 19.35-7.29 26.5-10.76 7.15-3.47 16.83-8.7 21.5-11.62 4.67-2.92 12.77-8.51 18-12.42 5.22-3.91 14.39-11.84 20.38-17.61 5.98-5.77 14.5-15 18.93-20.5 4.43-5.5 10.85-14.27 14.27-19.5 3.42-5.23 8.91-14.9 12.2-21.5 3.29-6.6 7.58-16.27 9.52-21.5 1.94-5.23 4.68-13.55 6.07-18.5 1.4-4.95 3.44-13.73 4.53-19.5 1.09-5.77 2.52-17.48 3.18-26 0.93-12.04 0.93-18.85 0-30.5-0.65-8.25-2.28-20.63-3.62-27.5-1.33-6.88-3.98-17.45-5.89-23.5-1.9-6.05-5.53-15.95-8.05-22-2.53-6.05-6.88-15.05-9.68-20-2.8-4.95-8.02-13.27-11.61-18.5-3.59-5.23-9.34-12.88-12.77-17-3.43-4.13-11.13-12.25-17.1-18.06-5.97-5.8-15.13-13.76-20.36-17.67-5.23-3.91-13.55-9.65-18.5-12.75-4.95-3.1-13.95-8.04-20-10.97-6.05-2.94-15.5-7-21-9.04-5.5-2.03-14.95-4.98-21-6.53-6.05-1.56-17.3-3.77-25-4.9-10.72-1.58-18.57-2.05-33.5-1.97-10.73 0.05-24.23 0.73-30 1.51-5.77 0.79-15.45 2.6-21.5 4.04z"/>
		<path id="Path 3" class="s1" d="m45.62 38c-0.33 0.82-1.45 3.98-2.48 7l-1.87 5.5c-10.67 3.55-14 4.76-14.27 4.98-0.27 0.22 2.78 1.44 6.79 2.71l7.28 2.31c3.05 8.14 3.93 10.95 3.93 11.5 0 0.55 0.45 1.23 1 1.5 0.55 0.27 1.73-2.09 2.62-5.25 0.89-3.16 2.13-6.35 2.75-7.08 0.62-0.73 3.38-1.97 6.13-2.76 2.75-0.79 5.68-1.83 6.5-2.32 1.09-0.64-0.33-1.45-5.25-2.98-3.71-1.16-7.09-2.66-7.5-3.34-0.41-0.67-1.71-3.94-2.88-7.25-1.35-3.78-2.37-5.46-2.75-4.52zm398.54 382l-2.16 7c-10.87 3.49-14.03 4.73-14.03 5 0 0.27 3.04 1.4 6.76 2.51l6.77 2c3.53 10.84 4.65 14.1 4.78 14.23 0.12 0.13 1.34-2.91 2.72-6.77 1.92-5.38 3.08-7.23 5-7.94 1.37-0.51 4.42-1.51 6.77-2.23 2.35-0.71 4.27-1.64 4.25-2.05-0.01-0.41-2.61-1.47-5.77-2.34-3.16-0.88-6.33-2.12-7.05-2.75-0.71-0.64-2.14-3.97-3.16-7.41-1.03-3.44-2.06-6.25-2.3-6.25-0.23 0-1.4 3.15-2.58 7zm-356.72-294.73l-2.05 6.23c-9.99 3.59-13.12 4.8-13.39 4.99-0.27 0.2 2.54 1.29 6.25 2.43l6.75 2.08c3.27 10.56 4.52 13.07 4.98 12.5 0.44-0.55 1.52-3.59 2.41-6.75 1.6-5.72 1.64-5.76 6.86-7.27 2.89-0.83 5.93-1.9 6.75-2.38 1.11-0.64-0.21-1.5-5-3.28-6.41-2.38-6.53-2.49-8.5-8.03-1.1-3.09-2.23-5.87-2.51-6.18-0.28-0.32-1.43 2.23-2.55 5.66zm305.64 213c-0.79 2.88-2.36 6.16-3.5 7.3-1.15 1.15-4.56 2.65-7.58 3.34-3.05 0.7-5.05 1.62-4.5 2.05 0.55 0.44 3.48 1.59 6.5 2.56 3.02 0.98 5.84 2.27 6.26 2.88 0.42 0.6 1.43 3.46 2.25 6.35 0.82 2.89 1.83 5.26 2.24 5.27 0.41 0.01 1.65-2.79 2.75-6.22l2-6.24c9.3-2.82 12.33-3.96 12.74-4.35 0.41-0.39-1.84-1.55-5-2.57-3.16-1.03-6.32-2.38-7.04-3-0.71-0.63-2.01-3.39-2.87-6.14-0.87-2.75-1.86-5.33-2.2-5.73-0.35-0.4-1.27 1.62-2.05 4.5z"/>
		<path id="Path 4" fill-rule="evenodd" class="s0" d="m250 88.4c13.7 0.28 18.11 0.76 26 2.84 5.23 1.38 12.88 3.9 17 5.6 4.13 1.7 11.66 5.69 16.74 8.88 5.08 3.18 12.7 8.93 16.94 12.78 4.24 3.85 10.22 10.37 13.28 14.5 3.07 4.12 7 9.98 8.74 13 1.74 3.02 4.51 8.87 6.16 13 1.65 4.12 3.93 11.1 5.08 15.5 1.15 4.4 2.53 12.95 3.07 19 0.63 7.12 0.63 14.7 0 21.5-0.53 5.77-2.07 14.77-3.42 20-1.35 5.23-4.1 13.33-6.11 18-2.01 4.67-5.5 11.65-7.76 15.5-2.26 3.85-7.51 11.73-11.67 17.5-4.16 5.77-9.24 13.87-11.28 18-2.05 4.12-4.69 11.33-5.88 16-1.82 7.15-2.07 10.25-1.6 19.5 0.38 7.43 1.54 14.74 3.56 22.5 1.64 6.33 4.64 16 6.66 21.5 2.02 5.5 3.51 10.67 3.32 11.5-0.31 1.31-8.29 1.53-63.09 1.75-58.9 0.23-62.79 0.14-63.61-1.5-0.47-0.96-1.42-7.6-2.09-14.75-0.67-7.15-1.85-16.38-2.61-20.5-0.99-5.34-2.05-8.09-3.66-9.55-2.02-1.83-4.11-2.13-19.27-2.75-9.92-0.42-19.19-1.33-22.25-2.2-3.26-0.93-6.79-2.92-9.31-5.25-2.23-2.06-4.71-5.55-5.52-7.75-0.91-2.51-1.91-12.15-3.92-47.84l-2.5-0.74c-1.37-0.41-5.76-1.68-9.75-2.83q-7.25-2.09-9.78-4.84c-1.8-1.95-2.53-3.85-2.5-6.5 0.02-2.26 2.27-9.02 5.66-17 3.1-7.29 8.53-19.55 12.08-27.25 4.74-10.31 6.46-15.19 6.52-18.5 0.04-2.48-0.03-9.23-0.15-15-0.17-8.38 0.28-12.42 2.22-20 1.34-5.23 4.1-13.1 6.13-17.5 2.03-4.4 6.25-11.82 9.37-16.5 3.12-4.68 9.07-11.88 13.22-16 4.14-4.13 10.9-9.82 15.01-12.66 4.11-2.84 11.07-6.97 15.47-9.18 4.4-2.22 11.6-5.2 16-6.64 4.4-1.44 11.38-3.25 15.5-4.03 5.16-0.98 12.65-1.32 24-1.09zm-30.5 9.81c-4.4 1.16-11.6 3.62-16 5.47-4.4 1.85-10.93 5.12-14.5 7.26-3.57 2.14-9.86 6.75-13.96 10.23-4.11 3.48-10.31 9.93-13.78 14.33-3.47 4.4-8.28 11.82-10.68 16.5-2.41 4.68-5.62 12.32-7.13 17-2.47 7.58-2.84 10.56-3.44 27.5l-0.68 19c-11.23 24.02-16.47 35.61-18.91 41.25-2.43 5.64-4.44 11.04-4.46 12-0.03 0.96 0.53 2.31 1.25 2.99 0.71 0.68 5.79 2.59 11.29 4.24 5.5 1.66 10.31 3.57 10.68 4.26 0.38 0.69 0.93 3.96 1.23 7.26 0.29 3.3 0.8 12.52 1.12 20.5 0.32 7.98 1 16.52 1.53 19 0.56 2.66 2.07 5.6 3.69 7.2 1.51 1.48 4.55 3.46 6.75 4.39 3.06 1.3 8.41 1.84 22.68 2.3l18.69 0.61c4.79 4.65 6.81 8.02 7.58 10.5 0.78 2.48 1.66 5.85 1.97 7.5 0.31 1.65 1.18 8.85 1.93 16 0.75 7.15 1.65 13.56 2 14.25 0.51 0.98 12.76 1.25 56.15 1.25 43.74 0 55.5-0.26 55.49-1.25-0.01-0.69-1.38-5.3-3.06-10.25-1.67-4.95-4.24-13.73-5.7-19.5-2.27-8.94-2.66-12.58-2.64-24.5 0.02-12.64 0.29-14.78 2.78-22 1.52-4.4 4.57-11.38 6.79-15.5 2.22-4.13 7.53-12.45 11.81-18.5 4.29-6.05 9.83-14.83 12.33-19.5 2.49-4.67 5.88-12.33 7.52-17 1.64-4.68 3.67-12.32 4.51-17 0.84-4.68 1.81-11.65 2.16-15.5 0.34-3.85 0.11-11.73-0.52-17.5-0.64-5.77-1.96-13.65-2.94-17.5-0.98-3.85-2.86-9.7-4.17-13-1.32-3.3-4.31-9.38-6.65-13.5-2.34-4.13-7.08-10.88-10.53-15-3.45-4.13-9.63-10.3-13.73-13.73-4.1-3.42-10.82-8.15-14.95-10.49-4.12-2.35-11.33-5.8-16-7.67-4.67-1.87-12.55-4.22-17.5-5.24-6.44-1.32-12.83-1.8-22.5-1.71-7.43 0.08-14.85 0.32-16.5 0.55-1.65 0.22-6.6 1.35-11 2.5z"/>
		<path id="Path 5" class="s2" d="m237.5 293.75c6.05 0.17 15.5 0.17 21 0 5.5-0.18 0.55-0.33-11-0.33-11.55 0-16.05 0.15-10 0.33z"/>
		<path id="Path 6" class="s1" d="m245.5 114.67c-0.46 0.36-0.76 6.21-0.67 13 0.15 10.78 0.39 12.4 1.92 12.88 1.04 0.33 2.26-0.18 3.02-1.25 0.82-1.17 1.26-5.37 1.25-12.05-0.01-5.64-0.25-10.93-0.52-11.75-0.27-0.82-1.33-1.5-2.33-1.5-1.01 0-2.21 0.3-2.67 0.67zm-57.5 21.53c-0.77 0.66-1.31 1.67-1.21 2.25 0.1 0.58 3.79 4.99 8.2 9.8 4.96 5.41 8.77 8.75 10.01 8.75 1.1 0 2.23-0.68 2.5-1.5 0.27-0.82-0.8-3.19-2.39-5.25-1.59-2.06-5.64-6.34-9-9.5-3.36-3.16-6.24-5.75-6.41-5.75-0.17 0-0.93 0.54-1.7 1.2zm107.7 8.3c-4.49 4.96-7.59 9.23-7.44 10.25 0.15 0.96 1.08 1.75 2.08 1.75 0.99 0 5.37-3.6 9.73-8 5.17-5.22 7.92-8.78 7.93-10.25 0-1.68-0.58-2.25-2.3-2.25-1.61 0-4.59 2.54-10 8.5zm-132.45 49.25c-1.67 0.19-2.25 0.9-2.25 2.75 0 1.37 0.67 2.73 1.5 3 0.82 0.27 6.23 0.5 12 0.5 5.77 0 11.4-0.45 12.5-1 1.1-0.55 2-1.68 2-2.5 0-0.82-0.56-1.75-1.25-2.06-0.69-0.3-5.98-0.64-11.75-0.75-5.77-0.1-11.51-0.08-12.75 0.06zm143.33 1.75c-0.32 0.82 0.09 2.18 0.92 3 1.2 1.2 3.92 1.45 13.45 1.25 7.66-0.16 12.41-0.69 13.25-1.46 0.75-0.7 0.98-1.87 0.55-2.75-0.62-1.27-3.09-1.54-14.17-1.54-10.99 0-13.52 0.27-14 1.5zm-112.19 49.22q-8.38 8.78-8.13 10.78c0.13 1.12 1.12 2.13 2.24 2.31 1.29 0.19 3.21-1.04 5.42-3.5 1.89-2.1 5.6-6.17 8.25-9.06 3.36-3.65 4.6-5.72 4.08-6.79-0.41-0.84-1.37-1.76-2.12-2.03-0.8-0.28-4.82 3.14-9.74 8.29zm95.09-6.22c-0.27 0.84 1.67 4.02 4.43 7.25 2.7 3.16 6.41 7.24 8.25 9.06 2.02 2.01 4.12 3.19 5.32 3 1.1-0.17 2.14-1.21 2.33-2.31 0.24-1.42-2.1-4.41-7.99-10.26-4.57-4.54-9.12-8.25-10.09-8.25-0.98 0.01-1.99 0.69-2.25 1.51z"/>
		<path id="Path 7" class="s0" d="m235 152.56c-3.02 0.86-8.14 2.99-11.37 4.75-3.23 1.75-8.25 5.67-11.15 8.69-3.01 3.14-6.71 8.51-8.63 12.5-3.25 6.79-3.35 7.38-3.35 19.5 0 12.09 0.11 12.73 3.33 19.5 1.83 3.85 5.5 9.93 8.17 13.5 2.67 3.57 6.22 9.43 7.9 13 1.9 4.04 3.46 9.53 4.13 14.5 0.59 4.4 1.27 8.79 1.52 9.75 0.41 1.6 2.32 1.75 21.7 1.79 16.19 0.04 21.51-0.26 22.36-1.25 0.62-0.71 1.38-4.21 1.71-7.79 0.33-3.58 1.28-8.75 2.11-11.5 0.83-2.75 2.98-7.37 4.79-10.26 1.8-2.9 5.5-8.52 8.22-12.5 2.72-3.98 5.86-9.72 6.99-12.74 1.59-4.29 2.03-7.82 1.99-16-0.03-8.26-0.5-11.68-2.17-16-1.18-3.02-4.09-8.2-6.48-11.5-2.39-3.3-7.02-7.93-10.3-10.29-3.29-2.36-8.45-5.23-11.47-6.37-3.73-1.42-8.56-2.21-15-2.46-6.57-0.26-11.2 0.11-15 1.18zm-8.37 123.69c-1.03 0.71-1.66 2.12-1.46 3.25 0.34 1.92 1.27 2.01 21.84 2.31 19.07 0.27 21.66 0.12 22.99-1.37 1.35-1.5 1.25-1.86-1-3.6-2.27-1.75-4.23-1.92-21.53-1.88-13.52 0.03-19.55 0.4-20.84 1.29zm-1.26 12c-0.32 0.69-0.31 2.04 0.02 3 0.56 1.6 2.56 1.75 22.61 1.75 20.09 0 22.04-0.15 22.5-1.75 0.28-0.96-0.06-2.33-0.75-3.04-0.95-0.99-6.38-1.29-22.52-1.25-16.01 0.03-21.42 0.35-21.86 1.29zm0.63 12.75c0 1.1 1.01 2.68 2.25 3.51 1.24 0.83 3.15 1.51 4.25 1.51 1.1 0 2.97 1.24 4.16 2.74 2.05 2.61 2.56 2.74 10.84 2.74 8.26 0 8.8-0.13 10.84-2.72 1.19-1.49 3.51-2.96 5.16-3.27 1.65-0.3 3.79-1.44 4.75-2.53 0.96-1.09 1.52-2.43 1.25-2.98-0.31-0.62-8.67-1-22-1-20.83 0-21.5 0.06-21.5 2z"/>
	</g>
</svg>