<svg version="1.2" xmlns="http://www.w3.org/2000/svg" viewBox="0 0 659 658" width="659" height="658">
	<style>
		.s0 { opacity: 1;fill: #642835 } 
		.s1 { opacity: 1;fill: #e4ba5c } 
	</style>
	<g id="Background">
		<path id="Path 0" fill-rule="evenodd" class="s0" d="m336 4.53c11.27 0.14 25.9 0.96 32.5 1.82 6.6 0.87 16.95 2.53 23 3.7 6.05 1.17 17.3 3.95 25 6.16 7.7 2.22 19.4 6.03 26 8.48 6.6 2.44 19.65 8.2 29 12.8 9.35 4.59 22.4 11.8 29 16.01 6.6 4.22 16.05 10.72 21 14.44 4.95 3.73 13.95 11.06 20 16.28 6.05 5.22 15.05 13.73 20 18.91 4.95 5.18 12.85 14.13 17.55 19.89 4.71 5.76 10.81 13.63 13.56 17.48 2.75 3.85 7.84 11.5 11.3 17 3.46 5.5 10.26 18.1 15.12 28 4.85 9.9 10.4 22.27 12.32 27.5 1.92 5.23 5.07 14.68 6.99 21 1.92 6.32 4.83 18.02 6.47 26 1.65 7.98 3.49 18.32 4.09 23 0.61 4.68 1.55 14.8 2.1 22.5 0.54 7.7 0.99 21.31 1 30.25 0 8.94-0.43 18.39-0.95 21-0.52 2.61-1.44 9.02-2.03 14.25-0.6 5.23-2.4 16.02-4 24-1.6 7.98-4.54 19.9-6.54 26.5-2 6.6-5.23 16.27-7.18 21.5-1.94 5.23-5.87 14.67-8.73 21-2.86 6.33-8.03 16.45-11.49 22.5-3.46 6.05-9.27 15.5-12.91 21-3.64 5.5-11.02 15.51-16.4 22.25-5.37 6.74-14.83 17.49-21.02 23.89-6.19 6.4-16.88 16.35-23.75 22.11-6.88 5.76-16.55 13.3-21.5 16.77-4.95 3.46-13.95 9.34-20 13.06-6.05 3.72-17.75 10.03-26 14.04-8.25 4-21.08 9.51-28.5 12.23-7.42 2.72-19.35 6.55-26.5 8.5-7.15 1.95-17.5 4.46-23 5.58-5.5 1.11-15.63 2.76-22.5 3.68-6.88 0.91-20.38 1.86-30 2.12-9.63 0.25-24.7-0.06-33.5-0.69-8.8-0.64-20.73-1.82-26.5-2.62-5.77-0.8-15.68-2.62-22-4.04-6.32-1.42-16.68-4.15-23-6.06-6.32-1.92-16.9-5.53-23.5-8.02-6.6-2.5-18.52-7.79-26.5-11.75-7.98-3.97-20.13-10.71-27-14.98-6.88-4.28-17.45-11.49-23.5-16.04-6.05-4.54-15.27-12.07-20.5-16.73-5.23-4.65-14.45-13.65-20.5-19.99-6.05-6.34-14.66-16.2-19.13-21.92-4.48-5.71-11.72-15.79-16.1-22.39-4.38-6.6-10.56-16.73-13.75-22.5-3.19-5.77-7.34-13.88-9.24-18-1.89-4.13-5.15-11.77-7.24-17-2.09-5.23-5.47-14.67-7.51-21-2.03-6.33-4.98-16.9-6.54-23.5-1.55-6.6-3.53-16.27-4.39-21.5-0.85-5.23-2.13-13.77-2.83-19-0.78-5.84-1.25-19.89-1.21-36.5 0.05-19.74 0.54-30.63 1.84-40.5 0.97-7.43 2.64-17.77 3.7-23 1.07-5.23 3.25-14.45 4.86-20.5 1.61-6.05 4.81-16.4 7.12-23 2.31-6.6 6.65-17.63 9.64-24.5 3-6.88 7.94-17 10.99-22.5 3.05-5.5 8.08-14.05 11.19-19 3.1-4.95 8.81-13.27 12.69-18.5 3.87-5.23 10.44-13.55 14.61-18.5 4.16-4.95 13.35-14.63 20.43-21.51 7.08-6.88 17.82-16.48 23.87-21.33 6.05-4.85 17.07-12.86 24.5-17.81 7.88-5.26 21.82-13.11 33.5-18.88 11-5.43 25.85-11.96 33-14.52 7.15-2.55 18.62-6.19 25.5-8.08 6.87-1.89 18.35-4.51 25.5-5.82 7.15-1.32 18.18-2.89 24.5-3.49 6.32-0.6 14.2-1.25 17.5-1.43 3.3-0.19 15.23-0.23 26.5-0.1zm-40.5 9.48c-6.05 0.56-17.52 2.19-25.5 3.62-7.98 1.42-21.25 4.52-29.5 6.87-8.25 2.36-20.4 6.4-27 8.99-6.6 2.6-17.4 7.29-24 10.43-6.6 3.15-16.73 8.56-22.5 12.03-5.77 3.47-14.77 9.34-20 13.04-5.23 3.7-14.45 10.77-20.5 15.72-6.05 4.95-15.73 13.69-21.5 19.43-5.77 5.74-14.24 14.91-18.81 20.4-4.58 5.48-11.1 13.9-14.5 18.72-3.41 4.81-9.25 13.59-12.98 19.5-3.73 5.91-10.11 17.49-14.17 25.74-4.05 8.25-9.62 21.07-12.36 28.5-2.74 7.43-6.37 18.45-8.06 24.5-1.7 6.05-4.18 16.4-5.51 23-1.34 6.6-3.24 17.85-4.22 25-1.33 9.67-1.79 19.53-1.79 38.5 0 18.76 0.47 28.94 1.76 38.5 0.97 7.15 2.84 18.4 4.16 25 1.31 6.6 3.94 17.4 5.83 24 1.9 6.6 5.12 16.5 7.16 22 2.05 5.5 5.92 14.95 8.61 21 2.69 6.05 7.66 15.95 11.05 22 3.38 6.05 9.63 16.17 13.87 22.5 4.24 6.33 10.35 14.93 13.59 19.13 3.23 4.19 10.21 12.52 15.52 18.5 5.31 5.98 14.53 15.22 20.5 20.53 5.97 5.31 13.78 12 17.35 14.86 3.57 2.86 10.55 8.02 15.5 11.46 4.95 3.43 13.5 8.95 19 12.25 5.5 3.3 14.27 8.14 19.5 10.76 5.23 2.62 14.9 6.97 21.5 9.68 6.6 2.7 16.73 6.43 22.5 8.29 5.77 1.86 14.1 4.29 18.5 5.4 4.4 1.11 12.73 2.96 18.5 4.1 5.77 1.15 15.9 2.75 22.5 3.56 6.6 0.81 19.2 1.76 28 2.11 9.55 0.38 22.45 0.15 32-0.57 8.8-0.66 22.52-2.3 30.5-3.65 7.98-1.34 21.48-4.26 30-6.49 8.52-2.23 20.67-5.99 27-8.37 6.33-2.37 16.45-6.53 22.5-9.24 6.05-2.7 15.73-7.58 21.5-10.82 5.77-3.25 15.67-9.33 22-13.52 6.33-4.18 17.12-12.14 24-17.68 6.87-5.54 18.61-16.31 26.07-23.93 7.46-7.62 16.95-18.13 21.09-23.36 4.14-5.23 10.92-14.45 15.06-20.5 4.14-6.05 10.37-15.95 13.83-22 3.47-6.05 8.41-15.5 10.97-21 2.57-5.5 6.72-15.4 9.24-22 2.51-6.6 6.14-17.4 8.06-24 1.92-6.6 4.64-17.85 6.04-25 1.4-7.15 3.22-18.4 4.04-25 0.83-6.6 1.8-19.2 2.17-28 0.41-9.66 0.21-21.94-0.5-31-0.64-8.25-2.08-21.07-3.2-28.5-1.12-7.43-3.84-20.7-6.05-29.5-2.2-8.8-6.05-21.63-8.54-28.5-2.49-6.88-7.08-18.13-10.2-25-3.12-6.88-8.53-17.45-12.01-23.5-3.48-6.05-9.03-15.05-12.34-20-3.31-4.95-9.66-13.7-14.12-19.45-4.46-5.74-13.96-16.49-21.11-23.88-7.15-7.4-16.83-16.67-21.5-20.61-4.67-3.95-12.1-9.9-16.5-13.23-4.4-3.32-12.5-8.98-18-12.58-5.5-3.59-14.5-9.01-20-12.04-5.5-3.03-14.73-7.63-20.5-10.23-5.77-2.61-15-6.41-20.5-8.47-5.5-2.05-15.63-5.37-22.5-7.38-6.88-2.01-18.13-4.74-25-6.08-6.88-1.34-17.9-3.15-24.5-4.02-6.6-0.87-20.77-1.75-31.5-1.96-10.73-0.2-21.52-0.2-24 0.02-2.48 0.21-9.45 0.85-15.5 1.42z"/>
		<path id="Path 2" fill-rule="evenodd" class="s0" d="m532.8 117.5l4.35 3.13c2.82 2.03 5.41 5.17 10.35 14.73l-0.02 194.57c-0.01 175.29-0.17 194.92-1.59 198.07-0.87 1.92-2.89 5.02-4.49 6.89-1.59 1.86-4.7 4.33-10.9 7.61l-200.5 0.11c-161.02 0.08-201.48-0.15-205.5-1.19-3.07-0.8-6.35-2.58-8.5-4.64-1.92-1.84-4.4-5.13-5.5-7.31-1.98-3.93-2-5.96-2-395.97l2.16-4c1.19-2.2 3.44-5.21 5-6.69 1.56-1.49 4.42-3.38 6.34-4.22 3.1-1.35 26.83-1.49 410.8-1.09zm-414.12 12.89l-2.18 3.11-0.5 192.5h100c1.77-10.46 3.35-16.76 4.64-20.75 1.3-3.99 3.77-10.06 5.49-13.5 1.72-3.44 5.29-9.4 7.94-13.25 2.65-3.85 8.55-10.64 13.12-15.08 4.57-4.44 11.24-10.04 14.81-12.44 3.58-2.4 10.33-6.14 15-8.32 4.68-2.17 12.78-5.01 18-6.32 5.23-1.31 13.89-2.71 19.26-3.11l9.75-0.73-0.01-108.5c-186.69 0.04-196.83 0.21-199.82 1.66-1.82 0.89-4.3 3.02-5.5 4.73zm213.3 103.11c10.48 1.85 17.35 3.59 22.02 5.05 4.67 1.46 12.1 4.52 16.5 6.8 4.4 2.28 11.38 6.69 15.5 9.8 4.13 3.12 8.79 6.72 10.37 8.01 2.17 1.77 2.72 2.89 2.25 4.59-0.34 1.24-1.29 2.48-2.12 2.75-0.83 0.28-3.19-0.34-5.25-1.36-2.06-1.03-6.67-2.8-10.25-3.95-3.58-1.15-9.2-2.56-12.5-3.15-3.3-0.58-10.73-1.05-16.5-1.05-5.77 0-12.64 0.34-15.27 0.75l-4.76 0.76 0.14 44 21.39 19.51 186.5-0.01-0.07-190.5c-3.48-6.07-6.03-8.53-8.18-9.61-3.6-1.82-7.63-1.89-101.75-1.89h-98zm-26.49 38.86c-2.76 1.47-5.11 3-5.23 3.41-0.11 0.4 3.26 3.88 7.5 7.73 4.24 3.85 9.65 8.8 12.01 11l4.31 4c-0.07-29.48-0.38-33.49-1.33-33.46-0.69 0.03-3.73 1.08-6.75 2.34-3.03 1.27-7.76 3.51-10.51 4.98zm-47.23 41.64c-2.22 3.03-4.76 6.96-5.65 8.75l-1.61 3.25c31 0 39.99-0.34 39.99-0.75 0-0.41-5.18-5.59-11.5-11.5-6.32-5.91-11.64-10.75-11.81-10.75-0.18 0-1.46 1.24-2.86 2.75-1.39 1.51-4.35 5.23-6.56 8.25zm-142.26 114.75c0 93.93 0.04 95.81 2 99 1.1 1.79 3.46 4.15 5.25 5.25 3.19 1.96 5.06 1.99 102 2h98.75l0.05-179.5-24.05-22.5h-53c-2.95 8.14-4.62 13.42-5.62 17-1.39 4.97-1.82 10.02-1.8 21.5 0.01 12.27 0.41 16.5 2.21 23.25 1.79 6.69 1.97 8.54 0.96 9.79-0.69 0.85-2.04 1.53-3 1.5-1.08-0.02-3.48-2.85-6.2-7.29-2.45-3.99-6.02-10.62-7.94-14.75-1.92-4.12-4.64-11.77-6.04-17-1.41-5.22-3.03-14.22-3.59-20-0.57-5.77-0.8-11.29-0.51-12.25 0.5-1.65-2.32-1.75-49.47-1.75h-50zm251.7-89.41c3.74 3.48 8.37 7.73 10.29 9.44l3.5 3.12c12.4-13.02 17.01-17.04 18.25-17.35q2.25-0.55 4.72 1.7c2.27 2.07 2.92 5 8.05 36.25 3.08 18.7 5.81 34.9 6.08 36 0.27 1.1-0.09 2.81-0.8 3.8-1.25 1.73-2.79 1.68-38.3-1.28-20.35-1.69-38.01-3.51-39.25-4.05-1.24-0.53-2.65-1.98-3.13-3.22-0.54-1.36-0.49-3.04 0.11-4.25 0.55-1.1 4.34-5.37 8.44-9.5l7.44-7.5-21.11-19.5v172.5c196.89-0.99 198.91-1.04 201.55-3 1.48-1.1 3.54-3.58 4.58-5.5 1.8-3.36 1.88-7.42 1.87-98.75v-95.25h-179.07z"/>
		<path id="Path 3" class="s1" d="m262.54 48.37c-0.35 0.76-0.95 3.51-1.34 6.12-0.38 2.61-1.15 5.09-1.7 5.52-0.55 0.42-3.59 1.27-6.75 1.88-3.16 0.61-5.75 1.56-5.75 2.11 0 0.55 2.59 1.5 5.75 2.11 3.16 0.61 6.32 1.62 7.01 2.25 0.7 0.63 1.52 2.94 1.83 5.14 0.3 2.2 0.75 4.79 0.98 5.75 0.24 0.96 0.88 1.75 1.43 1.75 0.55 0 1.27-2.14 1.61-4.75 0.33-2.61 0.94-5.65 1.36-6.75 0.56-1.52 2.35-2.3 7.39-3.25 3.65-0.69 6.64-1.7 6.64-2.25 0-0.55-2.99-1.56-6.64-2.25-5.04-0.95-6.83-1.73-7.39-3.25-0.42-1.1-1.01-4.14-1.33-6.75-0.31-2.61-1-4.75-1.52-4.75-0.52 0-1.24 0.62-1.58 1.37zm206.46 34.63c0 1.1-0.45 2.9-1 4-0.55 1.1-2.01 2.01-3.25 2.02-1.24 0-2.92 0.43-3.75 0.93-1.18 0.73-0.86 1.06 1.5 1.57 1.65 0.36 3.56 0.83 4.25 1.06 0.69 0.23 1.59 1.78 2 3.44 0.41 1.67 1.09 3.02 1.5 3 0.41-0.01 0.74-1.03 0.73-2.27-0.01-1.24 0.53-2.81 1.2-3.5 0.67-0.69 2.26-1.25 3.52-1.25 1.27 0 2.52-0.45 2.8-1 0.27-0.55-0.85-1.23-2.5-1.5-1.65-0.27-3.45-1.4-4-2.5-0.55-1.1-1-2.9-1-4 0-1.1-0.45-2-1-2-0.55 0-1 0.9-1 2zm-402.37 142.75c-0.26 0.96-0.77 3.32-1.13 5.25-0.36 1.93-0.84 4.29-1.07 5.25-0.31 1.24-2.1 2.06-6.18 2.81-3.16 0.58-6.43 1.29-7.25 1.57-1.33 0.45-1.33 0.59 0 1.31 0.82 0.44 3.3 1.11 5.5 1.49 2.2 0.37 4.79 0.88 5.75 1.12 1.19 0.31 2.1 2.13 2.84 5.7 0.6 2.89 1.27 6.04 1.5 7 0.22 0.96 0.75 1.76 1.16 1.77 0.41 0 1.31-3.15 2-7 0.93-5.2 1.7-7.13 3-7.45 0.96-0.23 3.32-0.71 5.25-1.07 1.92-0.36 4.29-0.84 5.25-1.07 0.96-0.24 1.76-0.77 1.76-1.18 0.01-0.41-2.8-1.32-6.25-2.01-3.44-0.69-6.59-1.59-7-2-0.41-0.41-1.2-3.55-1.75-6.99-0.56-3.44-1.44-6.25-1.96-6.25-0.52 0-1.16 0.79-1.42 1.75zm526.78 120c-0.37 2.06-1.06 4.54-1.54 5.5-0.57 1.14-2.44 1.92-5.37 2.25-2.47 0.27-4.5 0.95-4.5 1.5 0 0.55 2.03 1.23 4.5 1.5 2.93 0.33 4.8 1.11 5.37 2.25 0.48 0.96 1.15 3.44 1.5 5.5 0.35 2.06 0.97 3.76 1.38 3.77 0.41 0 1.09-2.25 1.5-5 0.53-3.54 1.27-5.15 2.5-5.47 0.96-0.24 3.44-0.69 5.5-1 2.06-0.3 3.75-1 3.75-1.55 0-0.55-1.69-1.25-3.75-1.55-2.06-0.31-4.54-0.76-5.5-1-1.28-0.33-1.88-1.79-2.25-5.45-0.28-2.75-0.93-5-1.46-5-0.53 0-1.26 1.69-1.63 3.75zm-386.41 216.25c0 1.1-0.45 2.9-1 4q-1 2-4 2c-1.65 0-3.01 0.34-3.03 0.75-0.01 0.41 1.45 1.22 3.25 1.79 2.63 0.84 3.51 1.84 4.42 5 0.69 2.42 1.34 3.38 1.66 2.46 0.29-0.83 0.8-2.74 1.12-4.25 0.47-2.23 1.25-2.85 4.08-3.25 1.93-0.27 3.5-0.95 3.5-1.5 0-0.55-1.35-1-3-1q-3 0-4-2c-0.55-1.1-1-2.9-1-4 0-1.1-0.45-2-1-2-0.55 0-1 0.9-1 2zm161.61 26c-0.4 3.32-1.2 5.3-2.36 5.88-0.96 0.49-3.66 1.16-6 1.5-2.34 0.34-4.26 0.96-4.27 1.37-0.01 0.41 1.9 1.12 4.25 1.57 2.35 0.45 5.06 1.24 6.02 1.75 1.18 0.63 1.91 2.55 2.25 5.93 0.28 2.75 0.95 5 1.5 5 0.55 0 1.32-2.14 1.71-4.75 0.39-2.61 1.29-5.31 2-6 0.71-0.69 3.32-1.48 5.79-1.75 2.48-0.27 4.5-0.95 4.5-1.5 0-0.55-1.69-1.26-3.75-1.59-2.06-0.32-4.54-0.77-5.5-1-1.25-0.29-2.02-1.99-2.69-5.91-0.52-3.02-1.37-5.5-1.89-5.5-0.52 0-1.22 2.25-1.56 5z"/>
		<path id="Path 5" class="s1" d="m305.5 241.11c-3.3 0.48-9.15 1.82-13 2.99-3.85 1.17-9.48 3.23-12.5 4.58-3.02 1.35-9.1 4.84-13.5 7.76-4.4 2.92-10.81 8.06-14.25 11.43-3.44 3.37-8.32 8.94-10.86 12.38-2.53 3.44-6.31 9.62-8.38 13.75-2.08 4.12-4.91 11.1-6.3 15.5-1.39 4.4-3.06 12.5-3.7 18-0.85 7.28-0.88 12.59-0.12 19.5 0.58 5.23 2.19 13.44 3.58 18.25 1.39 4.81 3.17 10.21 3.95 12 1.38 3.17 1.42 3.04 1.49-4.75 0.04-4.4 0.77-12.05 1.63-17 0.86-4.95 2.7-12.38 4.09-16.5 1.39-4.13 3.97-10.42 5.73-14 1.76-3.58 4.84-8.98 6.84-12 2-3.02 6.37-8.54 9.72-12.25 3.34-3.71 6.64-6.74 7.33-6.72 0.69 0.01 6.94 5.3 13.88 11.75 6.95 6.45 24.5 22.74 39 36.21 14.51 13.47 29.97 27.94 34.37 32.16l8 7.67c-14.77 16.19-16.95 19.19-15.75 19.23 0.96 0.02 15.7 1.32 32.75 2.87 17.05 1.56 31.1 2.78 31.21 2.71 0.12-0.07-1.76-12.28-4.18-27.13-2.41-14.85-4.65-29.14-4.96-31.75-0.31-2.61-1.02-4.75-1.57-4.75-0.55 0-4.49 3.83-8.75 8.51-4.26 4.68-8.31 8.73-9 9-0.69 0.27-6.75-4.57-13.47-10.76-6.71-6.19-19.9-18.45-29.29-27.25-9.4-8.8-22.24-20.73-28.54-26.5-6.3-5.77-13.66-12.52-16.35-15-3.55-3.26-4.72-4.98-4.25-6.25 0.36-0.96 3.46-3.55 6.9-5.75 3.44-2.19 9.4-5.31 13.25-6.92 3.85-1.61 10.6-3.89 15-5.07 4.98-1.34 12.53-2.36 20-2.7 6.94-0.33 15.02-0.09 19.17 0.56 3.95 0.61 8 1.38 9 1.71 1.62 0.52 1.6 0.4-0.17-1.08-1.1-0.91-4.7-3.04-8-4.72-3.3-1.69-9.15-4.14-13-5.45-3.85-1.32-10.83-3.06-15.5-3.87-4.67-0.82-12.32-1.42-17-1.35-4.68 0.07-11.2 0.52-14.5 1z"/>
		<path id="Path 7" fill-rule="evenodd" class="s0" d="m433.5 205.01c1.1-0.03 3.46 0.41 5.25 0.97 2.72 0.85 3.25 1.51 3.25 7.02l-3-1.5c-1.65-0.82-3.7-1.5-4.55-1.5-0.85 0-2.65 1.13-4 2.5-1.87 1.91-2.45 3.57-2.45 7 0 3.6 0.55 5.03 2.75 7.15 2.03 1.96 3.4 2.5 5.25 2.07 1.38-0.32 3.29-0.84 4.25-1.15 1.35-0.44 1.75 0 1.75 1.93 0 1.8-0.77 2.81-2.75 3.59-1.51 0.59-4.77 0.86-7.25 0.58-3.4-0.38-5.17-1.26-7.25-3.59-2.4-2.69-2.75-3.9-2.75-9.58 0-4.38 0.57-7.48 1.75-9.51 0.96-1.66 3.1-3.67 4.75-4.48 1.65-0.8 3.9-1.48 5-1.5zm-60.56 0.99h7.03c4.25 0 8.22 0.59 10.03 1.5 1.65 0.82 3.67 2.85 4.5 4.5 0.83 1.65 1.5 5.02 1.5 7.5 0 2.48-0.67 5.85-1.5 7.5-0.83 1.65-2.96 3.75-4.75 4.67-1.98 1.02-5.78 1.7-16.25 1.83zm6.02 23.5c5.84-1.16 8.1-2.06 8.79-2.75 0.69-0.69 1.54-2.82 1.9-4.75 0.36-1.93 0.14-4.85-0.48-6.5-0.63-1.65-2.27-3.56-3.66-4.25-1.38-0.69-3.41-1.25-4.51-1.25-1.87 0-2 0.67-2.02 9.75zm21.98-23.5h8.53c7.86 0 8.53 0.16 8.53 2 0 1.76-0.67 2-11 2v3.5c0 3.49 0.01 3.5 4.25 3.25 3.75-0.22 4.27 0.01 4.5 2 0.22 2.02-0.23 2.28-4.5 2.5-4.72 0.25-4.75 0.28-4.75 7.25l5.75 0.25c5.3 0.23 5.73 0.42 5.5 2.5-0.24 2.13-0.7 2.25-16.25 2.25zm48.72 0c2.33 0 2.33 0.02 2.33 13.5 0 11.11-0.26 13.59-1.5 14-0.82 0.27-2.19-0.06-3.04-0.75-1.23-0.99-1.57-3.75-1.67-13.33-0.07-6.65 0.25-12.39 0.71-12.75 0.46-0.37 1.89-0.67 3.17-0.67zm9.28 0h7.02c4.25 0 8.22 0.59 10.03 1.5 1.65 0.82 3.68 2.85 4.5 4.5 0.83 1.65 1.5 4.8 1.5 7 0 2.2-0.67 5.57-1.5 7.5-0.88 2.06-2.84 4.19-4.75 5.17-1.98 1.02-5.78 1.7-16.25 1.83zm6.21 13.38c-0.14 9-0.02 9.62 1.85 9.62 1.1 0 3.12-0.56 4.49-1.25 1.38-0.69 2.95-2.26 3.5-3.5 0.56-1.24 1.01-3.6 1.01-5.25 0-1.7-0.97-4.08-2.25-5.5-1.24-1.38-3.64-2.78-5.35-3.13l-3.09-0.62zm21.87-13.46l8.24 0.29c6.52 0.23 8.23 0.61 8.23 1.8 0 1.09-1.5 1.63-5.5 2-5.33 0.48-5.5 0.59-5.5 3.5 0 2.87 0.2 3.01 4.75 3.25 4 0.21 4.75 0.56 4.75 2.25 0 1.73-0.66 2-10 2v8h6c5.63 0 5.99 0.13 5.75 2.25-0.23 2.12-0.69 2.25-16.25 2.25zm-287.61 2.1c2.25 0.01 5.89 0.44 8.09 0.95 2.37 0.55 5.11 2.16 6.75 3.97 2.29 2.55 2.75 3.96 2.75 8.56 0 3.02-0.62 6.73-1.36 8.25-0.75 1.51-3 3.53-5 4.5-2.32 1.11-6 1.75-16.64 1.75l-0.17-13.34c-0.09-7.33 0.21-13.63 0.67-14 0.46-0.36 2.67-0.65 4.91-0.64zm0.59 22.98c6.16 0 7.49-0.66 9.03-2.75 1.22-1.65 2.02-4.25 2-6.5-0.02-2.64-0.78-4.5-2.53-6.25-1.56-1.56-3.64-2.5-5.5-2.5h-3zm34.5-22.95c3.27-0.04 5.84 0.54 7.44 1.69 1.34 0.97 3.03 3.22 3.75 5.01 0.72 1.78 1.31 5.05 1.31 7.25 0 2.2-0.59 5.46-1.31 7.25-0.72 1.78-2.41 4.04-3.75 5-1.67 1.21-4.34 1.77-8.44 1.79-4.5 0.02-6.69-0.48-8.75-2.01-2.03-1.5-3.02-3.41-3.76-7.28-0.69-3.58-0.68-6.37 0.02-8.75 0.57-1.93 1.74-4.54 2.61-5.81 0.87-1.26 2.54-2.7 3.73-3.18 1.18-0.49 4.4-0.92 7.15-0.96zm-5.93 8.02c-0.87 1.61-1.57 4.73-1.57 6.93 0 2.93 0.66 4.66 2.5 6.5 1.37 1.37 3.4 2.5 4.5 2.5 1.1 0 2.9-0.9 4-2 1.1-1.1 2.27-3.47 2.61-5.25 0.33-1.79 0.11-4.94-0.5-7-0.73-2.47-1.97-4.09-3.61-4.75-1.38-0.55-2.62-0.95-2.75-0.89-0.14 0.07-1.01 0.33-1.93 0.58-0.93 0.25-2.39 1.77-3.25 3.38zm5.43 212.89c3.07-0.03 5.14 0.55 6.53 1.84 1.12 1.04 1.91 2.63 1.75 3.54-0.19 1.13-0.84 1.44-2.03 0.99-0.97-0.37-3.55-0.86-5.75-1.08-3.34-0.35-4.42 0.03-6.5 2.25-1.86 1.98-2.5 3.75-2.5 6.92 0 2.34 0.67 5.06 1.5 6.05 0.82 0.98 2.62 2.19 4 2.69 1.37 0.49 3.28 0.66 4.25 0.37q1.74-0.54 1.75-3.53c0-2.55-0.42-3.04-2.75-3.25-2-0.19-2.75-0.8-2.75-2.25 0-1.76 0.66-2 11-2l0.32 6.5c0.26 5.18-0.03 6.8-1.4 8-1.11 0.96-3.75 1.49-7.33 1.47-3.75-0.02-6.67-0.68-8.86-2-1.8-1.09-3.94-3.44-4.75-5.22-0.82-1.79-1.48-4.94-1.49-7 0-2.07 0.83-5.33 1.84-7.25 1.01-1.93 3.37-4.29 5.25-5.25 1.88-0.96 5.44-1.77 7.92-1.79zm25.41 0.24c3.02 0.29 3.2 0.61 12.59 27.8h-3c-2.39 0-3.26-0.61-4.25-3.01-1.17-2.81-1.61-3.01-6.5-3-5.06 0.01-5.27 0.12-5.75 3.01-0.43 2.55-0.95 3-3.5 3-1.65 0-3-0.45-3-1 0-0.55 1.86-6.29 4.15-12.75 2.28-6.47 4.6-12.34 5.16-13.05 0.56-0.72 2.41-1.17 4.1-1zm-4.41 16.8c6.64 0 6.93-0.23 6.37-2.25-0.34-1.24-1.13-3.54-1.75-5.12l-1.12-2.86zm-125-16h8c7.32 0 8.26 0.23 11.05 2.75 1.83 1.65 3.41 4.34 3.95 6.75 0.5 2.2 0.64 5.12 0.31 6.5-0.33 1.37-1.14 3.62-1.81 5-0.68 1.37-2.86 3.28-4.86 4.25-2.32 1.11-6 1.75-16.64 1.75zm6 22c5.33 0.04 7.3-0.77 8.73-2.23 1.58-1.62 2.23-3.5 2.25-6.52 0.01-3.22-0.59-4.86-2.48-6.75-1.56-1.56-3.64-2.5-5.5-2.5h-3zm22-22h8.5c7.83 0 8.5 0.15 8.5 2 0 1.75-0.67 2-5.5 2-5.45 0-5.5 0.03-5.5 3 0 2.88 0.16 3 4.5 3 4.13 0 4.5 0.2 4.5 2.5 0 2.29-0.37 2.5-4.5 2.5-4.48 0-4.5 0.01-4.5 7l5.25 0.25c4.61 0.22 5.28 0.52 5.5 2.5 0.24 2.17-0.03 2.25-16.75 2.25zm22 0h6v22h4.5c4.13 0 4.5 0.2 4.5 2.5 0 2.44-0.17 2.5-15 2.5zm19 0h8.5c7.52 0 8.47 0.2 8.24 1.75-0.21 1.37-1.39 1.8-5.5 2-5.1 0.24-5.24 0.33-5.24 3.25 0 2.82 0.25 3.01 4.25 3.25 3.5 0.2 4.25 0.6 4.25 2.25 0 1.68-0.75 2.04-4.75 2.25-4.72 0.24-4.75 0.27-4.75 7.25l5.75 0.25c5 0.21 5.75 0.51 5.75 2.25 0 1.81-0.75 2.02-16.5 2.5zm81.55 0c9.78 0 10.45 0.12 10.45 2 0 1.61-0.67 2-3.5 2-3 0-3.59 0.39-4.14 2.75-0.35 1.51-0.4 6.12-0.11 10.25 0.29 4.12 0.35 8.06 0.14 8.75-0.22 0.68-1.52 1.25-5.39 1.25v-23h-4c-2.2 0-4.23-0.45-4.5-1-0.28-0.55-0.26-1.45 0.05-2 0.31-0.57 5.06-1 11-1zm14.69 0h8.38c7.41 0 8.35 0.2 8.12 1.75-0.21 1.37-1.39 1.8-5.5 2-5.1 0.24-5.24 0.33-5.24 3.25 0 2.82 0.25 3.01 4.24 3.25 3.16 0.18 4.31 0.69 4.5 2 0.2 1.39-0.78 1.9-4.76 2.5-4.84 0.72-5.01 0.86-4.98 7.25l5.75 0.25c5.13 0.22 5.77 0.49 6 2.5 0.24 2.17-0.04 2.25-16.25 2.28l-0.74-3.77c-0.41-2.07-0.75-6.01-0.76-8.76-0.01-2.75 0.26-7.14 0.61-9.75zm80.76 3h6c3.3 0 7.57 0.67 9.5 1.5 1.92 0.82 4.4 2.96 5.5 4.75 1.21 1.98 1.99 5 1.99 7.75 0 2.74-0.78 5.76-1.99 7.75-1.1 1.78-3.35 3.92-5 4.75-1.74 0.87-5.72 1.5-16 1.5zm5.68 14.74l-0.18 8.25c4.26 0.01 6.4-0.44 7.5-0.99 1.1-0.55 2.45-2.58 3-4.5q1-3.5 0-7c-0.55-1.93-1.9-3.95-3-4.5-1.1-0.55-3.13-1-4.5-1-1.38 0-2.53 0.33-2.57 0.75-0.04 0.41-0.16 4.46-0.25 8.99zm22.32-14.74h8c5.54 0 8.11 0.38 8.35 1.25 0.2 0.68 0.2 1.81 0 2.5-0.23 0.8-2.31 1.25-5.85 1.25-5.44 0-5.5 0.03-5.5 3 0 2.87 0.19 3.01 4.75 3.25 4 0.21 4.75 0.56 4.75 2.25 0 1.68-0.75 2.04-4.75 2.25-4.71 0.24-4.75 0.27-4.75 7.25l5.75 0.25c5 0.21 5.75 0.51 5.75 2.25 0 1.81-0.75 2.02-16.5 2.5zm22 0h2.5c2.47 0 2.5 0.11 2.49 8.25-0.01 4.53 0.33 9.72 0.75 11.52 0.71 3.07 1.02 3.27 5.01 3.25 3.87-0.02 4.25 0.2 4.25 2.48 0 2.44-0.17 2.5-15 2.5zm26.97 0c7.73 0 8.02 0.08 7.78 2.25-0.22 1.97-0.88 2.28-5.5 2.5-5.11 0.24-5.25 0.33-5.25 3.25 0 2.88 0.17 3 4.5 3 4.13 0 4.5 0.2 4.5 2.5 0 2.29-0.37 2.5-4.5 2.5-4.48 0-4.5 0.01-4.5 7h5.5c5.2 0 5.5 0.13 5.5 2.5 0 2.48-0.05 2.49-16.5 2l-0.21-12.45c-0.12-6.84-0.02-13.03 0.22-13.75 0.31-0.93 2.75-1.3 8.46-1.3zm32.03 0v2.5c0 2.25-0.4 2.5-8 2.5v23h-5v-23h-4c-2.2 0-4.23-0.45-4.5-1-0.28-0.55-0.29-1.68-0.03-2.5 0.39-1.21 2.53-1.5 21.53-1.5zm12.08 0c7.78 0 7.92 0.04 7.92 2.5 0 2.36-0.3 2.5-5.5 2.5-5.44 0-5.5 0.03-5.5 3 0 2.87 0.19 3.01 4.75 3.25 4 0.21 4.75 0.56 4.75 2.25 0 1.68-0.75 2.04-4.75 2.25-4.71 0.24-4.75 0.27-4.75 7.25l5.75 0.25c5 0.21 5.75 0.51 5.75 2.25 0 1.8-0.77 2.03-16 2.61l-0.76-3.31c-0.42-1.82-0.76-7.47-0.75-12.55 0-5.09 0.27-9.93 0.59-10.75 0.46-1.16 2.4-1.5 8.5-1.5z"/>
	</g>
</svg>