<svg version="1.2" xmlns="http://www.w3.org/2000/svg" viewBox="0 0 488 485" width="488" height="485">
	<style>
		.s0 { opacity: 1;fill: #6c2c3c } 
		.s1 { opacity: 1;fill: #e2ba4e } 
		.s2 { opacity: .74;fill: #97807a } 
	</style>
	<g id="Background">
		<path id="Path 0" fill-rule="evenodd" class="s0" d="m250 5.46c12.39 0.12 23.33 0.8 30 1.86 5.77 0.92 16.13 3.07 23 4.77 6.88 1.71 17.45 4.93 23.5 7.16 6.05 2.23 14.6 5.7 19 7.72 4.4 2.03 11.38 5.62 15.5 7.99 4.13 2.37 11.1 6.65 15.5 9.51 4.4 2.86 12.5 8.82 18 13.25 5.5 4.43 15.19 13.4 21.54 19.92 6.35 6.52 14.51 15.68 18.13 20.36 3.63 4.68 9.43 13 12.89 18.5 3.47 5.5 9.34 16.3 13.05 24 3.71 7.7 8.53 19.18 10.7 25.5 2.18 6.32 5.13 16.68 6.56 23 1.42 6.32 3.27 16.23 4.09 22 0.94 6.57 1.51 18.18 1.52 31 0.01 15.06-0.5 23.95-1.9 33.5-1.06 7.15-3.12 17.73-4.58 23.5-1.47 5.77-3.8 13.88-5.18 18-1.38 4.12-4.08 11.33-6 16-1.92 4.67-5.14 11.65-7.14 15.5-2 3.85-5.86 10.6-8.58 15-2.71 4.4-6.5 10.25-8.41 13-1.9 2.75-5.96 8.15-9.01 12-3.05 3.85-10.07 11.67-15.61 17.38-5.54 5.71-14.12 13.78-19.07 17.93-4.95 4.16-13.95 10.8-20 14.77-6.05 3.97-15.27 9.49-20.5 12.27-5.23 2.77-12.88 6.48-17 8.23-4.12 1.76-11.1 4.5-15.5 6.1-4.4 1.6-13.17 4.25-19.5 5.89-6.33 1.64-17.58 3.91-25 5.05-7.42 1.14-17.33 2.3-22 2.58-4.67 0.28-16.38 0.02-26-0.58-9.63-0.59-21.55-1.77-26.5-2.62-4.95-0.84-14.63-2.92-21.5-4.62-6.87-1.71-17.45-5.02-23.5-7.36-6.05-2.34-16.18-6.85-22.5-10.02-6.32-3.17-16.68-9.05-23-13.07-6.32-4.02-15.31-10.37-19.96-14.12-4.66-3.75-13.22-11.54-19.03-17.31-5.81-5.77-13.62-14.33-17.34-19-3.73-4.67-9.15-12.1-12.06-16.5-2.9-4.4-6.9-10.7-8.88-14-1.98-3.3-6.06-11.17-9.07-17.5-3.01-6.33-7.04-16-8.95-21.5-1.92-5.5-4.87-15.63-6.57-22.5-1.7-6.88-3.89-17.9-4.87-24.5-1.29-8.74-1.73-17.44-1.64-32 0.08-12.76 0.74-24.35 1.83-32 0.93-6.6 3.23-18.07 5.1-25.5 1.87-7.43 5.37-18.68 7.76-25 2.4-6.32 7.11-16.9 10.46-23.5 3.35-6.6 9.7-17.4 14.09-24 4.4-6.6 11.79-16.5 16.42-22 4.62-5.5 12.19-13.55 16.81-17.9 4.62-4.34 11.55-10.47 15.4-13.61 3.85-3.14 12.18-9.19 18.5-13.43 6.32-4.25 18.02-10.98 26-14.95 8.61-4.29 20.8-9.3 30-12.32 8.52-2.8 20-6.01 25.5-7.12 5.5-1.11 14.27-2.51 19.5-3.1 5.23-0.59 11.07-1.24 13-1.44 1.93-0.2 12.27-0.28 23-0.17zm-51 15.11c-7.43 1.46-19.57 4.64-27 7.07-7.43 2.43-19.8 7.51-27.5 11.3-7.7 3.79-18.73 10.05-24.5 13.9-5.77 3.86-14.32 10.07-19 13.81-4.68 3.74-13 11.33-18.5 16.86-5.5 5.52-14.07 15.44-19.03 22.02-4.97 6.58-11.35 15.79-14.18 20.47-2.83 4.68-7.62 13.68-10.65 20-3.03 6.32-7.06 16-8.96 21.5-1.89 5.5-4.59 14.73-6 20.5-1.4 5.77-3.36 15.45-4.35 21.5-1.34 8.13-1.8 16.34-1.79 31.5 0.02 14.56 0.55 23.83 1.81 32 0.98 6.33 2.85 16 4.15 21.5 1.31 5.5 3.76 14.16 5.44 19.25 1.68 5.09 5.11 13.86 7.62 19.5 2.52 5.64 6.84 14.3 9.62 19.25 2.77 4.95 7.77 12.83 11.11 17.5 3.33 4.67 9.06 12.1 12.72 16.5 3.66 4.4 10.67 11.92 15.58 16.72 4.9 4.8 12.06 11.25 15.91 14.33 3.85 3.09 12.4 9.21 19 13.6 6.6 4.39 17.4 10.61 24 13.82 6.6 3.21 17.18 7.62 23.5 9.8 6.32 2.18 16.45 5.12 22.5 6.55 6.05 1.42 16.18 3.38 22.5 4.34 7.89 1.19 17.61 1.75 31 1.76 10.78 0.01 23.75-0.57 29-1.3 5.23-0.72 13.77-2.18 19-3.23 5.23-1.06 13.55-3.1 18.5-4.55 4.95-1.44 13.95-4.62 20-7.05 6.05-2.44 15.05-6.53 20-9.1 4.95-2.57 14.17-8.12 20.5-12.33 6.33-4.21 15.77-11.23 21-15.61 5.23-4.38 13.28-11.96 17.91-16.85 4.62-4.9 11.19-12.5 14.6-16.9 3.41-4.4 8.77-11.83 11.9-16.5 3.13-4.67 8.54-14.13 12.03-21 3.48-6.88 7.93-16.77 9.87-22 1.95-5.23 4.91-14.9 6.58-21.5 1.67-6.6 3.74-16.05 4.59-21 0.86-4.95 2.02-15.3 2.6-23 0.72-9.77 0.72-18.31-0.02-28.25-0.58-7.84-1.98-19.09-3.11-25-1.13-5.91-3.43-15.7-5.11-21.75-1.69-6.05-4.65-15.05-6.59-20-1.94-4.95-6.16-14.29-9.39-20.75-3.22-6.46-8.85-16.14-12.5-21.5-3.65-5.36-9.16-12.9-12.23-16.75-3.07-3.85-9.42-10.99-14.11-15.87-4.68-4.88-12.35-12.09-17.02-16.02-4.67-3.93-12.77-10.12-18-13.76-5.23-3.64-13.55-8.85-18.5-11.59-4.95-2.74-13.73-7.04-19.5-9.54-5.77-2.5-14.77-5.94-20-7.64-5.23-1.7-14.45-4.19-20.5-5.55-6.05-1.35-16.29-3.15-22.75-3.99-7.25-0.95-18.54-1.49-29.5-1.41-9.76 0.07-20.68 0.5-24.25 0.95-3.57 0.46-12.57 2.03-20 3.49zm30.5 63.9c12.4 0.26 21.43 0.96 26 2 3.85 0.88 9.43 2.37 12.39 3.31 3.43 1.1 5.8 2.52 6.5 3.92 0.87 1.72 0.78 2.55-0.39 3.8-0.83 0.88-3.98 2.29-7 3.14-3.02 0.85-9.33 3.53-14 5.95-4.67 2.42-11.62 6.77-15.44 9.66-3.82 2.89-9.46 8.18-12.54 11.75-3.08 3.57-7.46 9.65-9.75 13.5-2.28 3.85-5.27 10.37-6.64 14.5-1.36 4.12-2.96 10.99-3.56 15.25-0.59 4.26-1.07 9.77-1.07 12.25 0 2.48 1.14 10.24 2.53 17.25 2.25 11.3 2.43 13.77 1.59 21.75-0.52 4.95-1.93 11.48-3.13 14.5-1.2 3.02-3.83 7.94-5.84 10.92-2.01 2.98-5.45 6.96-7.65 8.84-2.2 1.88-6.59 4.73-9.75 6.33-3.16 1.6-6.54 2.9-7.5 2.88-1.62-0.03-1.63 0.1-0.12 1.75 0.9 0.98 2.36 3.24 3.25 5.03 0.89 1.79 1.61 4.49 1.6 6-0.01 1.51-0.83 4.55-1.81 6.75-1 2.23-3.31 4.97-5.23 6.2-1.89 1.21-5.92 2.48-8.94 2.83-3.52 0.41-8.2 0.08-13-0.92-4.24-0.88-11.17-3.41-15.94-5.83-5.66-2.87-10.89-6.58-15.87-11.28-4.08-3.85-9.5-10.15-12.03-14-2.53-3.85-5.91-10.15-7.5-14-1.59-3.85-3.74-10.82-4.76-15.5-1.35-6.2-1.87-12.83-1.92-24.5-0.06-13.38 0.19-16.25 1.52-17.5 0.87-0.82 1.56-2.18 1.53-3-0.03-0.82 0.87-5.1 1.99-9.5 1.13-4.4 3.85-12.05 6.05-17 2.2-4.95 7.02-13.5 10.7-19 3.68-5.5 10.52-13.84 15.21-18.53 4.69-4.7 11.67-10.88 15.52-13.74 3.85-2.85 12.18-7.86 18.5-11.12 6.32-3.26 16-7.32 21.5-9.03 5.5-1.7 13.6-3.76 18-4.56 5.86-1.07 13.09-1.36 27-1.05zm67.75 30.65c2.61-0.07 8.24 0.37 12.5 0.97 4.26 0.6 11.35 2.23 15.75 3.61 4.4 1.39 11.6 4.32 16 6.51 4.4 2.19 11.14 6.08 14.99 8.64 3.84 2.56 10.18 7.8 14.09 11.65 3.92 3.85 9.78 10.6 13.04 15 3.25 4.4 8.22 12.5 11.04 18 2.82 5.5 6.3 13.6 7.74 18 1.44 4.4 3.31 11.15 4.15 15 0.84 3.85 1.79 13.07 2.13 20.5 0.34 7.8 0.13 17.51-0.51 23-0.61 5.23-2.25 13.89-3.64 19.25-1.39 5.36-4.33 13.91-6.53 19-2.21 5.09-6.14 12.77-8.75 17.08-2.61 4.3-7 10.55-9.75 13.89-4.67 5.66-5.21 6.01-8.25 5.42-2.32-0.46-3.61-0.2-4.5 0.9-0.69 0.85-2.49 1.53-4 1.5-1.51-0.02-2.79-0.38-2.84-0.79-0.05-0.41-0.22-5.92-0.37-12.25-0.19-7.6-1.03-14.55-2.49-20.5-1.21-4.95-4.36-13.5-7-19-2.78-5.8-7.48-13.32-11.17-17.92-3.51-4.35-9.53-10.36-13.38-13.36-3.85-3-9.92-6.91-13.5-8.69-3.58-1.79-11-4.75-16.5-6.59-5.5-1.84-12.48-5-15.5-7.02-3.02-2.03-7.91-6.33-10.86-9.55-2.95-3.23-6.84-9.02-8.64-12.87-1.81-3.85-3.84-9.48-4.53-12.5-0.73-3.25-1.01-8.37-0.68-12.5 0.31-3.85 0.82-8.01 1.14-9.25 0.53-2.1 0.24-2.25-4.18-2.28-2.91-0.02-6.01-0.79-8-2-1.79-1.08-4-3.43-4.91-5.22-0.91-1.79-1.68-5.05-1.71-7.25-0.03-2.2 0.8-5.8 1.86-8 1.05-2.2 4.86-6.96 8.46-10.58 3.6-3.62 9.47-8.18 13.05-10.13 3.58-1.96 9.42-4.51 13-5.68 3.58-1.16 9.2-2.51 12.5-2.99 3.3-0.48 8.14-0.93 10.75-1zm-28.75 161.49c3.3 0.26 8.48 1.17 11.5 2.02 3.02 0.85 7.75 2.83 10.5 4.4 2.75 1.57 7.02 4.9 14 11.93l2.12-3.73c1.21-2.13 3.67-4.48 5.75-5.48 2-0.96 5.43-1.75 7.63-1.75 2.2 0 5.35 0.67 7 1.5 1.65 0.83 4.1 2.96 5.45 4.75 1.35 1.79 3.38 5.95 4.52 9.25 1.14 3.3 2.33 9.6 2.63 14 0.38 5.37 0.04 10.63-1.02 16-0.87 4.4-3.07 11.15-4.89 15-1.82 3.85-4.83 9.25-6.69 12-1.86 2.75-6.11 7.85-9.44 11.34-3.33 3.49-8.98 8.51-12.56 11.15-3.58 2.64-9.42 6.41-13 8.37-3.58 1.97-10.21 4.94-14.75 6.61-4.54 1.67-8.81 2.95-9.5 2.85-0.69-0.1-4.85 0.68-9.25 1.75-6.37 1.54-11.57 1.93-25.5 1.91-13.22-0.02-19.58-0.48-26-1.87-4.68-1.02-11.87-2.96-16-4.31-4.12-1.35-10.87-4.02-15-5.93-4.12-1.92-12-6.47-17.5-10.11-6.26-4.15-13.95-10.58-20.56-17.2-6.63-6.62-13.04-14.29-17.19-20.56-3.65-5.5-8.16-13.38-10.04-17.5-1.87-4.13-4.6-11.21-6.06-15.75-1.64-5.1-2.32-8.73-1.78-9.5 0.48-0.69 1.72-1.55 2.75-1.92 1.32-0.47 3.83 0.68 8.38 3.86 3.57 2.5 10.1 6.27 14.5 8.38 4.4 2.11 11.6 4.83 16 6.04 6.43 1.77 10.64 2.2 21.5 2.19 11.69-0.02 14.67-0.37 22.25-2.66 4.81-1.45 11.11-3.83 14-5.27 2.89-1.45 7.27-4.01 9.75-5.69 2.48-1.68 7.65-5.9 11.5-9.39 3.85-3.48 9.93-7.84 13.5-9.69 3.57-1.85 8.08-3.86 10-4.48 1.92-0.62 6.2-1.54 9.5-2.05 3.3-0.51 8.7-0.71 12-0.46z"/>
		<path id="Path 1" class="s1" d="m328.72 70c-0.27 0.82-1.12 3.3-1.88 5.5-1.22 3.5-1.99 4.19-6.13 5.5-2.61 0.82-4.74 1.84-4.73 2.25 0.01 0.41 1.93 1.35 4.27 2.08 2.61 0.82 4.74 2.26 5.52 3.75 0.69 1.33 1.76 3.77 2.37 5.42l1.1 3c3.73-11.41 3.84-11.52 8.77-12.75 2.76-0.69 5.01-1.59 5-2 0-0.41-2.04-1.2-4.51-1.75-2.48-0.55-4.84-1.55-5.25-2.23-0.41-0.67-1.49-3.26-2.39-5.75-0.99-2.74-1.83-3.93-2.14-3.02zm-255.22 193.75c-0.38 2.06-1.1 4.54-1.6 5.5-0.5 0.97-2.91 2.2-5.4 2.75-2.48 0.55-4.51 1.34-4.53 1.75-0.02 0.41 2.07 1.42 4.63 2.25 3.25 1.04 5.08 2.33 6.03 4.25 0.75 1.51 1.37 3.42 1.37 4.25 0 0.83 0.45 1.73 1 2 0.55 0.27 1.58-1.64 2.28-4.25 1.24-4.57 1.49-4.81 6.51-6.25 2.87-0.83 5.21-1.84 5.21-2.25 0-0.41-2.14-1.2-4.75-1.74-4.23-0.88-4.94-1.43-6.5-5-0.96-2.21-1.75-4.68-1.75-5.51 0-0.83-0.41-1.5-0.91-1.5-0.49 0-1.21 1.69-1.59 3.75zm289.98 100.75c-0.42 1.65-1.31 4.13-1.99 5.5-0.85 1.74-2.63 2.88-5.86 3.75-2.55 0.69-4.63 1.59-4.64 2-0.01 0.41 2.02 1.31 4.5 2 3.58 0.99 4.81 1.92 5.94 4.5 0.78 1.79 1.73 4.15 2.11 5.25 0.56 1.62 1.02 1.04 2.39-3 1.56-4.57 2.1-5.13 6.28-6.5 2.52-0.83 4.84-1.73 5.16-2 0.33-0.27-1.42-1.06-3.89-1.75-2.46-0.69-4.82-1.8-5.23-2.48-0.41-0.67-1.48-3.26-2.38-5.75l-1.63-4.52z"/>
		<path id="Path 2" class="s2" d="m91.35 207.5c0 4.95 0.17 7.2 0.38 5 0.21-2.2 0.21-6.25 0.01-9-0.21-2.75-0.38-0.95-0.39 4z"/>
		<path id="Path 3" class="s1" d="m284.5 124.39c-3.3 0.74-8.7 2.44-12 3.77-3.3 1.32-8.66 4.19-11.92 6.37-3.25 2.18-7.43 5.77-9.28 7.97-1.84 2.2-4.06 5.57-4.92 7.5-1.2 2.69-1.31 4.08-0.49 6 0.59 1.37 2.21 3.06 3.59 3.75 1.39 0.69 3.53 0.95 4.77 0.59 1.24-0.36 5.4-3.08 9.25-6.04 3.85-2.97 11.05-7.41 16-9.87 4.95-2.46 13.5-5.66 19-7.12 8.69-2.3 12.05-2.66 25.71-2.73l15.72-0.08c-8.47-4.26-14.87-6.66-19.68-8.09-6.19-1.83-11.82-2.7-19.25-2.98-6.67-0.26-12.69 0.09-16.5 0.96zm-184.48 95.86c-0.01 1.51 0.65 5.9 1.48 9.75 0.82 3.85 2.75 10.26 4.28 14.25 1.53 3.99 4.85 10.4 7.37 14.25 2.53 3.85 7.47 9.62 10.97 12.82 3.51 3.2 9.75 7.51 13.88 9.59 4.15 2.09 10.63 4.35 14.5 5.07 3.85 0.71 8.69 1.01 10.75 0.66 2.46-0.42 4.45-1.59 5.78-3.39 1.12-1.51 2.03-3.42 2.01-4.25-0.01-0.83-0.7-2.51-1.53-3.75-0.95-1.41-3.65-2.85-7.26-3.87-3.16-0.88-8.9-3.05-12.75-4.8-3.85-1.76-9.7-5.01-13-7.23-3.3-2.23-8.87-6.7-12.38-9.95-3.51-3.24-8.52-8.6-11.14-11.9-2.62-3.3-6.61-9.15-8.86-13-3.44-5.9-4.09-6.57-4.1-4.25zm216.98 71.8c-1.38 0.49-2.99 1.91-3.6 3.17-0.74 1.54-0.82 4.72-0.25 9.78 0.5 4.48 0.43 11.33-0.16 17-0.56 5.23-1.93 12.88-3.06 17-1.12 4.13-4.3 12.23-7.05 18-2.75 5.77-6.78 12.86-8.94 15.75-2.17 2.89-3.71 5.59-3.43 6 0.28 0.41 3.73-1.5 7.66-4.25 3.93-2.75 10.34-8.42 14.24-12.61 3.9-4.19 8.55-10.04 10.33-13 1.79-2.96 4.47-8.76 5.95-12.89 2.33-6.46 2.71-9.03 2.69-18.5-0.02-8.85-0.45-12.13-2.2-16.75-1.57-4.14-3.09-6.31-5.43-7.75-1.79-1.09-3.48-1.96-3.75-1.92-0.27 0.04-1.63 0.48-3 0.97z"/>
	</g>
</svg>