<svg version="1.2" xmlns="http://www.w3.org/2000/svg" viewBox="0 0 489 482" width="489" height="482">
	<style>
		.s0 { opacity: 1;fill: #602535 } 
		.s1 { opacity: .98;fill: #efc75a } 
	</style>
	<g id="Background">
		<path id="Path 0" fill-rule="evenodd" class="s0" d="m247 5.14c5.77-0.09 17.02 0.71 25 1.78 7.98 1.07 19 2.92 24.5 4.11 5.5 1.19 16.08 4.16 23.5 6.61 7.42 2.45 19.35 7.27 26.5 10.71 7.15 3.45 18.17 9.55 24.5 13.57 6.33 4.01 15.1 10.11 19.5 13.55 4.4 3.43 12.68 10.7 18.4 16.14 5.72 5.44 13.98 14.16 18.35 19.39 4.38 5.23 11.55 14.9 15.93 21.5 4.38 6.6 11.08 18.3 14.88 26 3.8 7.7 9.12 20.75 11.83 29 2.71 8.25 5.86 19.39 7.02 24.75 1.15 5.36 2.76 15.71 3.58 23 0.82 7.29 1.49 19.1 1.48 26.25-0.01 7.15-0.64 19.08-1.42 26.5-0.77 7.42-2.12 16.87-3 21-0.88 4.12-2.76 11.77-4.17 17-1.41 5.23-4.6 14.67-7.1 21-2.49 6.33-6.32 15.1-8.52 19.5-2.19 4.4-6.28 11.83-9.09 16.5-2.8 4.67-9 13.67-13.76 20-4.76 6.33-12.87 15.96-18.03 21.4-5.16 5.45-13.65 13.48-18.88 17.85-5.23 4.37-14.9 11.57-21.5 16-6.6 4.43-18.52 11.26-26.5 15.18-7.98 3.92-19.23 8.83-25 10.91-5.77 2.08-15.67 5.08-22 6.67-6.33 1.59-15.55 3.61-20.5 4.5-5.24 0.94-17.76 1.85-30 2.18-13.21 0.37-25.45 0.14-33-0.61-6.6-0.65-16.5-2.05-22-3.11-5.5-1.06-14.95-3.35-21-5.08-6.05-1.73-15.95-5.15-22-7.59-6.05-2.45-15.27-6.64-20.5-9.33-5.23-2.69-14.9-8.43-21.5-12.75-6.6-4.33-15.6-10.74-20-14.25-4.4-3.51-12.29-10.68-17.53-15.93-5.24-5.25-12.96-13.81-17.14-19.04-4.19-5.23-10.82-14.45-14.75-20.5-3.93-6.05-9.33-15.27-12-20.5-2.68-5.23-6.89-14.67-9.37-21-2.48-6.33-5.89-16.45-7.59-22.5-1.69-6.05-4.04-16.17-5.23-22.5-1.67-8.98-2.25-16.76-2.62-35.5-0.31-15.28-0.05-27.45 0.69-33.5 0.65-5.23 2.03-13.77 3.07-19 1.05-5.23 3.05-13.55 4.47-18.5 1.41-4.95 4.19-13.27 6.18-18.5 1.99-5.23 5.85-14 8.58-19.5 2.73-5.5 7.26-13.82 10.07-18.5 2.8-4.68 9.15-13.9 14.11-20.5 4.95-6.6 14.19-17.2 20.53-23.55 6.34-6.36 15.35-14.61 20.03-18.34 4.68-3.72 13.23-9.93 19-13.79 5.77-3.86 17.25-10.31 25.5-14.32 8.25-4.02 19.5-8.88 25-10.8 5.5-1.92 15.62-4.86 22.5-6.53 6.87-1.67 16.1-3.58 20.5-4.24 4.4-0.66 12.95-1.52 19-1.91 6.05-0.39 15.73-0.79 21.5-0.88zm-29.5 11.92c-5.5 0.6-15.18 2.17-21.5 3.49-6.32 1.32-16.9 4.16-23.5 6.3-6.6 2.15-16.27 5.83-21.5 8.19-5.23 2.35-12.43 5.86-16 7.79-3.57 1.93-11.45 6.76-17.5 10.75-6.05 3.99-15.95 11.48-22 16.65-6.05 5.17-14.11 12.75-17.9 16.84-3.8 4.08-9.62 10.8-12.93 14.93-3.31 4.12-9.1 12.23-12.87 18-3.76 5.77-9.5 15.9-12.75 22.5-3.24 6.6-7.47 16.27-9.4 21.5-1.93 5.23-4.69 14-6.13 19.5-1.44 5.5-3.53 15.18-4.66 21.5-1.31 7.43-2.23 18.05-2.57 30-0.4 13.86-0.12 21.89 1.12 32 0.91 7.42 2.82 18.67 4.24 25 1.42 6.33 4.36 16.67 6.52 23 2.17 6.33 7.02 17.8 10.77 25.5 3.76 7.7 9.96 18.73 13.78 24.5 3.82 5.77 9.65 13.87 12.96 18 3.31 4.12 9.12 10.83 12.92 14.9 3.79 4.08 11.4 11.19 16.9 15.81 5.5 4.62 14.95 11.71 21 15.76 6.05 4.04 15.27 9.61 20.5 12.38 5.23 2.76 14.68 7.12 21 9.7 6.32 2.57 16.9 6.15 23.5 7.95 6.6 1.81 17.85 4.33 25 5.61 11.21 2 16.3 2.32 37 2.32 20.71 0 25.78-0.32 37-2.32 7.15-1.28 17.05-3.38 22-4.67 4.95-1.28 13.05-3.75 18-5.48 4.95-1.73 14.4-5.73 21-8.88 6.6-3.15 16.27-8.38 21.5-11.63 5.23-3.25 14-9.24 19.5-13.33 5.5-4.08 15.87-13.32 23.06-20.52 7.18-7.21 16.24-17.37 20.13-22.6 3.9-5.23 9.46-13.33 12.35-18 2.9-4.67 7.62-13.23 10.5-19 2.87-5.77 6.9-15 8.94-20.5 2.05-5.5 5.21-15.85 7.02-23 1.81-7.15 4.1-18.4 5.08-25 1.25-8.45 1.76-17.77 1.74-31.5-0.03-13.28-0.59-23.01-1.76-30.5-0.94-6.05-3.21-16.85-5.05-24-1.83-7.15-5.19-17.95-7.46-24-2.28-6.05-6.35-15.5-9.05-21-2.71-5.5-8-14.73-11.77-20.5-3.77-5.77-10.48-15-14.91-20.5-4.44-5.5-12.97-14.73-18.96-20.5-5.99-5.77-15.16-13.73-20.38-17.68-5.21-3.95-13.53-9.73-18.48-12.84-4.95-3.11-13.95-8.05-20-10.97-6.05-2.93-15.5-6.98-21-9.02-5.5-2.03-14.95-5-21-6.6-6.05-1.59-17.08-3.76-24.5-4.81-7.42-1.06-18.9-2.11-25.5-2.35-6.6-0.23-14.7-0.27-18-0.09-3.3 0.19-10.5 0.83-16 1.42z"/>
		<path id="Path 2" fill-rule="evenodd" class="s0" d="m244.5 98.08c2.32-0.01 5.62 0.92 7.86 2.2 2.21 1.27 4.67 3.82 5.75 5.97 1.04 2.06 1.88 5.44 1.86 7.5-0.02 2.06-1.03 5.49-2.25 7.61-1.27 2.21-3.82 4.67-5.97 5.75-2.06 1.04-5.44 1.88-7.5 1.86-2.06-0.02-5.44-1.03-7.49-2.25-2.06-1.22-4.64-3.79-5.72-5.72-1.09-1.93-1.99-5.19-2.01-7.25-0.02-2.06 0.87-5.55 1.97-7.75 1.26-2.52 3.39-4.72 5.75-5.96 2.06-1.07 5.55-1.96 7.75-1.96zm-6.45 15.37c-0.03 0.85 1.07 2.68 2.45 4.05 1.37 1.38 3.2 2.5 4.05 2.5 0.85 0 2.65-1.12 4-2.5 1.72-1.76 2.28-3.17 1.86-4.75-0.32-1.24-1.56-3.06-2.75-4.04-1.19-0.99-2.74-1.78-3.46-1.75-0.71 0.02-2.38 1.14-3.7 2.49-1.32 1.35-2.43 3.15-2.45 4zm37.4-5.45c2.23 0.01 8.32 0.7 13.55 1.55 5.23 0.84 14.23 3.12 20 5.05 5.77 1.93 13.88 5.33 18 7.55 4.13 2.23 9.75 5.55 12.5 7.38 2.75 1.82 8.38 6.19 12.5 9.69 4.13 3.51 10.42 10.02 14 14.48 3.58 4.45 8.6 11.63 11.17 15.95 2.57 4.32 6.22 11.67 8.11 16.35 1.89 4.68 4.42 12.32 5.61 17 1.2 4.68 1.93 9.29 1.64 10.25-0.29 0.96-1.77 2.04-3.28 2.38-1.51 0.35-3.42 0.19-4.25-0.36-0.83-0.54-1.88-2.52-2.34-4.38-0.46-1.86-1.9-6.99-3.19-11.39-1.29-4.4-4.72-12.73-7.61-18.5-2.9-5.77-7.82-13.87-10.95-18-3.13-4.12-8.33-10-11.55-13.05-3.22-3.05-8.78-7.62-12.36-10.16-3.58-2.53-9.88-6.42-14-8.65-4.13-2.22-12.23-5.6-18-7.52-5.77-1.91-15.67-4.26-22-5.23-6.33-0.96-12.08-2.23-12.79-2.82-0.72-0.59-1.37-1.99-1.45-3.12-0.09-1.13 0.47-2.59 1.24-3.25 0.77-0.66 3.22-1.2 5.45-1.2zm-133.45 31.56c2.48 0.27 5.51 1.16 6.75 1.97 1.24 0.81 3.49 3.13 5 5.16 1.95 2.63 2.82 5.09 3 8.5 0.24 4.7 0.31 4.79 2.75 3.81 1.37-0.55 4.41-0.99 6.75-0.97 2.54 0.02 5.75 0.93 7.99 2.25 2.06 1.22 4.64 3.79 5.72 5.72 1.87 3.32 1.98 5.6 2.04 43.5 0.03 22 0.47 45.63 0.97 52.5 0.5 6.88 1.28 13.57 2.53 17.24l3.04-3.37c1.68-1.85 5.14-7.42 7.69-12.37 2.74-5.31 6.82-11.28 9.96-14.55 2.92-3.06 7.56-6.66 10.31-8 3.78-1.86 6.62-2.45 11.68-2.45 5.2 0 7.3 0.46 9.5 2.09 1.55 1.15 3.43 3.4 4.16 5 1.29 2.78 0.99 3.61-6.65 18.41-4.4 8.52-10.36 21.13-13.23 28-2.88 6.88-6.66 16.77-8.4 22-1.74 5.23-5.1 13.1-7.46 17.5-2.36 4.4-6.48 10.7-9.15 14-2.67 3.3-6.22 7.01-7.9 8.25-1.68 1.24-3.95 3.71-5.05 5.5-1.59 2.6-1.99 5.01-2 12 0 4.81-0.45 9.65-1 10.75-0.63 1.26-2.01 2.01-3.75 2.02-1.51 0.01-3.32-0.56-4.02-1.25q-1.26-1.27-1.26-10.77c0-5.23 0.52-11.08 1.15-13 0.67-2.02 4.63-7.1 9.34-12 4.5-4.67 9.56-10.52 11.23-13 1.67-2.48 4.16-6.75 5.54-9.5 1.37-2.75 3.73-8.83 5.25-13.5 1.52-4.67 4.77-13.45 7.22-19.5 2.45-6.05 7.91-17.98 12.13-26.5 4.22-8.52 7.89-15.92 8.17-16.43 0.29-0.55-1.6-0.76-4.56-0.5-3.5 0.3-6.39 1.35-9.37 3.43-2.37 1.65-5.78 5.02-7.57 7.5-1.8 2.48-5.37 8.33-7.95 13-2.57 4.67-6.11 9.99-7.86 11.81-1.76 1.81-8.36 5.82-14.69 8.91-8.76 4.28-12.83 6.95-17.06 11.2-3.06 3.07-6.77 8.06-8.24 11.08-1.47 3.02-3.47 8.59-4.44 12.37-1.08 4.24-2.43 7.21-3.51 7.75-0.96 0.48-2.65 0.65-3.75 0.38-1.14-0.28-2.29-1.68-2.67-3.25-0.39-1.59 0.06-5.49 1.06-9.25 0.95-3.58 2.82-8.75 4.14-11.5 1.33-2.75 4.34-7.35 6.69-10.21 2.35-2.87 6.76-7.09 9.78-9.38 3.02-2.29 7.44-5.12 9.82-6.28 4.15-2.04 4.29-2.27 3.65-5.63-0.37-1.92-1.07-6.2-1.55-9.5-0.48-3.3-0.89-26.36-0.9-51.25-0.02-34.16-0.33-45.87-1.27-47.77-0.69-1.38-2.38-2.98-3.75-3.54-1.72-0.71-3.36-0.7-5.25 0.02-1.67 0.63-3.34 2.42-4.25 4.54-1.24 2.9-1.5 9.78-1.5 76.5l-2.25 1.11c-1.64 0.8-2.86 0.8-6.75-1.11l0.02-45.75c0.01-27.68-0.38-46.94-0.98-48.75-0.55-1.65-2.13-3.56-3.52-4.25-1.38-0.69-3.08-1.27-3.77-1.28-0.69-0.02-2.49 0.88-6.75 4.03l0.01 47.25c0 40.46-0.21 47.57-1.5 49.5-0.83 1.24-2.41 2.25-3.51 2.25-1.1 0-2.68-0.67-3.5-1.5-1.28-1.28-1.5-7-1.5-76.5l-2.5-2.5c-1.56-1.56-3.63-2.5-5.5-2.5-1.67 0-3.89 0.89-5 2-1.92 1.92-2.01 3.48-2.21 40.25-0.12 21.04-0.23 40.09-0.25 42.34-0.02 2.25-0.72 4.85-1.54 5.79-0.83 0.94-2.4 1.7-3.5 1.68-1.1-0.01-2.57-0.6-3.27-1.29-0.95-0.96-1.26-7.36-1.23-50.77l-2.5-2.5c-1.38-1.37-3.06-2.5-3.75-2.51-0.69 0-2.26 0.67-5.75 3.01l0.01 45.75c0 35.84 0.33 47.92 1.52 55.75 0.84 5.5 2.76 13.6 4.27 18 1.51 4.4 5.32 12.5 8.46 18 3.14 5.5 6.16 11.58 6.72 13.5 0.56 1.92 1.02 7.89 1.02 13.25 0 7.56-0.35 10.09-1.57 11.25-0.87 0.83-2.33 1.51-3.25 1.52-0.92 0.01-2.25-0.56-2.95-1.25-0.83-0.83-1.27-4.37-1.29-10.27-0.02-4.95-0.59-10.58-1.28-12.5-0.7-1.92-3.38-6.99-5.96-11.25-2.59-4.26-5.99-11.01-7.58-15-1.58-3.99-3.58-10.4-4.44-14.25-0.87-3.85-2.08-11.95-2.7-18-0.7-6.87-1-27.02-0.8-53.68 0.31-41.48 0.38-42.76 2.41-45.5 1.15-1.55 3.63-3.87 5.5-5.16 2.74-1.88 4.44-2.27 13.9-1.66v-11.25c0.01-7.11 0.5-12.45 1.35-14.5 0.74-1.79 2.99-4.71 5-6.5q3.66-3.25 7.91-3.82c2.34-0.32 5.49-0.09 7 0.5 1.51 0.59 2.98 1.07 3.25 1.07 0.27 0 0.5-1.8 0.5-4 0-2.2 0.62-5.46 1.38-7.25 0.75-1.79 2.67-4.43 4.25-5.88 1.58-1.44 4.22-3.11 5.87-3.72 1.65-0.6 5.02-0.87 7.5-0.59zm124.25 9.54c7.19-0.06 14.76 0.51 19.5 1.48 4.26 0.88 11.12 3 15.25 4.72 4.12 1.73 10.65 5.22 14.5 7.75 3.85 2.54 9.65 7.28 12.88 10.53 3.24 3.26 7.82 8.62 10.19 11.92 2.36 3.3 5.67 9.04 7.36 12.75 1.69 3.71 4.04 10.69 5.22 15.5 1.61 6.53 2.13 11.66 2.08 20.25-0.05 8.2-0.67 13.8-2.15 19.5-1.14 4.4-3.83 11.6-5.98 16-2.15 4.4-6.37 11.15-9.38 15-3.01 3.85-7.66 8.85-10.34 11.11-2.69 2.25-7.8 5.98-11.38 8.29-3.58 2.3-9.99 5.51-14.25 7.14-4.26 1.63-11.69 3.64-16.5 4.47-4.81 0.83-11.23 1.51-14.25 1.51-3.02 0-9.44-0.68-14.25-1.51-4.81-0.83-9.87-2.07-11.24-2.76-1.37-0.69-2.68-2.15-2.92-3.25-0.24-1.1-0.13-2.62 0.24-3.39 0.37-0.76 1.46-1.77 2.42-2.25 1.11-0.55 3.85-0.23 7.5 0.88 4.17 1.26 9.18 1.73 18.25 1.71 8.84-0.02 14.4-0.55 19-1.81 3.58-0.98 9.65-3.28 13.5-5.11 3.85-1.83 10.32-5.96 14.37-9.18 4.06-3.22 9.93-9.22 13.06-13.35 3.5-4.62 6.9-10.67 8.87-15.75 1.76-4.54 3.7-10.39 4.3-13 0.61-2.61 1.09-9.48 1.08-15.25-0.01-7.5-0.62-12.78-2.15-18.5-1.17-4.4-3.89-11.37-6.05-15.5-2.16-4.12-6.08-10.05-8.7-13.17-2.63-3.12-7.7-8.01-11.28-10.87-3.58-2.86-10.1-6.89-14.5-8.96-4.4-2.07-10.92-4.47-14.5-5.33-3.58-0.86-9.42-1.87-13-2.25-3.79-0.4-10.04-0.17-15 0.55-4.67 0.67-10.98 2.01-14 2.97-3.62 1.15-6.27 1.45-7.75 0.9-1.24-0.46-2.48-1.74-2.75-2.84-0.27-1.1-0.1-2.79 0.38-3.75 0.49-0.96 3.52-2.55 6.75-3.52 3.23-0.98 7.67-2.17 9.87-2.65 2.2-0.48 9.29-0.92 15.75-0.98zm-1.25 39c3.58-0.06 9.2 0.6 12.5 1.46 3.3 0.86 8.64 3 11.87 4.75 3.23 1.76 8.23 5.67 11.1 8.69 2.87 3.02 6.42 7.86 7.88 10.75 1.46 2.89 3.35 8.06 4.2 11.5 1.4 5.64 1.4 6.47 0 8.5-0.85 1.24-2.56 2.27-3.8 2.29-1.24 0.03-2.76-0.53-3.38-1.25-0.63-0.71-1.64-3.65-2.25-6.54-0.62-2.89-2.09-7.16-3.29-9.5-1.19-2.34-4.23-6.44-6.75-9.12-2.52-2.67-7.06-6.11-10.08-7.63-3.02-1.52-7.98-3.29-11-3.94-4.03-0.86-7.1-0.89-11.5-0.11-3.3 0.58-7.01 1.06-8.25 1.06-1.34-0.01-2.7-0.92-3.36-2.26-0.8-1.64-0.8-2.86 0-4.5 0.75-1.51 2.5-2.54 5.36-3.14 2.34-0.49 7.17-0.95 10.75-1.01zm-38 0.94c1.37-0.01 4.47 0.99 6.88 2.22 2.54 1.31 5.22 3.7 6.41 5.74 1.58 2.72 1.94 4.76 1.62 9.19-0.35 4.86-0.91 6.2-3.91 9.28-1.95 2.01-5.16 4.03-7.25 4.57-2.37 0.61-5.13 0.61-7.5 0.01-2.06-0.52-4.99-1.87-6.5-3-1.51-1.13-3.47-3.96-4.35-6.3-1-2.64-1.37-5.58-1-7.75 0.33-1.92 1.5-4.96 2.6-6.75 1.12-1.81 3.88-4.13 6.25-5.23 2.34-1.09 5.37-1.98 6.75-1.98zm-6.21 16.04c0.08 1.33 0.95 3.2 1.93 4.14 0.98 0.95 2.79 1.74 4.03 1.75 1.24 0.02 3.15-0.87 4.25-1.97 1.1-1.1 2-2.79 2.01-3.75 0-0.96-0.67-2.76-1.5-4-0.98-1.46-2.52-2.25-4.36-2.25-1.57 0-3.68 0.82-4.68 1.83-1.01 1-1.76 2.92-1.68 4.25zm44.21 14.92c1.92 0 5.07 0.79 6.98 1.75 1.91 0.96 4.51 3.33 5.78 5.25 1.56 2.37 2.29 4.95 2.26 8-0.01 2.7-0.83 5.8-2.02 7.75-1.1 1.79-3.46 4.15-5.25 5.25-1.98 1.21-5 1.99-7.75 1.99-2.75 0-5.77-0.78-7.75-1.99-1.79-1.1-4.15-3.46-5.25-5.25-1.19-1.95-2.01-5.05-2.02-7.75-0.03-3.13 0.67-5.52 2.3-7.85 1.28-1.84 3.88-4.2 5.78-5.25 1.89-1.05 5.02-1.9 6.94-1.9zm124 4c2.73 0 5.78 0.79 7.75 2 1.79 1.1 4.15 3.46 5.25 5.25 1.19 1.95 2.01 5.05 2.02 7.75 0.03 3.06-0.69 5.59-2.24 7.91-1.25 1.87-3.55 4.35-5.1 5.5-2.04 1.51-4.31 2.09-8.18 2.09-3.79 0-6.14-0.59-8.06-2-1.48-1.1-3.57-3.12-4.65-4.5-1.1-1.41-2.15-4.68-2.41-7.5-0.39-4.23-0.05-5.6 2.2-8.85 1.46-2.12 4.07-4.71 5.79-5.76 1.85-1.12 4.96-1.89 7.63-1.89zm-6.38 16.25c0.34 1.24 1.13 2.83 1.75 3.54 0.62 0.72 2.59 1.28 4.38 1.25 2.22-0.03 3.73-0.75 4.76-2.29 0.83-1.24 1.51-2.92 1.52-3.75 0.01-0.82-1-2.5-2.25-3.73-1.26-1.22-3.09-2.24-4.08-2.25-0.98-0.01-2.9 1.11-4.25 2.48-1.75 1.78-2.27 3.14-1.83 4.75zm-81.25 2.75c3.53 0 6.78 0.65 8.7 1.75 1.69 0.96 4.03 3.33 5.21 5.25 1.35 2.21 2.14 5.16 2.14 8 0 2.65-0.8 5.89-1.96 7.9-1.08 1.86-3.09 4.26-4.46 5.32-1.38 1.07-4.74 2.15-7.5 2.42-3.73 0.36-5.89 0-8.5-1.43-1.92-1.05-4.53-3.44-5.78-5.31-1.79-2.68-2.24-4.65-2.12-9.28 0.15-5.47 0.46-6.19 4.4-10.25 4.01-4.14 4.53-4.37 9.87-4.37zm-5.4 15.25c-0.02 1.24 0.77 3.03 1.75 3.97 0.98 0.95 2.9 1.76 4.28 1.79 1.37 0.03 3.28-0.75 4.22-1.73 0.95-0.98 1.74-3.02 1.75-4.53 0.02-1.76-0.78-3.29-2.22-4.26-1.24-0.83-3.04-1.5-4-1.5-0.96 0.01-2.65 0.91-3.75 2.01-1.1 1.1-2.01 3.01-2.03 4.25zm88.39 3.72c1.18-0.02 3.04 0.89 6.14 4.07l-2.35 6.73c-1.3 3.7-4.59 11-7.32 16.23-2.73 5.23-7.52 13.04-10.65 17.36-3.12 4.32-9.51 11.54-14.18 16.05-4.67 4.5-11.88 10.46-16 13.25-4.13 2.78-10.65 6.65-14.5 8.59-3.85 1.93-11.05 4.87-16 6.52-4.95 1.66-13.27 3.74-18.5 4.62-5.23 0.89-10.96 1.62-12.75 1.62-2.4-0.01-3.64-0.67-4.75-2.51-1.09-1.82-1.23-3.05-0.5-4.5 0.55-1.1 2.01-2.2 3.25-2.44 1.24-0.24 4.95-0.7 8.25-1.02 3.3-0.31 10.27-1.71 15.5-3.11 5.23-1.4 13.33-4.35 18-6.56 4.67-2.2 11.65-6.11 15.5-8.68 3.85-2.56 10.56-8.04 14.91-12.18 4.35-4.13 10.43-10.88 13.51-15.01 3.07-4.12 7.45-11.1 9.72-15.5 2.27-4.4 5.16-10.92 6.41-14.5 1.26-3.58 2.71-7.06 3.23-7.75 0.52-0.69 1.91-1.26 3.08-1.28zm-128.88 8.48c2.21 0.36 6.27 0.92 9.02 1.23 2.94 0.34 7.14 0.01 10.2-0.8 4.86-1.29 5.33-1.25 7.31 0.62 1.16 1.1 1.97 2.9 1.8 4-0.18 1.17-1.97 2.83-4.31 3.99-3.1 1.54-6.02 1.99-13 1.99-6.98 0-9.9-0.45-13-1.99-2.85-1.42-4.08-2.71-4.28-4.49-0.16-1.37 0.29-3.11 0.98-3.85 0.88-0.95 2.48-1.16 5.28-0.7zm-7.23 65.57c2.06-0.01 5.39 0.77 7.4 1.73 2 0.96 4.57 3.1 5.7 4.75 1.13 1.65 2.25 5.02 2.48 7.5 0.3 3.09-0.16 5.72-1.45 8.39-1.15 2.37-3.44 4.8-5.88 6.23-2.23 1.3-5.66 2.35-7.75 2.36-2.06 0.01-5.55-0.88-7.75-1.98-2.75-1.37-4.67-3.33-6.12-6.25-1.53-3.06-2.01-5.51-1.7-8.75 0.23-2.48 1.38-5.9 2.55-7.61 1.17-1.71 3.63-3.84 5.45-4.73 1.83-0.89 5.01-1.62 7.07-1.64zm-6.25 15.18c-0.05 0.72 0.72 2.36 1.71 3.65 1.18 1.55 2.81 2.36 4.79 2.36 1.98 0 3.61-0.81 4.79-2.36 0.99-1.29 1.79-2.8 1.79-3.35 0-0.55-0.8-1.97-1.79-3.16-0.98-1.19-2.78-2.46-3.98-2.82-1.58-0.46-2.9 0.06-4.71 1.87-1.38 1.39-2.55 3.1-2.6 3.81z"/>
		<path id="Path 3" class="s1" d="m135.61 100.49c-1.21 4.15-2.29 5.85-4.36 6.89-1.51 0.76-4.21 1.66-6 2-1.79 0.34-3.48 1.07-3.75 1.62-0.27 0.55-0.05 1 0.5 1 0.55 0 3.48 0.9 6.5 2 5.38 1.96 5.53 2.12 7 7.5 0.82 3.02 1.95 5.5 2.5 5.5 0.55 0 1.45-2.25 2-5 0.68-3.39 1.72-5.45 3.25-6.41 1.24-0.78 4.16-2.02 6.5-2.75 2.34-0.74 3.91-1.62 3.5-1.97-0.41-0.34-3-1.33-5.75-2.2-3.74-1.18-5.31-2.28-6.22-4.37-0.66-1.54-1.56-4.1-2-5.68-0.43-1.59-1.07-3.05-1.42-3.26-0.35-0.21-1.36 2.1-2.25 5.13zm-35.09 22.01c-0.37 1.1-1.31 3.46-2.09 5.25-1.05 2.38-2.43 3.55-5.18 4.37-2.06 0.62-4.2 1.5-4.75 1.95-0.58 0.49 1.08 1.41 4 2.22 4.66 1.29 5.1 1.69 6.5 5.94 0.82 2.5 1.73 4.82 2 5.13 0.27 0.32 1.11-1.32 1.85-3.64 0.75-2.32 1.87-4.81 2.5-5.54 0.63-0.72 2.84-1.73 4.9-2.25 2.06-0.51 3.75-1.38 3.75-1.93 0-0.55-2.02-1.45-4.5-2-4.25-0.94-4.61-1.29-6.41-6.25-1.53-4.21-2.05-4.85-2.57-3.25zm71.83 3.78c-0.7 2.39-1.77 3.48-4.17 4.22-1.78 0.55-3.22 1.34-3.21 1.75 0.02 0.41 1.46 1.09 3.2 1.5 2.49 0.59 3.36 1.45 4 4 0.46 1.79 1.17 3.08 1.58 2.87 0.41-0.21 1.09-1.78 1.5-3.5 0.63-2.61 1.32-3.2 4.25-3.62 1.93-0.27 3.27-0.95 3-1.5-0.27-0.55-1.85-1.23-3.5-1.5-2.36-0.39-3.16-1.17-3.75-3.62-0.41-1.72-1.02-3.28-1.36-3.48-0.33-0.19-1.02 1.1-1.54 2.88zm24.97 20.77c-0.45 1.75-1.27 3.52-1.82 3.93-0.55 0.41-2.24 1.03-3.75 1.38-1.51 0.35-2.58 0.98-2.37 1.39 0.21 0.41 1.78 1.09 3.5 1.5 2.45 0.59 3.34 1.5 4.12 4.25 0.55 1.93 1.34 3.33 1.75 3.13 0.41-0.2 1.13-1.66 1.58-3.25 0.46-1.58 1.36-3.21 2-3.61 0.65-0.41 2.18-0.75 3.42-0.75 1.24-0.01 2.25-0.47 2.25-1.02 0-0.55-1.57-1.45-3.5-2-2.8-0.8-3.6-1.6-4-4-0.27-1.65-0.92-3.25-1.43-3.57-0.51-0.31-1.3 0.87-1.75 2.62zm-119.71 13.95c-0.45 2.19-1.42 3.27-3.61 4-1.65 0.55-3.01 1.34-3.02 1.75-0.02 0.41 1.33 1.09 3 1.5 2.34 0.58 3.13 1.42 3.52 3.75 0.27 1.65 0.84 3.01 1.25 3.02 0.41 0.02 1.09-1.33 1.5-3 0.56-2.25 1.52-3.21 3.77-3.77 1.67-0.41 3.02-1.09 3-1.5-0.01-0.41-1.37-1.2-3.02-1.75-2.27-0.76-3.1-1.73-3.42-4-0.24-1.65-0.86-3-1.4-3-0.53 0-1.24 1.35-1.57 3zm121.96 56c-0.44 2.34-1.26 3.17-3.69 3.75-1.72 0.41-3.29 1.09-3.5 1.5-0.21 0.41 1.08 1.19 2.87 1.72 2.43 0.73 3.44 1.73 4 4 0.41 1.67 1.2 3.03 1.75 3.03 0.55 0 0.99-1.01 0.98-2.25-0.01-1.24 0.53-2.81 1.2-3.5 0.67-0.69 2.03-1.25 3.02-1.25 0.99 0 2.03-0.45 2.3-1 0.27-0.55-0.85-1.45-2.5-2-2.27-0.76-3.1-1.73-3.42-4-0.24-1.65-0.88-3-1.44-3-0.55 0-1.26 1.35-1.57 3zm190.38 95.63c-1.21 3-2.27 4.04-4.75 4.62-1.76 0.41-3.03 1.09-2.82 1.5 0.21 0.41 1.78 1.09 3.5 1.5 2.45 0.59 3.23 1.39 3.62 3.75 0.27 1.65 0.95 3.23 1.5 3.5 0.55 0.27 1.36-0.96 1.8-2.75 0.61-2.48 1.56-3.49 4.01-4.25 1.77-0.55 3.21-1.34 3.2-1.75-0.01-0.41-1.36-1.2-3.01-1.75-1.65-0.55-3.26-1.79-3.58-2.75-0.32-0.96-0.89-2.59-1.25-3.62-0.55-1.54-0.95-1.19-2.22 2zm-21.83 27.09c-0.59 2.08-1.76 4.76-2.61 5.95-0.85 1.19-3.79 2.88-6.53 3.75-2.74 0.87-4.98 2.03-4.98 2.58 0 0.55 2.14 1.49 4.75 2.08 2.61 0.59 5.33 1.61 6.05 2.25 0.71 0.64 1.95 3.53 2.75 6.42 0.8 2.89 1.79 5.08 2.2 4.87 0.41-0.2 1.13-2.11 1.6-4.25 0.46-2.13 1.25-4.66 1.75-5.62 0.49-0.96 3.38-2.54 6.42-3.5 3.03-0.96 5.52-1.98 5.52-2.25 0-0.27-1.92-1.11-4.27-1.85-2.35-0.74-5.09-2.09-6.09-3-1-0.91-2.35-3.62-3-6.03-0.65-2.41-1.47-4.56-1.83-4.78-0.36-0.22-1.14 1.3-1.73 3.38z"/>
	</g>
</svg>