<svg version="1.2" xmlns="http://www.w3.org/2000/svg" viewBox="0 0 492 490" width="492" height="490">
	<style>
		.s0 { opacity: 1;fill: #692a35 } 
		.s1 { opacity: 1;fill: #eecb5b } 
	</style>
	<g id="Layer 1">
		<path id="Path 0" fill-rule="evenodd" class="s0" d="m250.5 7.5c14.26 0.26 23.59 0.97 32.5 2.47 6.88 1.16 17.67 3.41 24 5 6.33 1.58 14.88 4.08 19 5.55 4.13 1.46 15.15 6.41 24.5 10.98 9.35 4.58 21.5 11.34 27 15.02 5.5 3.69 14.05 9.97 19 13.96 4.95 3.98 14.85 13.29 22 20.67 7.15 7.39 16.15 17.89 20 23.34 3.85 5.46 8.96 13.09 11.36 16.96 2.39 3.88 6.56 11.44 9.25 16.8 2.69 5.36 6.44 13.46 8.33 18 1.89 4.54 5 13.65 6.91 20.25 1.91 6.6 4.75 18.3 6.31 26 2.69 13.32 2.83 15.3 2.82 41-0.01 21.7-0.37 28.96-1.82 37-1 5.5-2.7 13.83-3.78 18.5-1.08 4.67-2.81 11.2-3.83 14.5-1.03 3.3-3.22 9.6-4.86 14-1.64 4.4-4.52 11.37-6.41 15.5-1.88 4.12-6.31 12.45-9.83 18.5-3.53 6.05-10.28 16.17-14.99 22.5-4.71 6.33-11.46 14.65-15 18.5-3.54 3.85-7.6 8.12-9.02 9.5-1.42 1.37-4.8 4.56-7.51 7.07-2.71 2.52-8.76 7.52-13.43 11.12-4.67 3.6-12.77 9.35-18 12.79-5.23 3.43-15.8 9.34-23.5 13.12-7.85 3.85-20.81 9.09-29.5 11.93-8.52 2.78-20.9 6.14-27.5 7.47-6.6 1.32-18.75 3.16-27 4.07-10.14 1.11-19.05 1.47-27.5 1.1-6.87-0.31-17.9-1.26-24.5-2.13-6.6-0.86-16.27-2.5-21.5-3.65-5.23-1.15-16.25-4.27-24.5-6.95-9.31-3.01-20.88-7.78-30.5-12.56-8.52-4.24-15.73-8-16-8.35-0.27-0.35-2.3-1.7-4.5-3.01-2.2-1.31-7.82-5.08-12.5-8.39-4.68-3.31-11.43-8.49-15-11.5-3.57-3.02-10.56-9.57-15.51-14.56-4.96-4.99-11.56-12.22-14.67-16.07-3.11-3.85-9.41-12.63-14.01-19.5-4.59-6.88-11.34-18.58-14.99-26-3.65-7.42-8.3-18-10.32-23.5-2.03-5.5-4.95-14.95-6.5-21-1.54-6.05-3.52-15.27-4.4-20.5-0.88-5.23-2.1-15.58-2.7-23-0.61-7.46-0.81-18.87-0.45-25.5 0.37-6.6 1.34-16.95 2.17-23 0.82-6.05 2.79-16.4 4.37-23 1.58-6.6 4.51-16.73 6.52-22.5 2.01-5.77 6.46-16.35 9.88-23.5 3.43-7.15 8.91-17.27 12.19-22.5 3.27-5.23 8.65-13.08 11.94-17.45 3.29-4.37 9.6-12.02 14.03-17 4.42-4.98 12.97-13.32 19-18.55 6.03-5.23 14.78-12.25 19.45-15.62 4.68-3.37 13.45-8.96 19.5-12.44 6.05-3.47 14.6-7.97 19-10 4.4-2.02 12.27-5.28 17.5-7.24 5.23-1.96 14.9-4.93 21.5-6.6 6.6-1.67 16.05-3.73 21-4.59 4.95-0.85 12.6-1.96 17-2.46 4.4-0.51 17-0.76 28-0.55zm-57.5 16.56c-6.87 1.67-16.32 4.31-21 5.87-4.68 1.57-10.75 3.86-13.5 5.1-2.75 1.24-9.05 4.2-14 6.58-4.95 2.38-10.35 5.13-12 6.11-1.65 0.98-5.48 3.31-8.5 5.18-3.02 1.87-9.77 6.56-15 10.42-5.23 3.86-16.05 13.58-24.06 21.6-8.01 8.02-17.27 18.18-20.58 22.58-3.31 4.4-7.97 10.93-10.35 14.5-2.39 3.57-7.33 12.35-10.99 19.5-3.66 7.15-8.51 18.18-10.79 24.5-2.28 6.32-5.27 15.77-6.64 21-1.37 5.23-3.16 13.1-3.98 17.5-0.81 4.4-2.04 14.75-2.72 23-0.96 11.72-0.97 18.28-0.05 30 0.65 8.25 1.84 19.05 2.64 24 0.81 4.95 3.07 14.85 5.04 22 1.98 7.15 4.74 15.92 6.16 19.5 1.41 3.58 3.14 7.85 3.84 9.5 0.71 1.65 2.43 5.48 3.84 8.5 1.4 3.02 4.42 8.88 6.72 13 2.29 4.13 5.99 10.2 8.21 13.5 2.22 3.3 6.88 9.6 10.36 14 3.48 4.4 6.9 8.64 7.59 9.43 0.69 0.79 6.66 6.89 13.26 13.57 6.6 6.68 16.27 15.27 21.5 19.1 5.23 3.82 11.3 8.11 13.5 9.53 2.2 1.42 5.57 3.52 7.5 4.67 1.93 1.15 8 4.42 13.5 7.27 5.5 2.86 13.6 6.52 18 8.15 4.4 1.63 11.15 4.08 15 5.44 3.85 1.36 11.5 3.55 17 4.86 5.5 1.32 15.18 3.18 21.5 4.14 8.09 1.22 17.44 1.73 31.5 1.71 13.59-0.02 23.84-0.59 32-1.77 6.6-0.96 17.85-3.25 25-5.09 7.15-1.84 16.38-4.56 20.5-6.04 4.12-1.49 9.98-3.83 13-5.21 3.02-1.38 9.1-4.23 13.5-6.33 4.4-2.1 12.05-6.37 17-9.49 4.95-3.12 13.27-8.88 18.49-12.81 5.21-3.92 14.7-12.3 21.08-18.63 6.39-6.33 14.63-15.33 18.32-20 3.69-4.67 9.25-12.33 12.34-17 3.1-4.67 8.32-13.67 11.6-20 3.28-6.33 7.09-14.42 8.45-18 1.37-3.58 3.52-9.42 4.8-13 1.27-3.58 3.44-11 4.83-16.5 1.39-5.5 3.22-14.05 4.07-19 0.85-4.95 1.95-15.52 2.44-23.5 0.54-8.7 0.54-19.7-0.01-27.5-0.5-7.15-1.6-17.05-2.43-22-0.84-4.95-3.07-14.63-4.97-21.5-1.9-6.88-4.63-15.88-6.06-20-1.44-4.13-5.36-13.13-8.72-20-3.36-6.88-8.32-16.1-11.03-20.5-2.71-4.4-8.14-12.27-12.06-17.49-3.93-5.21-11.41-13.94-16.64-19.38-5.23-5.45-13.6-13.33-18.61-17.52-5.01-4.18-12.89-10.12-17.5-13.19-4.61-3.06-10.19-6.69-12.39-8.07-2.2-1.37-9.62-5.23-16.5-8.57-6.87-3.34-14.3-6.87-16.5-7.83-2.2-0.97-8.05-3.02-13-4.56-4.95-1.54-13.73-3.94-19.5-5.33-5.77-1.39-16.35-3.21-23.5-4.04-7.29-0.86-20.47-1.48-30-1.42-9.35 0.06-21.73 0.74-27.5 1.52-5.77 0.77-16.12 2.77-23 4.44z"/>
		<path id="Path 2" fill-rule="evenodd" class="s0" d="m248.5 103.4c18.44 0.3 20.9 0.56 31.5 3.34 6.33 1.65 15.33 4.52 20 6.38 4.67 1.85 12.55 5.79 17.5 8.76 4.95 2.97 12.6 8.2 17 11.61 4.4 3.42 11.32 9.77 15.37 14.11 4.06 4.35 10.22 12.17 13.7 17.4 3.47 5.23 8.09 13.32 10.25 18 2.17 4.68 4.92 11.65 6.12 15.5 1.19 3.85 2.84 10.15 3.65 14 0.81 3.85 1.8 10.88 2.19 15.62 0.58 6.98 0.44 8.93-0.78 10.29-0.83 0.92-2.74 1.66-4.25 1.63-1.7-0.02-3.32-0.9-4.26-2.29-0.83-1.24-1.5-4.05-1.49-6.25 0.01-2.2-0.68-8.05-1.54-13-0.86-4.95-2.92-13.05-4.58-18-1.66-4.95-5.12-13.05-7.69-18-2.56-4.95-7.2-12.38-10.32-16.5-3.11-4.13-8.97-10.77-13.01-14.76-4.05-4-10.73-9.76-14.86-12.81-4.12-3.04-11.77-7.73-17-10.41-5.23-2.69-13.55-6.22-18.5-7.85-4.95-1.63-11.7-3.48-15-4.1-3.3-0.63-10.73-1.57-16.5-2.09-6.63-0.6-14.55-0.59-21.5 0.01-6.05 0.53-16.4 2.32-23 3.98-8.48 2.13-15.52 4.76-24 8.96-6.6 3.27-15.82 8.84-20.5 12.38-4.68 3.53-12.1 10.21-16.5 14.83-4.4 4.62-10.56 12.22-13.68 16.88-3.13 4.66-7.11 11.63-8.86 15.48-1.75 3.85-3.76 8.35-4.48 10-0.71 1.65-1.79 4.91-2.39 7.25-0.67 2.62-2.07 4.92-3.65 6-2.16 1.47-2.94 1.55-5 0.5-1.34-0.69-2.71-2.49-3.04-4-0.37-1.7 0.28-5.23 1.71-9.25 1.26-3.57 4.35-10.55 6.85-15.5 2.5-4.95 7.24-13.05 10.51-18 3.44-5.18 10.43-13.48 16.5-19.57 6.68-6.71 14.19-12.99 20.53-17.2 5.5-3.64 13.82-8.39 18.5-10.55 4.68-2.17 13-5.35 18.5-7.07 5.5-1.72 13.6-3.78 18-4.59 5.78-1.05 13.56-1.36 28-1.12zm-1 34.99c13.31 0.27 18.63 0.8 24.5 2.42 4.13 1.14 11.1 3.57 15.5 5.4 4.4 1.84 11.83 5.88 16.5 8.98 4.67 3.1 11.4 8.26 14.94 11.47 3.54 3.21 9.1 9.44 12.35 13.84 3.26 4.4 7.65 11.6 9.76 16 2.11 4.4 4.76 11.37 5.9 15.5 1.13 4.12 2.53 11.32 3.1 16 0.9 7.24 0.83 8.83-0.5 10.75-0.91 1.32-2.58 2.25-4.05 2.25-1.52 0-3.04-0.88-3.87-2.25-0.75-1.24-1.91-6.3-2.57-11.25-0.67-4.95-2.12-11.7-3.24-15-1.11-3.3-3.75-9.38-5.85-13.5-2.1-4.13-6.35-10.65-9.43-14.5-3.09-3.85-8.63-9.57-12.33-12.71-3.69-3.15-10.08-7.64-14.21-9.99-4.12-2.35-9.98-5.27-13-6.48-3.02-1.22-8.2-2.92-11.5-3.78-3.3-0.86-9.83-1.91-14.5-2.34-4.67-0.42-13-0.42-18.5 0.02-5.5 0.44-12.7 1.53-16 2.43-3.3 0.9-9.82 3.4-14.5 5.56-4.68 2.16-11.43 5.88-15 8.26-3.57 2.38-9.89 7.86-14.03 12.18-4.14 4.32-9.06 10.1-10.94 12.85-1.88 2.75-5.01 8.32-6.97 12.39-1.96 4.06-4.24 7.71-5.06 8.12-0.82 0.4-2.4 0.57-3.5 0.37-1.1-0.2-2.79-1.04-3.75-1.87-1.57-1.35-1.61-1.95-0.43-5.76 0.72-2.34 3.27-7.63 5.65-11.75 2.39-4.13 6.46-10.2 9.05-13.5 2.59-3.3 7.36-8.43 10.6-11.4 3.23-2.97 9.03-7.63 12.88-10.34 3.85-2.72 9.48-6.2 12.5-7.73 3.02-1.54 8.87-3.99 13-5.44 4.12-1.45 10.43-3.29 14-4.09 4.7-1.05 11.2-1.36 23.5-1.11zm-3.75 32.69c3.99-0.04 10.74 0.64 15 1.52 4.26 0.88 10 2.5 12.75 3.6 2.75 1.1 7.92 3.89 11.5 6.21 3.58 2.32 9.6 7.34 13.38 11.15 3.79 3.82 8.49 9.87 10.46 13.44 1.96 3.57 4.6 9.76 5.86 13.75 1.27 3.99 2.31 9.39 2.32 12 0.01 2.61-0.53 5.31-1.2 6-0.67 0.69-2.37 1.27-3.77 1.29-1.4 0.03-3.1-0.53-3.78-1.25-0.67-0.71-1.68-4.1-2.25-7.54-0.56-3.44-1.97-8.61-3.13-11.5-1.15-2.89-3.78-7.73-5.84-10.75-2.06-3.02-6.63-8.12-10.15-11.32-3.52-3.2-9.55-7.36-13.4-9.24-3.85-1.87-9.7-4.09-13-4.93-3.3-0.84-9.15-1.52-13-1.53-3.85 0-9.48 0.47-12.5 1.05-3.02 0.58-8.2 2.2-11.5 3.61-3.3 1.42-7.35 2.77-9 3.03-1.72 0.26-3.55-0.1-4.29-0.86-0.72-0.72-1.28-2.55-1.25-4.06 0.03-2 0.93-3.3 3.29-4.76 1.79-1.1 5.73-2.95 8.75-4.1 3.02-1.14 8.2-2.68 11.5-3.41 3.3-0.73 9.26-1.36 13.25-1.4zm-0.75 30.97c2.48-0.03 7.2 0.64 10.5 1.5 3.3 0.85 8.02 2.74 10.5 4.2 2.48 1.45 6.45 4.47 8.84 6.7 2.38 2.23 5.63 6.75 7.22 10.05 1.59 3.3 3.39 9.15 3.99 13 0.61 3.85 1.7 8.13 2.43 9.5 0.73 1.38 2.39 3.46 3.67 4.63 1.29 1.18 3.81 2.86 5.6 3.75 1.79 0.89 5.27 1.62 7.75 1.62 2.48 0 6.19-0.7 8.25-1.55 2.06-0.86 5.03-2.77 6.59-4.25 1.56-1.49 3.7-4.39 4.75-6.45 1.05-2.06 2.2-5.66 2.55-8 0.35-2.34 1.02-5.04 1.5-6 0.6-1.22 1.84-1.67 4.11-1.5 2.82 0.22 3.58 0.92 5.75 5.33 1.37 2.79 3.45 6.39 4.6 8 1.16 1.61 4.53 4.71 7.5 6.89 2.97 2.18 7.99 4.77 11.15 5.75 3.16 0.98 8.34 1.78 11.5 1.79 3.16 0.01 8-0.64 10.75-1.44 2.75-0.8 7.24-2.94 9.97-4.76 2.73-1.82 6.35-5.11 8.04-7.31 1.69-2.2 3.81-6.02 4.72-8.5 0.9-2.48 1.9-6.19 2.21-8.25 0.4-2.67 1.28-4.11 3.06-5 2.02-1.01 3.03-0.99 5.25 0.08 2.71 1.31 2.74 1.43 2.06 8-0.47 4.51-1.76 8.78-3.97 13.17-1.8 3.58-5.56 8.75-8.35 11.5-2.79 2.75-7.3 6.21-10.03 7.69-2.73 1.48-7.66 3.39-10.96 4.25-3.3 0.86-8.92 1.57-12.5 1.57-3.58 0-9.09-0.68-12.25-1.5-3.16-0.83-8.11-2.71-11-4.17-2.89-1.46-7.5-4.83-15.25-12.32l-3.5 4.69c-1.92 2.58-5.75 6.12-8.5 7.87-2.75 1.75-6.8 3.68-9 4.29-2.2 0.62-6.25 1.13-9 1.14-2.75 0.01-7.02-0.65-9.5-1.46-2.48-0.8-6.92-3.62-9.88-6.26-2.96-2.63-6.28-6.59-7.37-8.79-1.09-2.2-2.61-7.26-3.37-11.25-0.76-3.99-2.22-8.94-3.25-11-1.03-2.06-4.29-5.92-7.25-8.58-3.76-3.37-7.03-5.29-10.88-6.38-3.81-1.08-7.42-1.36-11.75-0.92-5.21 0.52-6.51 0.34-7.84-1.12-0.93-1.03-1.45-2.99-1.25-4.75 0.27-2.41 1.03-3.24 3.84-4.19 1.93-0.66 5.52-1.22 8-1.26zm-123.5 19.11c1.1-0.08 4.93 0.32 8.5 0.89 3.57 0.57 9.31 2.37 12.75 3.99 3.44 1.63 8.78 5.32 17.49 13.46l1.6-2.5c0.87-1.38 3.41-4.21 5.62-6.29 2.22-2.09 6.4-4.68 9.29-5.75 3.23-1.21 7.75-1.96 11.75-1.96 4.01 0 8.51 0.75 11.75 1.96 2.89 1.08 7.05 3.49 9.25 5.36 2.2 1.86 5.19 5.59 6.65 8.29 1.45 2.69 3.21 7.59 3.91 10.89 0.7 3.3 2.06 7.58 3.02 9.5 0.96 1.92 2.59 4.4 3.61 5.5 1.03 1.1 3.43 3.21 5.34 4.69 1.91 1.48 6.17 3.4 9.47 4.27 4.17 1.1 7.98 1.4 12.5 0.96 5.53-0.54 6.77-0.35 8.33 1.23 1.18 1.19 1.66 2.74 1.33 4.35-0.33 1.64-1.65 2.99-3.83 3.92-2.4 1.03-5.83 1.28-12.33 0.92-6.94-0.39-10.37-1.13-15-3.24-3.3-1.51-7.8-4.21-10-6-2.2-1.8-5.42-5.48-7.16-8.18-1.74-2.71-3.68-6.94-4.32-9.42-0.63-2.48-1.77-6.75-2.52-9.5-0.97-3.56-2.54-6.08-5.43-8.75-2.24-2.06-5.19-4.2-6.57-4.75-1.37-0.55-4.98-1-8-1-3.02 0-6.96 0.6-8.75 1.33-1.79 0.73-4.94 3.32-7.01 5.75-2.73 3.21-4.04 5.92-4.78 9.92-0.57 3.02-1.4 6.17-1.85 7-0.48 0.87-2.24 1.5-4.2 1.5-3.08 0-3.59-0.45-5.72-5-1.29-2.75-4.68-7.4-7.52-10.33-2.84-2.93-7.19-6.38-9.67-7.65-2.48-1.28-7.43-2.85-11-3.5-3.57-0.64-8.75-0.87-11.5-0.51-2.75 0.37-7.25 1.66-10 2.88-2.75 1.21-7.19 4.21-9.87 6.66-2.67 2.45-5.88 6.25-7.13 8.45-1.25 2.2-2.78 6.36-3.39 9.25-0.81 3.83-1.78 5.65-3.61 6.75-1.38 0.83-3.29 1.29-4.25 1.04-0.96-0.25-2.28-1.49-2.92-2.75-0.92-1.79-0.85-3.71 0.31-8.79 0.81-3.58 2.69-8.68 4.17-11.35 1.48-2.66 5.17-7.21 8.19-10.1 3.02-2.89 8.09-6.45 11.25-7.9 3.16-1.46 7.71-3.02 10.1-3.47 2.39-0.45 5.65-1.06 7.25-1.35 1.59-0.29 3.8-0.59 4.9-0.67zm-9.68 25.81c0.92-0.02 2.46 0.77 3.4 1.75 1.11 1.15 2.11 4.79 2.82 10.28 0.6 4.67 1.7 11.42 2.46 15 0.75 3.58 2.58 9.88 4.06 14 1.48 4.13 3.93 9.98 5.45 13 1.51 3.02 5.59 9.77 9.06 15 3.64 5.48 10.36 13.53 15.87 19.02 5.26 5.24 13.38 12.06 18.06 15.14 4.68 3.09 11.43 7.08 15 8.86 3.57 1.77 11 4.73 16.5 6.56 5.5 1.84 13.15 3.99 17 4.79 3.85 0.8 11.73 1.75 17.5 2.12 5.95 0.38 15.05 0.2 21-0.43 5.77-0.6 14.33-2.01 19-3.13 4.67-1.12 13-3.8 18.5-5.94 5.5-2.15 14.05-6.45 19-9.55 4.95-3.1 11.7-7.95 15-10.77 3.3-2.82 8.82-8.06 12.27-11.65 3.45-3.58 9.01-10.57 12.37-15.52 3.35-4.95 7.54-11.92 9.31-15.5 1.77-3.58 4.26-9.42 5.54-13 1.28-3.58 3.05-7.3 3.92-8.28 0.87-0.98 2.49-1.79 3.59-1.79 1.1 0 2.9 0.94 4 2.08 1.59 1.66 1.84 2.74 1.21 5.29-0.43 1.76-2.78 7.93-5.21 13.7-2.44 5.77-7.7 15.45-11.69 21.5-4.2 6.37-11.32 15.21-16.9 21-5.31 5.5-13.64 12.86-18.53 16.35-4.88 3.49-13.83 8.75-19.88 11.69-6.05 2.94-14.6 6.5-19 7.91-4.4 1.42-11.15 3.22-15 4.01-3.85 0.79-11.95 1.94-18 2.56-6.05 0.62-15.05 0.84-20 0.49-4.95-0.35-11.7-1.08-15-1.61-3.3-0.54-10.95-2.36-17-4.04-6.05-1.69-15.73-5.3-21.5-8.02-5.77-2.72-14.77-7.81-20-11.32-5.93-3.98-13.27-10.25-19.54-16.7-5.52-5.67-12.11-13.24-14.64-16.82-2.54-3.58-6.89-10.77-9.68-16-2.79-5.23-6.45-13.55-8.14-18.5-1.68-4.95-3.74-11.92-4.57-15.5-0.84-3.58-1.79-10.55-2.12-15.5-0.52-7.7-0.36-9.25 1.11-10.75 0.95-0.96 2.48-1.76 3.4-1.78zm35.33 0.03c1.02 0 2.67 0.79 3.68 1.75 1.07 1.03 2.14 4.02 2.57 7.25 0.41 3.02 1.84 9.66 3.17 14.75 1.34 5.09 3.84 12.06 5.56 15.5 1.72 3.44 5.43 9.58 8.25 13.65 2.82 4.08 8.1 10.15 11.75 13.5 3.64 3.36 10.38 8.35 14.97 11.1 4.59 2.75 12.4 6.51 17.37 8.35 5.39 1.99 13.46 3.98 20.03 4.92 9.21 1.32 12.74 1.38 21.75 0.4 5.91-0.64 14.46-2.35 19-3.79 4.54-1.44 10.95-3.98 14.25-5.64 3.3-1.67 7.58-4.13 9.5-5.47 2.51-1.75 4.28-2.27 6.25-1.85 1.51 0.32 3.31 1.68 4 3.02 1.04 2.04 0.98 2.82-0.37 4.75-0.89 1.27-4.94 4.15-9 6.4-4.06 2.26-10.3 5.27-13.88 6.7-3.58 1.43-9.65 3.34-13.5 4.24-3.85 0.9-11.5 1.98-17 2.4-5.5 0.42-14.05 0.39-19-0.08-4.95-0.47-12.6-1.81-17-2.97-4.4-1.17-12.05-4.01-17-6.31-4.95-2.31-11.59-5.86-14.75-7.88-3.16-2.03-9.63-7.4-14.37-11.94-5.15-4.93-10.99-11.87-14.53-17.25-3.25-4.95-7.3-12.38-9-16.5-1.7-4.13-3.89-10.65-4.86-14.5-0.98-3.85-2.08-10.15-2.45-14-0.56-5.87-0.4-7.28 1.04-8.75 0.94-0.96 2.55-1.75 3.57-1.75zm36.1-0.04c0.69-0.03 2.21 0.76 3.38 1.75 1.52 1.27 2.45 3.81 3.24 8.79 0.62 3.85 2.5 9.92 4.19 13.5 1.69 3.58 4.8 8.75 6.9 11.5 2.1 2.75 6.24 6.88 9.18 9.18 2.95 2.3 8.17 5.56 11.61 7.25 3.44 1.69 9.06 3.74 12.5 4.56 3.44 0.81 9.63 1.48 13.75 1.48 4.12 0 10.31-0.67 13.75-1.48 3.44-0.82 9.29-2.67 13-4.12 5.51-2.14 7.16-2.42 9-1.5 1.58 0.8 2.25 2.02 2.25 4.13 0 1.94-0.8 3.62-2.28 4.75-1.25 0.96-6.76 3.26-12.25 5.11-7.76 2.62-12.18 3.48-19.97 3.87-8.05 0.4-11.76 0.08-19-1.66-4.95-1.18-11.48-3.29-14.5-4.68-3.02-1.4-8.2-4.46-11.5-6.82-3.3-2.36-8.42-6.94-11.37-10.18-2.95-3.24-6.85-8.59-8.67-11.89-1.82-3.3-4.2-8.7-5.29-12-1.1-3.3-2.32-8.48-2.72-11.5-0.64-4.83-0.47-5.77 1.41-7.75 1.18-1.24 2.7-2.27 3.39-2.29z"/>
		<path id="Path 3" class="s1" d="m146.88 88.42c-0.76 1.94-2.39 3.99-3.63 4.56-1.24 0.56-2.93 1.02-3.75 1.02-0.82 0-1.5 0.68-1.5 1.5 0 0.82 0.68 1.73 1.5 2 0.82 0.27 2.29 0.8 3.25 1.16 0.96 0.37 2.19 0.71 2.72 0.75 0.53 0.05 1.32 2 1.75 4.34 0.61 3.32 1.22 4.25 2.78 4.25 1.46 0 2.34-1.08 3.25-4.03 1-3.23 1.9-4.22 4.5-5 2.05-0.61 3.26-1.62 3.27-2.72q0.02-1.75-3.63-2.75c-2.92-0.8-3.87-1.69-4.77-4.49-0.62-1.92-1.85-3.63-2.74-3.8q-1.63-0.31-3 3.21zm-37.72 16.33c-0.49 0.96-1.17 3.32-1.51 5.25-0.33 1.93-1.85 4.73-3.38 6.24-1.56 1.55-4.94 3.29-7.77 4-3.03 0.76-5 1.81-5 2.66 0 0.84 2.57 2.25 6.41 3.5l6.41 2.1c4.01 10.71 5.63 13.99 6.18 14.18 0.55 0.2 1.68-1.32 2.5-3.37 0.82-2.06 2.18-5.1 3-6.75 0.82-1.66 2.63-3.55 4-4.19 1.38-0.64 4.19-1.89 6.25-2.77 2.06-0.88 3.76-1.94 3.78-2.35 0.01-0.41-3.02-1.96-6.75-3.45-5.17-2.05-7.07-3.36-7.98-5.5-0.66-1.54-1.68-4.71-2.25-7.05-0.58-2.34-1.49-4.25-2.02-4.25-0.54 0-1.38 0.79-1.87 1.75zm-29.1 50.5c-1.3 2.98-2.93 4.77-5.46 6-1.98 0.96-3.61 2.09-3.63 2.5-0.02 0.41 1.8 1.65 4.03 2.75 2.23 1.1 4.05 2.56 4.03 3.25-0.02 0.69 0.42 1.25 0.97 1.25 0.55 0 1.23 0.9 1.5 2 0.27 1.1 0.84 2.01 1.25 2.03 0.41 0.02 1.55-1.67 2.52-3.75 1.24-2.63 2.73-4.08 4.94-4.78 1.74-0.55 3.3-1.56 3.47-2.25 0.18-0.69-1.48-2.15-3.68-3.25-3.31-1.65-4.15-2.69-4.86-6-0.47-2.2-1.39-4-2.04-4-0.66 0-2.02 1.91-3.04 4.25zm254.52 129.25c-0.32 0.83-0.57 2.51-0.56 3.75 0.02 1.74-0.91 2.59-4.11 3.75-2.28 0.83-4.32 1.84-4.53 2.25-0.21 0.41 1.64 1.65 4.12 2.75 3.81 1.7 4.61 2.56 5.25 5.66 0.41 2.02 1.31 3.82 2 4 0.69 0.19 1.51-0.89 1.84-2.41 0.33-1.51 0.78-3.54 1-4.5 0.23-0.96 1.65-2.01 3.16-2.33 1.51-0.32 3.33-1.11 4.04-1.75 0.72-0.64 1.28-1.51 1.25-1.92-0.02-0.41-1.84-1.2-4.04-1.75-3.56-0.89-4.11-1.44-5-5-0.58-2.31-1.6-4-2.42-4-0.77 0-1.67 0.67-2 1.5zm61.94 34.15c-0.47 0.37-0.77 1.85-0.67 3.27 0.1 1.42-0.39 3.34-1.08 4.27-0.7 0.92-2.85 2.08-4.77 2.56-1.92 0.48-3.5 1.51-3.5 2.28 0 0.77 1.53 1.86 3.41 2.43 2.31 0.71 3.81 2 4.67 4.04 0.7 1.65 1.53 3.79 1.85 4.75 0.31 0.96 0.91 1.75 1.32 1.75 0.41 0.01 1.87-2.26 3.25-5.04 1.94-3.91 3.23-5.26 5.75-6 1.81-0.54 3.1-1.51 2.91-2.21-0.19-0.69-1.77-1.59-3.5-2-1.74-0.41-3.5-1.31-3.91-2-0.41-0.69-1.2-2.79-1.75-4.66-0.55-1.88-1.48-3.58-2.07-3.78-0.58-0.19-1.45-0.04-1.91 0.34zm-23.5 39.6c-0.64 1.79-1.81 4.6-2.59 6.25-1.1 2.32-2.9 3.56-7.97 5.5-3.6 1.38-6.37 2.95-6.15 3.5 0.21 0.55 2.37 1.63 4.79 2.39 2.42 0.77 5.64 2.23 7.15 3.25 1.92 1.3 3.26 3.59 4.45 7.61 0.93 3.16 1.82 5.98 1.98 6.25 0.15 0.27 0.97-0.17 1.82-1 0.84-0.83 2.09-3.71 2.77-6.41 0.78-3.12 2.15-5.6 3.73-6.77 1.37-1.02 4.65-2.41 7.29-3.09q4.78-1.23 4.5-2.65c-0.16-0.78-2.77-2.23-5.79-3.23-3.02-0.99-6.51-2.72-7.75-3.83-1.24-1.11-2.25-3.14-2.25-4.52 0-1.37-0.45-3.4-1-4.5-0.55-1.1-1.63-2-2.4-2-0.78 0-1.93 1.46-2.58 3.25zm-35.89 33.75c-0.81 2.87-1.77 4.13-3.38 4.46-1.24 0.25-3.15 0.6-4.25 0.76-1.1 0.17-2 0.86-2 1.52 0 0.67 2.01 2.24 4.47 3.49 3.43 1.75 4.64 3.02 5.25 5.52 0.45 1.87 1.42 3.25 2.28 3.25 0.83 0 1.75-1.01 2.05-2.25 0.3-1.24 0.68-3.15 0.84-4.25 0.17-1.1 1.16-2.13 2.2-2.29 1.05-0.16 2.92-0.5 4.16-0.75 1.24-0.25 2.25-1.13 2.25-1.96 0-0.92-1.56-1.89-4-2.5-3.49-0.87-4.16-1.52-5.25-5.02-0.69-2.22-1.75-4.02-2.37-4-0.62 0.01-1.63 1.82-2.25 4.02z"/>
	</g>
</svg>