<svg version="1.2" xmlns="http://www.w3.org/2000/svg" viewBox="0 0 206 206" width="206" height="206">
	<style>
		.s0 { fill: #71323e } 
		.s1 { fill: #ebc462 } 
		.s2 { fill: #f5f6f6 } 
	</style>
	<g id="Background">
	</g>
	<g id="Layer 1">
		<path id="Path 1" class="s0" d="m34.45 16.48c-1.68 0.77-4.04 2.89-5.25 4.71-1.81 2.74-2.19 4.74-2.2 11.56v8.25c7.75 0 10.22-0.45 10.5-1 0.27-0.55 2.19-1.01 4.25-1.03 2.61-0.01 4.43 0.67 5.98 2.25 1.59 1.63 2.23 3.5 2.25 6.53 0.02 3.49-0.47 4.62-2.73 6.3-2.5 1.86-3.54 1.97-11.51 1.25l-8.76-0.8 0.02 15.5c7.36-0.02 10.93-0.58 12.69-1.26 2.54-0.99 3.71-0.99 5.75 0.01 1.41 0.69 3.23 2.83 4.06 4.75 0.96 2.23 1.23 4.47 0.75 6.16-0.41 1.47-1.76 3.49-3 4.5-1.98 1.62-3.31 1.75-11.26 1.09l-9-0.75 0.01 15.5c7.75 0 11.12-0.45 12.5-1 1.77-0.71 3.44-0.63 5.69 0.25 1.96 0.77 3.66 2.41 4.41 4.25 0.67 1.66 0.92 4.3 0.56 5.91-0.36 1.59-1.79 3.74-3.16 4.76-2.2 1.64-3.54 1.77-11.26 1.1l-8.75-0.77 0.01 15.5c8.14-0.68 12.07-1.17 14-1.52 2.69-0.5 4.14-0.16 6.25 1.44 1.55 1.17 2.97 3.39 3.25 5.08 0.27 1.65-0.11 4.24-0.86 5.75-0.75 1.51-2.89 3.38-4.75 4.16-2.62 1.09-3.79 1.15-5.14 0.25-0.96-0.64-4.23-1.16-7.25-1.16h-5.5l0.5 14.5c6.2 0.51 9.57 0.12 11.5-0.54 2.91-0.99 4.05-0.91 6.75 0.43 2.25 1.12 3.56 2.68 4.25 5.11 0.77 2.69 0.65 4.2-0.5 6.5-0.83 1.65-2.4 3.45-3.5 4-1.1 0.55-3.13 1-4.5 1-1.38 0-2.73-0.45-3-1-0.28-0.55-2.98-1-6-1h-5.5c0.45 14.14 0.95 16.46 2.6 18.68 1.15 1.55 3.17 3.38 4.5 4.06 1.83 0.94 17.75 1.23 67.15 1.25 53.08 0.01 65.25-0.24 67.5-1.37 1.51-0.76 3.31-2.56 4-4 0.97-2.03 1.25-21.18 1.25-85.12 0-71.33-0.2-82.91-1.5-85.5-0.82-1.65-2.85-3.67-4.5-4.5-2.58-1.29-12.03-1.49-66.75-1.46-52.56 0.03-64.29 0.28-66.8 1.44zm144.55 90.52c0 43.45 0.34 79.02 0.75 79.03 0.41 0.02 1.99-0.88 3.5-2l2.75-2.03 0.05-149.5c-3.53-3.45-5.11-4.47-5.8-4.48-0.99-0.02-1.25 16.44-1.25 78.98zm-150.25-62.27l-12.75 0.27v6h28c-0.39-4.92-0.95-6.39-1.5-6.44-0.55-0.06-6.74 0.02-13.75 0.17zm-12.34 30.52c-0.3 0.69-0.4 2.15-0.22 3.25 0.31 1.87 1.21 2.02 14.07 2.25 12.35 0.22 13.79 0.07 14.27-1.5 0.28-0.96 0.28-2.54 0-3.5-0.47-1.55-2.04-1.75-14.05-1.75-9.87 0-13.68 0.34-14.07 1.25zm-0.3 30.5c-0.57 1.07-0.58 2.43-0.03 3.5 0.81 1.54 2.58 1.75 14.42 1.75 9.91 0 13.61-0.33 13.92-1.25 0.24-0.69 0.24-2.26 0-3.5-0.41-2.2-0.71-2.25-13.89-2.25-11.81 0-13.59 0.22-14.42 1.75zm11.89 28.01c-7.62 0.22-11.72 0.74-12.14 1.54-0.36 0.66-0.47 1.99-0.25 2.95 0.35 1.56 1.87 1.75 14.39 1.75 11.56 0 14.09-0.26 14.5-1.5 0.27-0.82 0.05-2.4-0.5-3.5-0.55-1.1-1.79-1.9-2.75-1.79-0.96 0.12-6.93 0.37-13.25 0.55zm-11.59 30.49c-0.3 0.69-0.4 2.15-0.21 3.25 0.31 1.88 1.11 2 13.67 2 11.69 0 13.44-0.22 14.23-1.75 0.5-0.96 0.67-2.43 0.4-3.25-0.41-1.23-2.89-1.5-14.02-1.5-9.87 0-13.68 0.34-14.07 1.25z"/>
		<path id="Path 2" class="s1" d="m178.23 31c0 1.92 0.21 2.83 0.46 2 0.25-0.83 0.25-2.4 0-3.5-0.25-1.1-0.46-0.42-0.46 1.5zm8.24 76c0 40.43 0.13 56.85 0.28 36.5 0.15-20.35 0.15-53.42 0-73.5-0.15-20.08-0.28-3.42-0.28 37zm-148.92-67c-0.31 0.56-4.68 1-9.85 1-6.12 0-9.72 0.43-10.52 1.25-0.67 0.69-1.21 1.59-1.2 2 0.01 0.41 5.64 0.75 12.52 0.75 6.87 0 12.52-0.34 12.54-0.75 0.03-0.41-0.65-1.31-1.5-2-0.84-0.69-1.33-1.7-1.08-2.25 0.26-0.55 0.28-1 0.05-1-0.23 0-0.66 0.45-0.96 1zm-20.27 12.74c1.38 1.36 4.04 1.87 11.66 2.26 6.43 0.33 9.68 0.15 9.32-0.5-0.31-0.55 0.29-1.57 1.34-2.27 1.58-1.05-0.28-1.26-11.1-1.26-12.42 0.01-12.92 0.08-11.22 1.77zm0.12 19.27c-1.05 1.1-1.68 2.11-1.4 2.25 0.27 0.13 6.57-0.01 14-0.3 7.42-0.3 12.49-0.64 11.25-0.75-1.24-0.12-2.48-0.88-2.75-1.71-0.4-1.19-2.43-1.5-9.85-1.5-8.07 0-9.62 0.28-11.25 2.01zm-2.28 5.49c-0.04 1.1 0.7 2.99 1.65 4.2 1.49 1.9 3.14 2.31 11.96 3 10.19 0.8 10.23 0.79 9.91-1.42-0.31-2.11-0.83-2.23-11.19-2.5-10.63-0.27-10.88-0.33-11.56-2.78-0.55-1.99-0.71-2.09-0.77-0.5zm7.74 23.44c-2.71 0.4-5.32 1.49-6.27 2.62-0.89 1.07-1.6 2.39-1.58 2.94 0.03 0.55 0.44 0.21 0.91-0.75 0.75-1.53 2.57-1.77 14.22-1.89 7.35-0.07 12.35-0.3 11.11-0.5-1.24-0.2-2.48-1.03-2.75-1.86-0.37-1.1-1.89-1.46-5.75-1.37-2.89 0.08-7.34 0.44-9.89 0.81zm-5.99 10.96c0.35 0.77 1.64 1.79 2.88 2.25 1.24 0.47 5.85 0.85 10.25 0.85 7.33 0 8-0.17 8-2 0-1.86-0.75-2.02-10.88-2.25-9.02-0.21-10.76-0.01-10.25 1.15zm11.13 18.03c-5.23 0.31-10.06 0.91-10.75 1.32-0.69 0.41-1.25 1.2-1.25 1.75 0 0.61 4.5 1 11.5 1h11.5c0-3.88-0.34-4.92-0.75-4.82-0.41 0.1-5.03 0.43-10.25 0.75zm-10.71 11.81c1.45 1.44 3.56 1.76 11.47 1.76 8.46 0 9.73-0.22 9.97-1.75 0.24-1.58-0.86-1.75-11.48-1.76-11.23-0.01-11.67 0.06-9.96 1.75zm8.14 17.09c-1.06 0.18-3.64 0.75-5.73 1.28-2.09 0.53-3.77 1.51-3.75 2.18 0.04 0.91 3.48 1.11 13.8 0.79 7.56-0.22 12.74-0.56 11.5-0.75-1.24-0.18-2.3-0.89-2.37-1.58-0.06-0.69-0.1-1.47-0.08-1.75 0.02-0.28-2.55-0.5-5.7-0.5-3.16 0-6.61 0.15-7.67 0.33zm-8.33 12.42c0.76 1.49 2.36 1.75 10.65 1.73 6.59-0.01 10.14 0.4 10.96 1.25 0.95 1 1.11 0.69 0.75-1.48l-0.46-2.75c-21.99-0.48-22.74-0.37-21.9 1.25zm161.09 11.25c0.03 1.9 0.21 2.27 0.49 1 0.24-1.1 0.23-2.45-0.04-3-0.26-0.55-0.47 0.35-0.45 2z"/>
		<path id="Path 3" class="s2" d="m38.66 39.75c-0.36 0.41 0.12 1.55 1.09 2.53 0.96 0.98 2.31 1.77 3 1.75 0.69-0.02 1.49 0.76 1.78 1.72 0.28 0.96 0.28 2.42 0 3.25-0.29 0.83-1.88 2.06-3.53 2.75-1.65 0.69-2.85 1.81-2.67 2.5 0.18 0.69 1.75 1.36 3.5 1.5 2.27 0.18 3.88-0.46 5.67-2.25 1.71-1.71 2.5-3.6 2.5-6 0-2.4-0.79-4.29-2.5-6-1.49-1.49-3.64-2.5-5.33-2.5-1.56 0-3.14 0.34-3.51 0.75zm0.34 29.14c-0.94 0.58-1.22 1.53-0.75 2.52 0.41 0.88 1.54 1.57 2.5 1.55 0.96-0.03 2.31 0.65 3 1.5 0.69 0.84 1.03 2.66 0.75 4.04-0.4 2-1.1 2.5-3.5 2.5-1.72 0-3.01 0.53-3.02 1.25-0.01 0.69 0.56 1.82 1.25 2.52 0.7 0.69 2.17 1.27 3.27 1.28 1.1 0.01 3.24-1.12 4.75-2.52 2.04-1.87 2.76-3.5 2.79-6.28 0.03-2.16-0.72-4.7-1.75-6-0.98-1.23-3.14-2.48-4.79-2.77-1.65-0.3-3.67-0.11-4.5 0.41zm-0.83 31.86c0.19 0.96 1.36 1.86 2.59 2 1.23 0.14 2.75 1.26 3.37 2.5 0.62 1.24 0.84 3.04 0.5 4-0.41 1.14-1.68 1.75-3.63 1.75-2.33 0-3 0.44-3 2 0 1.1 0.79 2.24 1.75 2.54 0.96 0.29 3.06 0.18 4.65-0.25 1.6-0.44 3.52-1.69 4.26-2.79 0.75-1.1 1.37-3.35 1.38-5 0.02-1.65-0.89-4.24-2.01-5.75-1.64-2.22-2.82-2.75-6.12-2.75-3.36 0-4.03 0.31-3.74 1.75zm0.98 29.62c-0.11 2 0.36 2.69 2 2.88 1.18 0.14 2.64 1.04 3.25 2 0.81 1.28 0.79 2.22-0.04 3.5-0.63 0.96-2.09 1.64-3.25 1.5-1.32-0.16-2.27 0.41-2.54 1.5-0.23 0.96-0.12 2.1 0.25 2.53 0.38 0.43 2.03 0.77 3.68 0.77 1.8 0 3.89-0.91 5.23-2.27 1.41-1.44 2.25-3.57 2.29-5.78 0.04-1.94-0.74-4.52-1.73-5.78-1-1.28-3.37-2.55-5.39-2.88-3.34-0.56-3.6-0.42-3.75 2.03zm0.98 27.76c-1.28 0.52-1.93 1.47-1.63 2.37 0.28 0.82 1.47 1.61 2.65 1.75 1.18 0.14 2.64 1.04 3.25 2 0.8 1.27 0.8 2.23 0 3.5-0.61 0.96-2.07 1.86-3.25 2-1.58 0.18-2.08 0.85-1.9 2.5 0.17 1.56 1.01 2.35 2.75 2.57 1.69 0.21 3.4-0.59 5.29-2.5 1.99-2.02 2.78-3.82 2.77-6.32 0-2.35-0.76-4.19-2.28-5.6-1.26-1.16-3.01-2.33-3.9-2.62-0.9-0.28-2.58-0.13-3.75 0.35z"/>
		<path id="Path 4" class="s1" d="m69.69 38.75c-0.98 0.14-1.58 0.99-1.43 2 0.25 1.63 3.04 1.77 40 2 39.16 0.25 39.74 0.22 39.74-1.75 0-1.1-0.56-2.02-1.25-2.05-0.69-0.03-17.92-0.14-38.31-0.25-20.38-0.11-37.81-0.09-38.75 0.05zm-1.2 19.74c-0.27 0.83-0.27 1.96 0.01 2.51 0.32 0.64 14.67 1 40 1h39.5l-0.5-4.5c-73.57-0.49-78.59-0.33-79.01 0.99zm-0.31 19.75l0.32 2.26c78.33 0 79-0.03 79-2 0-1.96-0.75-2-39.82-2.26l-39.82-0.26zm0.3 17.26c-0.26 0.82-0.25 1.95 0.02 2.5 0.31 0.61 7.5 1 18.5 1 13.55 0 18.09-0.31 18.35-1.25 0.2-0.69 0.2-1.81 0-2.5-0.26-0.94-4.81-1.25-18.37-1.25-15.15 0-18.1 0.24-18.5 1.5zm30.08 25.75c-4.46 4.52-8.39 9.7-10.44 13.75-2.84 5.62-3.24 7.32-2.95 12.56 0.24 4.46 0.99 7.02 2.83 9.68 1.38 2 4.53 5 7 6.67 2.48 1.68 5.97 3.39 7.77 3.82l3.28 0.77c-0.03-8.67-0.48-9.45-6.05-15-3.31-3.3-6.02-6.68-6.02-7.5 0-0.86 2.25 0.74 5.26 3.74 2.89 2.88 5.6 5.24 6.01 5.25 0.41 0 0.75-2.69 0.75-5.99 0-5.73-0.2-6.22-4.46-10.75-2.46-2.61-4.49-5.31-4.5-6-0.02-0.69 0.3-1.25 0.71-1.24 0.41 0.01 2.45 1.7 4.52 3.75l3.76 3.74c-0.02-9.87 0.33-11.41 1.22-11.17 0.75 0.19 1.45 2.71 1.75 6.25l0.5 5.92c5.43-6.63 7.34-8.55 7.75-8.53 0.41 0.02 0.75 0.48 0.75 1.03 0 0.55-2.03 3.36-4.5 6.25-4.34 5.05-4.51 5.49-4.51 11.75l-0.01 6.5c9.14-9.3 12.04-11.55 12.35-11 0.3 0.55-2.35 4.15-5.9 8-5.82 6.32-6.44 7.41-6.43 11.25 0 3.11-0.4 4.25-1.5 4.25-1.08 0-1.5 1.11-1.5 4 0 2.71 0.41 3.89 1.25 3.67 0.69-0.18 1.48-2.02 1.75-4.1 0.43-3.24 0.99-3.94 4-4.95 1.93-0.65 5.66-2.74 8.31-4.65 2.77-2 5.62-5.16 6.73-7.47 1.17-2.43 1.94-6.16 1.96-9.5 0.02-3.84-0.71-7.01-2.41-10.5-1.34-2.75-4.61-7.44-7.27-10.43-2.65-2.98-6.62-6.71-8.82-8.28-2.2-1.56-4.4-2.84-4.89-2.82-0.49 0.02-4.11 3.29-8.05 7.28z"/>
	</g>
</svg>