<svg version="1.2" xmlns="http://www.w3.org/2000/svg" viewBox="0 0 521 412" width="521" height="412">
	<style>
		.s0 { opacity: .97;fill: #d2b263 } 
	</style>
	<path id="Path 0" fill-rule="evenodd" class="s0" d="m459.5 5.32c5.98 0.46 7.4 0.95 12.54 6.18l-0.02 18.75c-0.02 17.17 0.13 18.76 1.73 18.82 0.96 0.04 9.29 0.04 35.25-0.07l2.75 2.79c1.51 1.54 3.09 4.35 3.51 6.25 0.42 1.91 0.76 72.42 0.74 309.96l-3 3c-2.5 2.5-3.79 3-7.75 2.98-2.61 0-13.3 0.01-23.75 0.04-10.45 0.03-50.05 0.1-88 0.15-37.95 0.05-70.58 0.01-72.5-0.08-1.92-0.1-4.85 0.07-6.5 0.36-2.14 0.38-3.57 1.57-5 4.19-1.1 2.01-5.37 6.81-9.5 10.67-5.78 5.41-9.79 8.11-17.5 11.76-5.81 2.75-12.73 5.19-16.5 5.83-3.58 0.61-10.33 0.87-15 0.59-5.45-0.33-11.2-1.45-16-3.13-4.12-1.43-8.62-3.31-10-4.16-1.37-0.85-4.75-2.99-7.5-4.75-2.75-1.76-7.81-6.18-11.25-9.82-3.44-3.65-6.25-7.3-6.25-8.13 0-0.83-0.9-1.95-2-2.5-1.29-0.65-34.52-0.99-93.75-0.97-90.65 0.03-91.78 0-94.5-2-1.52-1.12-3.22-3.71-3.8-5.78-0.73-2.57-0.96-52.04-0.45-311.41l3-2.78c3-2.77 3.01-2.77 18.75-2.92 8.66-0.08 16.88-0.36 20.75-1.14v-36l6-6 16.25 0.5c8.94 0.27 16.93 0.69 17.75 0.92 0.82 0.23 5.55 0.7 10.5 1.04 4.95 0.35 10.35 0.81 12 1.04 1.65 0.22 9.98 1.79 18.5 3.49 8.52 1.69 18.2 3.78 21.5 4.65 3.3 0.86 8.93 2.48 12.5 3.6 3.57 1.11 6.95 2.41 7.5 2.89 0.55 0.47 1.23 0.62 1.5 0.33 0.27-0.29 2.07 0.13 4 0.93 1.93 0.8 6.2 2.47 9.5 3.71 3.3 1.25 10.27 4.26 15.5 6.7 5.23 2.44 14.23 7.27 20 10.73 5.77 3.46 13.2 8.37 16.5 10.92 3.3 2.54 8.58 7.2 17.47 16.05l3.26-2.63c1.8-1.45 4.62-3.89 6.27-5.42 1.65-1.53 5.92-5.09 9.5-7.91 3.58-2.82 10.1-7.39 14.5-10.17 4.4-2.77 10.25-6.2 13-7.61 2.75-1.41 7.02-3.45 9.5-4.53 2.48-1.08 6.52-2.88 9-3.99 2.48-1.12 11.25-4.3 19.5-7.07 8.25-2.78 21.08-6.43 28.5-8.12 7.42-1.69 15.75-3.58 18.5-4.2 2.75-0.62 10.17-1.7 16.5-2.39 6.33-0.7 12.63-1.53 14-1.86 1.38-0.33 9.7-0.89 18.5-1.24 8.8-0.35 16.23-0.84 16.5-1.1 0.27-0.26 3.65-0.23 7.5 0.06zm-36.33 19.39c-3.12 0.11-10.17 0.86-15.67 1.66-5.5 0.8-12.25 1.76-15 2.12-2.75 0.37-8.37 1.33-12.5 2.14-4.12 0.81-9.98 2.16-13 3-3.02 0.84-10 2.88-15.5 4.55-5.5 1.66-16.3 5.51-24 8.56-7.7 3.04-16.92 7.11-20.5 9.03-3.58 1.93-7.74 4.34-9.25 5.37-1.51 1.02-2.98 1.86-3.25 1.86-0.27 0-2.86 1.62-5.75 3.59-2.89 1.97-8.21 6.14-11.83 9.25-3.62 3.11-8.12 7.88-10 10.59l-3.42 4.93c-0.09 44.28-0.43 57.7-0.81 58.39-0.38 0.69-0.35 1.43 0.06 1.65 0.41 0.23 0.61 15.19 0.44 33.25-0.17 18.07-0.3 33.53-0.3 34.35 0 0.83 0.02 27.83 0.04 60 0.02 32.17 0.05 59.4 0.06 60.5 0.02 1.1 0.03 3.24 0.02 4.75 0 1.51 0.44 3.65 0.99 4.75 0.97 1.93 1.26 1.87 8.75-1.93 4.26-2.15 10.45-5.12 13.75-6.58 3.3-1.47 8.25-3.49 11-4.5 2.75-1 9.5-3.46 15-5.45 5.5-1.99 11.35-4.24 13-5 1.65-0.76 10.88-3.72 20.5-6.58 9.63-2.85 19.3-5.5 21.5-5.87 2.2-0.38 4.67-1.08 5.5-1.56 0.83-0.48 4.42-1.52 8-2.3 3.58-0.79 8.3-1.78 10.5-2.22 2.2-0.43 6.48-1.3 9.5-1.92 3.02-0.62 11.35-1.99 18.5-3.05 7.15-1.06 17.5-2.22 23-2.57 5.5-0.36 10.56-0.94 11.24-1.31 0.96-0.51 1.23-8.54 1.19-34.66-0.03-18.7-0.07-35.12-0.08-36.5 0-1.37-0.01-13.07-0.02-26 0-12.92 0-24.4 0-25.5 0-1.1 0-16.85-0.01-35 0-18.15 0.02-33.45 0.05-34 0.02-0.55 0.04-12.7 0.04-27-0.01-14.3 0-32.07 0.02-39.5 0.02-7.42-0.18-14.29-0.45-15.25-0.43-1.56-1.78-1.72-12.55-1.5-6.64 0.14-12.3 0.48-12.58 0.75-0.29 0.28-3.07 0.59-6.18 0.71zm-357.69 136.54c0.27 74.94 0.61 136.37 0.75 136.51 0.15 0.15 7.47 1.1 16.27 2.13 8.8 1.03 18.7 2.42 22 3.09 3.3 0.68 11.85 2.54 19 4.15 7.15 1.61 15.25 3.55 18 4.33 2.75 0.78 8.38 2.36 12.5 3.51 4.12 1.16 11.1 3.27 15.5 4.69 4.4 1.42 8.45 2.99 9 3.48 0.55 0.49 1.79 0.89 2.75 0.88 0.96-0.01 8.84 2.86 17.5 6.38 8.66 3.52 17.55 7.15 19.75 8.07 2.2 0.92 8.17 3.77 13.27 6.35 5.1 2.57 10.27 5.22 11.5 5.88 1.23 0.66 2.33 1.11 2.46 1 0.13-0.11 0.24-22.92 0.25-50.7 0.02-27.77 0.01-66.47-0.01-86-0.02-19.52-0.05-51.92-0.07-72-0.03-20.07-0.13-40.64-0.22-45.71l-0.18-9.21c-6.98-7.2-14.06-13.07-20.25-17.68-6.19-4.62-11.48-8.4-11.75-8.4-0.27 0-1.74-0.86-3.25-1.91-1.51-1.05-7.48-4.26-13.25-7.13-5.77-2.86-15.23-7.1-21-9.4-5.77-2.3-12.65-4.83-15.28-5.62-2.63-0.79-4.77-1.78-4.75-2.19 0.02-0.41-1.66-0.76-3.72-0.77-2.06-0.01-5.55-0.51-7.75-1.11-2.2-0.6-4.9-1.45-6-1.9-1.1-0.44-8.07-1.73-15.5-2.86-7.43-1.13-18.68-2.5-25-3.05-6.32-0.55-16.03-1.25-21.56-1.56-5.53-0.31-10.37-0.32-10.75-0.03-0.38 0.29-0.48 61.85-0.21 136.78zm-42.48-94.25c-0.08 12.01-0.1 74.9-0.09 147.5 0 72.6 0.03 134.25 0.05 137l0.04 5c150.69 0 182.07 0.35 183.43 1.03 1.14 0.56 3.52 3.49 5.29 6.5 1.77 3.01 5.59 7.88 8.5 10.82 2.9 2.95 7.53 6.62 10.28 8.18 2.75 1.55 7.02 3.52 9.5 4.38 2.79 0.97 7.91 1.56 13.5 1.55 6.87 0 10.54-0.55 15.5-2.32 3.58-1.28 8.38-3.41 10.68-4.73 2.3-1.33 5.67-3.8 7.5-5.51 1.83-1.7 4.56-4.51 6.07-6.25 1.51-1.73 2.75-3.82 2.75-4.65 0-0.82 1.69-3.26 3.75-5.42l3.75-3.92c149.34 0.26 193.11 0.12 193.61-0.16 0.56-0.3 0.92-57.52 0.9-144.5-0.02-79.2-0.14-144.13-0.27-144.29-0.13-0.16-5.64-0.25-12.24-0.2-6.6 0.05-12.23 0.33-12.5 0.62-0.28 0.3-0.5 54.68-0.5 120.85 0 118.91-0.02 120.34-2 122.52-1.1 1.21-3.13 2.78-4.5 3.49-1.38 0.7-6.78 1.57-12 1.93-5.23 0.36-11.98 0.89-15 1.17-3.03 0.28-7.53 0.72-10 0.97-2.48 0.25-7.2 0.85-10.5 1.34-3.3 0.48-10.73 1.87-16.5 3.07-5.78 1.2-11.85 2.35-13.5 2.55-1.65 0.2-4.35 0.81-6 1.35-1.65 0.55-5.48 1.54-8.5 2.2-3.03 0.67-15.17 4.27-27 8-11.83 3.72-23.3 7.44-25.5 8.26-2.2 0.81-6.7 2.69-10 4.18-3.3 1.48-10.73 4.62-16.5 6.97-5.78 2.35-16.58 7.21-24 10.79-7.42 3.59-14.4 6.81-15.5 7.16-1.12 0.36-4.42-0.29-7.5-1.47-3.03-1.15-9.33-4.2-14-6.77-4.67-2.56-15.7-7.97-24.5-12.02-8.8-4.05-19.83-8.86-24.5-10.68-4.68-1.81-14.8-5.33-22.5-7.81-7.7-2.48-17.83-5.46-22.5-6.63-4.68-1.17-9.18-2.4-10-2.73-0.83-0.33-2.18-0.71-3-0.84-0.83-0.14-8.48-1.64-17-3.34-8.53-1.7-19.33-3.57-24-4.17-4.68-0.6-13-1.32-18.5-1.6-5.5-0.28-11.46-1.15-13.25-1.94-1.79-0.79-3.93-2.78-4.75-4.43-1.31-2.62-1.5-18.27-1.48-122.75 0.02-65.86-0.24-119.97-0.58-120.25-0.33-0.27-4.51-0.5-9.27-0.5-4.77 0-10.13 0.11-11.92 0.25zm390.25 13.08c1.79-0.05 3.79 0.96 5.75 2.92 1.65 1.65 3 3.9 3 5 0 1.1-0.79 3.35-1.75 4.99-1.47 2.51-2.81 3.23-8.25 4.4-3.58 0.77-9.65 1.95-13.5 2.61-3.85 0.67-9.03 1.79-11.5 2.49-2.48 0.71-8.1 2.05-12.5 2.98-4.4 0.92-10.48 2.51-13.5 3.51-3.03 1.01-8.88 2.82-13 4.02-4.13 1.2-11.1 3.54-15.5 5.19-4.4 1.66-10.03 3.93-12.5 5.05-2.48 1.12-6.41 2.88-8.75 3.9-2.34 1.02-5.49 1.87-7 1.87-1.54 0.01-4.21-1.2-6.09-2.75-3.12-2.58-3.29-3.02-2.54-6.76 0.6-3.02 1.73-4.67 4.64-6.75 2.11-1.51 4.49-2.75 5.29-2.75 0.8 0 2.91-0.63 4.7-1.41 1.79-0.77 5.95-2.55 9.25-3.95 3.3-1.4 11.62-4.34 18.5-6.54 6.87-2.19 18.58-5.54 26-7.43 7.42-1.9 18-4.41 23.5-5.58 5.5-1.17 12.47-2.62 15.5-3.22 3.02-0.6 5.95-1.23 6.5-1.4 0.55-0.17 2.24-0.35 3.75-0.39zm-303.75 2.57c2.75 0.32 5.79 0.98 6.75 1.47 0.96 0.48 2.76 0.88 4 0.88 1.24 0 9.45 1.81 18.25 4.02 8.8 2.22 17.12 4.42 18.5 4.89 1.37 0.47 4.52 1.42 7 2.11 2.47 0.69 7.87 2.36 12 3.72 4.12 1.37 11.55 4.17 16.5 6.25 4.95 2.07 12.53 5.28 16.85 7.14 4.32 1.85 9.27 4.56 11 6.01 2.46 2.06 3.15 3.43 3.15 6.22q0 3.58-2.26 5.84c-1.56 1.57-3.39 2.24-6 2.2-2.31-0.03-6.98-1.66-12.24-4.28-4.68-2.33-9.18-4.6-10-5.04-0.83-0.45-3.08-1.37-5-2.05-1.93-0.68-11.38-3.91-21-7.18-9.63-3.27-20.88-6.64-25-7.47-4.13-0.84-8.85-2.18-10.5-2.97-1.65-0.8-4.58-1.44-6.5-1.43-1.93 0.01-5.08-0.44-7-1-1.93-0.56-5.75-1.28-8.5-1.6-2.75-0.32-5.9-1.06-7-1.66-1.1-0.59-2.77-2.01-3.72-3.15-0.94-1.14-1.73-3.19-1.75-4.57-0.03-1.37 0.68-3.54 1.56-4.82 0.89-1.28 2.58-2.73 3.76-3.22 1.18-0.49 4.4-0.63 7.15-0.31zm304.5 63.41c3.11-0.1 4.96 0.37 6 1.54 0.83 0.93 1.99 2.86 2.59 4.3 0.86 2.04 0.75 3.31-0.5 5.88-1.01 2.07-2.69 3.61-4.59 4.19-1.65 0.5-8.4 2.09-15 3.53-6.6 1.44-14.48 3.31-17.5 4.15-3.03 0.85-7.75 2.17-10.5 2.94-2.75 0.78-8.6 2.53-13 3.9-4.4 1.36-12.5 4.08-18 6.03-5.5 1.94-12.36 4.65-15.25 6.01-2.89 1.36-5.59 2.48-6 2.49-0.41 0.02-2.55 0.87-4.75 1.9-2.2 1.02-5.8 2.64-8 3.58-2.69 1.15-4.98 1.48-7 0.99-1.65-0.4-3.77-1.68-4.72-2.86-0.94-1.17-1.71-3.48-1.71-5.13-0.01-1.65 0.54-3.74 1.21-4.64 0.67-0.9 4.82-3.31 9.22-5.35 4.4-2.04 9.12-4.31 10.5-5.03 1.37-0.73 7.9-3.34 14.5-5.81 6.6-2.46 16.05-5.69 21-7.16 4.95-1.48 9.9-3.07 11-3.54 1.1-0.47 4.92-1.53 8.5-2.37 3.58-0.84 8.97-2.24 12-3.12 3.02-0.87 8.42-2.22 12-2.99 3.58-0.77 8.08-1.82 10-2.34 1.92-0.52 5.52-1.01 8-1.09zm-308 2.93c1.37-0.01 6.32 0.69 11 1.55 4.67 0.86 11.42 2.23 15 3.04 3.57 0.81 9.87 2.41 14 3.56 4.12 1.15 12.45 3.66 18.5 5.57 6.05 1.92 16.4 5.73 23 8.48 6.6 2.74 15.26 6.52 19.25 8.4 3.99 1.87 7.59 3.39 8 3.38 0.41-0.02 1.99 1.1 3.5 2.5 2.04 1.88 2.76 3.5 2.78 6.28 0.02 2.31-0.65 4.43-1.75 5.51-0.98 0.97-3.58 2.03-5.78 2.35-3.41 0.49-5.33-0.1-13-3.99-4.95-2.52-9.56-4.58-10.25-4.6-0.69-0.01-1.25-0.47-1.25-1.02 0-0.55-0.68-1-1.5-1-0.83 0-5.21-1.39-9.75-3.08-4.54-1.69-9.15-3.47-10.25-3.95-1.1-0.47-6.73-2.27-12.5-4-5.78-1.72-11.4-3.51-12.5-3.98-1.1-0.47-3.35-1.05-5-1.28-1.65-0.24-9.98-1.89-18.5-3.68-12.86-2.69-15.97-3.69-18.27-5.89-1.75-1.67-2.84-3.82-2.97-5.85-0.14-2.46 0.51-3.81 2.77-5.75 1.63-1.4 4.09-2.55 5.47-2.55zm312 64.77c1.37 0.27 3.62 1.56 5 2.88 1.56 1.5 2.5 3.52 2.5 5.36 0 1.83-0.95 3.9-2.5 5.42-1.95 1.93-5.57 3.16-16.5 5.62-7.7 1.73-15.58 3.51-17.5 3.96-1.92 0.44-6.2 1.58-9.5 2.52-3.3 0.94-7.58 2.08-9.5 2.53-1.92 0.45-5.53 1.31-8 1.9-2.48 0.6-5.4 1.51-6.5 2.04-1.1 0.52-4.92 1.9-8.5 3.07-3.58 1.16-7.85 2.72-9.5 3.46-1.65 0.73-5.25 2.09-8 3.02-2.75 0.92-7.7 3.02-11 4.65-3.3 1.64-7.8 3.61-10 4.38-2.2 0.77-5.24 1.41-6.75 1.42-1.84 0.01-3.57-0.98-5.25-2.99-1.38-1.65-2.48-4.24-2.46-5.75 0.03-1.8 1.18-3.79 3.31-5.75 1.81-1.65 5.95-4.06 9.21-5.35 3.27-1.3 7.29-2.95 8.94-3.67 1.65-0.73 9.08-3.55 16.5-6.27 7.42-2.72 19.12-6.59 26-8.59 6.87-2.01 17.67-5.03 24-6.72 6.33-1.68 13.52-3.46 16-3.93 2.47-0.48 7.42-1.51 11-2.28 3.58-0.77 7.62-1.19 9-0.93zm-310.5 0.79c1.1 0.23 6.5 1.34 12 2.46 5.5 1.12 12.25 2.66 15 3.42 2.75 0.76 10.85 3.02 18 5.04 7.15 2.01 19.3 5.94 27 8.74 7.7 2.79 17.15 6.52 21 8.29 3.85 1.76 10.49 4.84 14.75 6.85 6.93 3.27 7.87 4.04 8.92 7.4 0.98 3.15 0.9 4.19-0.5 6.5-0.92 1.51-2.68 3.26-3.92 3.89-1.82 0.93-3.21 0.75-7.25-0.91-2.75-1.13-9.28-3.93-14.5-6.23-5.23-2.3-10.96-4.82-12.75-5.59-1.79-0.78-3.7-1.41-4.25-1.41-0.55 0-1-0.45-1-1 0-0.55-1.46-1.18-3.25-1.39-1.79-0.22-5.28-1.17-7.75-2.11-2.48-0.93-11.93-3.86-21-6.49-9.08-2.63-19.2-5.33-22.5-6-3.3-0.66-8.93-1.85-12.5-2.64-3.58-0.79-7.51-1.64-8.75-1.9-1.24-0.26-3.16-1.48-4.27-2.72-1.11-1.24-2.01-3.49-2-5 0.01-1.51 0.47-3.65 1.02-4.75 0.55-1.1 2.24-2.65 3.75-3.43 1.51-0.79 3.65-1.25 4.75-1.02z"/>
</svg>