<svg version="1.2" xmlns="http://www.w3.org/2000/svg" viewBox="0 0 386 455" width="386" height="455">
	<style>
		.s0 { opacity: .98;fill: #d2b162 } 
	</style>
	<path id="Path 0" fill-rule="evenodd" class="s0" d="m194.09 8c1.05 0 3.68 1.91 5.85 4.25 2.17 2.34 5.43 6.24 7.25 8.67 1.82 2.44 4.52 6.04 6.01 8 1.48 1.97 6.81 9.65 11.85 17.08 5.07 7.48 12.82 20.86 17.36 30 4.51 9.07 9.38 20.32 10.83 25 1.45 4.68 3.43 12.1 4.39 16.5 1.17 5.37 1.77 12.61 1.81 22 0.05 11.55-0.35 15.58-2.27 23-1.28 4.95-4.05 12.6-6.15 17-2.11 4.4-6.95 12.05-10.76 17-3.81 4.95-10.49 12.28-14.84 16.29-4.36 4.02-11.52 9.76-23.92 18.23l0.18 36.24c0.1 19.93 0.21 38.83 0.32 47.74l7.25-8.16c3.99-4.49 7.84-8.42 8.55-8.75 0.73-0.33 2.59 0.83 4.25 2.66 1.78 1.96 3.45 2.97 4.2 2.54 0.69-0.39 5.75-4.46 11.25-9.06 5.5-4.6 10.9-9.14 12-10.09 1.1-0.95 7.17-5.75 13.5-10.66 6.33-4.91 11.95-9.42 12.5-10.02 0.55-0.6 5.5-4.66 11-9.03 5.5-4.36 11.92-9.73 14.28-11.93 2.35-2.2 4.27-4.56 4.25-5.25-0.02-0.69-1.13-1.81-2.48-2.5-2.17-1.11-2.86-0.93-6.25 1.68-2.09 1.61-5.42 4.31-7.41 6-1.98 1.69-7.6 6.22-12.5 10.06-4.89 3.85-9.12 7.24-9.39 7.55-0.27 0.3-6.35 5.22-13.5 10.93-7.15 5.7-17.16 13.89-22.25 18.2-5.09 4.31-10.15 7.83-11.25 7.83-1.63 0-2.12-0.88-2.65-4.75-0.35-2.61-0.37-10.15-0.03-16.75 0.33-6.6 1.31-15.38 2.16-19.5 0.86-4.13 2.44-10.2 3.52-13.5 1.07-3.3 4.27-9.82 7.11-14.5 2.84-4.68 7.46-11.12 10.27-14.31 2.82-3.2 8.27-8.22 12.12-11.15 3.85-2.94 9.7-6.68 13-8.32 3.3-1.63 8.92-4.1 12.5-5.48 3.58-1.38 7.4-2.82 8.5-3.22 1.1-0.39 4.25-1.31 7-2.05 2.75-0.73 10.63-2.36 17.5-3.61 10.82-1.97 15.94-2.28 38.1-2.32 21.37-0.03 25.87 0.21 27.29 1.46 1.16 1.03 1.69 2.99 1.65 6.25-0.02 2.61-0.38 4.75-0.79 4.75-0.41 0.01-0.86 2.03-1 4.5-0.14 2.48-1.57 9.56-3.19 15.75-1.62 6.19-4.56 15.75-6.52 21.25-1.96 5.5-4.73 12.48-6.15 15.5-1.42 3.02-3.96 8.2-5.64 11.5-1.68 3.3-4.65 8.48-6.6 11.5-1.95 3.02-5.36 7.75-7.57 10.5-2.22 2.75-6.74 7.85-10.06 11.33-3.31 3.49-9.17 8.43-13.02 10.98-3.85 2.55-9.48 5.83-12.5 7.28-3.02 1.45-8.2 3.48-11.5 4.51-4.85 1.52-9.15 1.87-22.5 1.87-14.71-0.01-17.75-0.32-28-2.83-6.33-1.56-12.4-3.03-13.5-3.27-1.28-0.29-3.07 0.61-5 2.5-1.65 1.63-5.29 6.26-8.09 10.29-2.8 4.04-6.48 10.71-8.18 14.84-1.7 4.13-3.84 9.98-4.76 13-1.43 4.74-1.68 11.71-1.81 50.29-0.14 38.6-0.37 44.91-1.66 45.73-0.83 0.52-3.3 0.96-5.5 0.98-2.2 0.02-4.83-0.54-5.85-1.23-1.75-1.2-1.86-3.76-2.11-45.77-0.22-38.19-0.5-45.56-2-52-0.96-4.12-3.12-10.2-4.8-13.5-1.68-3.3-3.63-7.12-4.34-8.5-0.71-1.37-4.42-5.87-15.21-17.5l-12.34 3.26c-6.79 1.8-16.96 3.71-22.6 4.25-8 0.77-12.39 0.67-20-0.48-5.36-0.81-11.55-2.1-13.75-2.86-2.2-0.77-6.93-2.87-10.5-4.67-3.57-1.79-8.52-4.65-11-6.34-2.48-1.68-6.92-5.34-9.88-8.11-2.95-2.78-7.94-8.2-11.08-12.05-3.13-3.85-7.88-10.6-10.54-15-2.67-4.4-6.72-12.05-9.02-17-2.29-4.95-5.78-13.5-7.75-19-1.97-5.5-4.49-13.6-5.61-18-1.11-4.4-2.95-11.94-4.07-16.75-1.13-4.81-2.05-10.55-2.05-12.75 0-3.33 0.42-4.17 2.5-5 1.38-0.55 10.04-1.27 19.25-1.61 12.35-0.45 20.83-0.17 32.25 1.05 8.52 0.91 20 2.72 25.5 4.02 5.5 1.3 12.93 3.31 16.5 4.46 3.57 1.15 11.15 4.45 16.84 7.34 5.69 2.88 13.11 7.51 16.5 10.28 3.39 2.77 8.7 8.17 11.81 12 3.11 3.83 7.19 10.11 9.07 13.96 1.88 3.85 4.36 9.93 5.51 13.5 1.16 3.58 2.7 8.98 3.42 12 0.83 3.48 1.32 12.12 1.35 41.48l3.52 3.51c1.93 1.93 4.85 5.24 6.5 7.36 1.64 2.12 3.65 4.87 4.48 6.11 1.35 2.03 1.53-2.08 2.05-82.96l-5.27-3.48c-2.91-1.91-7.52-5.29-10.27-7.5-2.74-2.21-7.83-6.72-11.32-10.02-3.49-3.3-9.06-9.6-12.4-14-3.33-4.4-7.98-12.05-10.33-17-2.35-4.95-5.22-12.82-6.39-17.5-1.84-7.42-2.06-10.6-1.68-25 0.3-11.42 1.02-18.96 2.34-24.5 1.05-4.4 3.85-12.95 6.22-19 2.38-6.05 6.88-15.95 10-22 3.11-6.05 9.07-16.18 13.23-22.5 4.16-6.32 10.61-15.55 14.33-20.5 3.72-4.95 9-11.59 11.72-14.75 2.81-3.26 5.78-5.75 6.86-5.75zm-4.44 166.51c-0.15 54.8-0.12 55.59 1.85 56.11 1.1 0.29 3.12 0.38 4.5 0.2l2.5-0.32c0.39-84.09 0.14-109.96-0.31-111.75-0.62-2.49-1.41-3.32-3.4-3.56-1.77-0.21-2.98 0.34-3.79 1.72-0.88 1.49-1.23 16.64-1.35 57.6zm-105.88 63.44c0.09 0.85 3.67 4.5 7.95 8.1 4.28 3.6 12.05 9.97 17.28 14.16 5.23 4.18 12.43 9.97 16 12.86 3.57 2.9 6.73 5.53 7 5.86 0.27 0.33 3.71 3.29 7.62 6.58 3.92 3.3 8.6 7.12 10.39 8.49 1.79 1.38 4.66 3.64 6.38 5.02 1.71 1.39 3.91 3.19 4.9 4 1.61 1.34 2.06 1.19 4.7-1.52l2.92-3c-4.19-3.07-11.71-9.14-19.41-15.48-7.7-6.34-15.42-12.64-17.16-14.02-1.73-1.37-10.05-8.12-18.49-15-8.44-6.87-17.6-14.19-20.35-16.26-2.75-2.06-5.47-3.75-6.05-3.75-0.58 0.01-1.68 0.55-2.45 1.21-0.77 0.66-1.32 1.9-1.23 2.75z"/>
</svg>