<svg version="1.2" xmlns="http://www.w3.org/2000/svg" viewBox="0 0 994 741" width="994" height="741">
	<style>
		.s0 { opacity: 1;fill: #9a0000 } 
		.s1 { fill: #9a0000 } 
	</style>
	<g id="Layer 2">
		<path id="Path 0" class="s0" d="m132.35 118.14c-0.88 1.63-2.79 8.32-4.25 14.86-1.46 6.53-3.51 17.23-4.56 23.77-1.05 6.54-2.14 26.79-2.43 45-0.28 18.22 0.17 43.82 1 56.89 0.82 13.08 3.09 33.33 5.04 45 1.94 11.68 6.15 31.74 9.35 44.58 3.21 12.84 8.43 31.18 11.62 40.76 3.19 9.57 7.57 21.54 9.74 26.59l3.94 9.18c61.69 12.61 80.93 16.31 82.56 16.36 2.06 0.06 2.97-1.21 2.97-4.16 0-2.33-1.87-11.31-4.16-19.95-2.29-8.64-5.51-24.5-7.16-35.24-2.03-13.18-3.06-30.01-3.15-51.79-0.08-17.75 0.29-39.34 0.81-47.99 0.91-14.9 1.16-15.72 4.77-15.71 2.09 0.01 9.33 1.24 16.09 2.73 6.75 1.5 19.9 5.04 29.21 7.86 9.32 2.83 23.03 6.97 30.49 9.2 7.45 2.24 14.5 4.05 15.66 4.03 1.17-0.02 2.45-0.6 2.86-1.31 0.41-0.7 2.36-9.67 4.34-19.95 1.98-10.27 6.62-29 10.3-41.6 3.67-12.61 6.69-25.99 6.69-29.72l0.01-6.8c-51.9-25.59-81.06-38.31-98.29-44.77-17.24-6.46-41.62-14.48-54.2-17.83-12.57-3.35-30.48-7.65-39.8-9.55-9.31-1.91-19.39-3.45-22.39-3.44-3.44 0.02-6.05 1.12-7.06 3z"/>
		<path id="Path 1" class="s0" d="m850.25 114.69c-2.33 0.45-17.57 4.15-33.87 8.23-16.31 4.07-37.26 9.97-46.58 13.11-9.31 3.15-26.84 9.44-38.95 14-12.11 4.56-36.5 15.58-54.2 24.5l-32.17 16.2c-0.79 10.91 1.66 22.97 5.71 37.36 3.68 13.08 7.96 30.66 9.51 39.06 1.55 8.41 3.53 17.01 4.39 19.11 0.88 2.16 3.02 3.82 4.94 3.82 1.87 0 13.87-3.39 26.68-7.54 12.8-4.14 29.38-9.08 36.83-10.98 7.45-1.9 17.36-3.67 22.02-3.93l8.47-0.48c1.4 31.59 1.2 54.13 0.46 70.48-0.74 16.34-2.47 38.89-3.84 50.09-1.38 11.21-4.43 26.88-6.78 34.82-2.35 7.94-4.27 15.39-4.26 16.55 0.01 1.17 1.93 2.13 4.26 2.13 2.32 0 8.99-1.51 14.81-3.36 5.83-1.85 23.01-5.48 38.19-8.07l27.61-4.71c6.24-9.21 11.85-24.11 16.48-39.05 4.63-14.95 10.37-35.96 12.76-46.7 2.39-10.75 5.52-26.41 6.96-34.82 1.44-8.4 3.04-19.48 3.55-24.62 0.51-5.14 1.56-23.1 2.33-39.91 0.77-16.81 1.07-39.74 0.66-50.94-0.42-11.21-2.25-29.17-4.08-39.91-1.84-10.74-5.03-22.97-7.11-27.17-2.47-5.01-4.94-7.72-7.16-7.87-1.86-0.12-5.29 0.15-7.62 0.6z"/>
		<path id="Path 2" fill-rule="evenodd" class="s0" d="m496.06 20c1.52-0.04 7.34 3.43 12.93 7.7 5.59 4.26 18.04 15.57 27.68 25.11 9.63 9.54 21.54 22.32 26.46 28.39 4.92 6.07 14.04 18.68 20.26 28.02 6.22 9.34 16.55 27.68 22.95 40.76 6.41 13.07 15.42 34.85 20.03 48.4 4.62 13.54 10.34 33.41 12.72 44.15 2.38 10.74 5.6 28.32 7.16 39.06 2.16 14.89 2.79 30.81 2.66 67.08-0.09 26.15-0.99 54.04-1.99 61.98-1 7.94-2.96 20.55-4.36 28.02-1.4 7.47-4.84 22.76-7.64 33.96-2.81 11.21-7.8 27.64-11.1 36.52-3.3 8.87-10.91 26.44-16.92 39.05-6 12.61-15.68 30.19-21.51 39.06-5.82 8.88-16.71 23.78-24.2 33.12-7.49 9.34-21.19 24.24-30.45 33.11-12.59 12.07-18.74 16.72-24.38 18.44-4.64 1.43-10.13 1.87-14.31 1.15-3.72-0.64-9.82-2.93-13.55-5.09-3.72-2.17-15.17-12.62-25.44-23.23-10.26-10.61-22.01-23.49-26.09-28.63-4.08-5.14-11.94-16.22-17.46-24.62-5.52-8.41-16.05-27.51-23.42-42.46-7.98-16.2-16.76-37.45-21.74-52.64-4.6-14.01-10.38-35.41-12.84-47.55-2.47-12.14-5.57-32.39-6.9-45-1.32-12.61-2.4-37.07-2.4-54.34 0-17.28 1.09-41.74 2.44-54.35 1.34-12.61 3.91-30.56 5.71-39.9 1.81-9.34 6.1-26.54 9.55-38.21 3.44-11.68 8.94-28.11 12.23-36.52 3.28-8.4 9.22-21.77 13.2-29.71 3.97-7.94 11.28-21.32 16.24-29.72 4.96-8.41 14.48-22.55 21.16-31.42 6.68-8.87 20.82-24.81 31.42-35.41 10.59-10.6 23.73-22.64 29.2-26.75 5.46-4.1 11.17-7.49 12.7-7.53zm-27.01 212.59c-5.19 5.94-13.07 15.76-17.5 21.83-4.43 6.07-12.89 20.97-18.81 33.11-6.2 12.72-12.58 28.92-15.03 38.21-2.35 8.87-5.79 23.78-7.64 33.12-1.85 9.34-4.24 29.59-5.31 45-1.76 25.5-1.63 30.08 1.46 50.94 1.88 12.61 5.47 32.1 8 43.31 2.73 12.11 8.44 29.68 14.07 43.3 6.04 14.61 13.74 29.39 21.23 40.76 6.74 10.23 18.32 24.51 27.14 33.49 8.47 8.61 16.73 15.68 18.36 15.71 1.63 0.02 8.1-4.73 14.39-10.56 6.29-5.84 15.63-15.32 20.75-21.08 5.12-5.75 12.74-16.46 16.93-23.78 4.19-7.32 11.53-22.48 16.32-33.69 4.78-11.21 10.3-26.87 12.26-34.81 1.96-7.94 5.11-21.7 6.99-30.57 2.2-10.37 3.79-26.14 4.45-44.15 0.57-15.77 0.23-36.19-0.79-46.7-0.99-10.28-4.07-28.24-6.84-39.91-2.78-11.68-7.11-26.96-9.62-33.97-2.52-7-7.57-19.23-11.24-27.17-3.66-7.94-10.97-20.93-16.25-28.87-5.28-7.93-15.9-20.73-23.61-28.44-7.7-7.71-16.24-15.14-18.97-16.51-4.79-2.43-5.23-2.29-13.12 4.07-4.49 3.62-12.42 11.43-17.62 17.36z"/>
		<path id="Path 3" fill-rule="evenodd" class="s1" d="m133.01 449.87c23.17-0.12 35.57 0.67 51.66 3.28 11.64 1.9 27.64 5.39 35.56 7.77 7.92 2.38 19.73 6.23 26.25 8.55 6.52 2.32 18.72 7.68 27.1 11.91 8.38 4.22 20.96 11.08 27.94 15.24 6.99 4.15 17.01 10.77 22.27 14.71 5.26 3.93 15.85 12.5 23.52 19.04 7.67 6.54 19.75 18.44 26.85 26.44 7.09 8 17.56 21.38 23.26 29.72 5.71 8.34 14.19 22.81 18.85 32.15 4.66 9.34 10.76 24.24 13.55 33.11 2.8 8.88 5.56 18.81 6.15 22.08 0.79 4.38 0.06 7.95-2.76 13.55-2.31 4.6-6.16 8.93-9.75 10.96-3.26 1.86-11.26 5.16-17.78 7.35-6.52 2.19-19.1 5.66-27.94 7.71-4.74 1.1-18.57 3.17-32.78 4.53-15.98 1.53-32.18 2.11-34.72 2.02-7.64-0.28-31.51-3.58-43.52-5.27l-11.77-3.04c-11.18-2.99-27.18-7.68-35.57-10.41-8.38-2.74-22.48-8.24-31.33-12.24-8.85-4-21.42-10.29-27.94-13.98-6.52-3.68-19.48-12.13-28.79-18.78-9.44-6.73-26.32-21.49-38.11-33.33-11.64-11.68-25.49-27.36-30.76-34.83-5.28-7.47-12.6-18.55-16.27-24.62-3.67-6.07-9.51-17.54-12.99-25.48-3.47-7.93-8.54-23.03-11.25-33.53-2.72-10.51-4.94-21.02-4.94-23.35 0-3.21 1.76-5.26 7.2-8.41 3.96-2.29 16.34-7.24 27.52-11.01 11.18-3.77 27.18-7.94 35.56-9.26 8.58-1.36 28.59-2.48 45.73-2.58zm33.03 77.97c-4.2 1.14-11.44 3.74-16.09 5.78-4.66 2.04-9.04 4.63-9.74 5.75-0.7 1.12-0.1 6.82 1.33 12.65 1.42 5.84 4.71 15.2 7.31 20.81 2.59 5.6 8.58 15.92 13.3 22.92 4.73 7.01 15.35 19.3 23.6 27.32 8.25 8.02 21.48 18.85 29.4 24.07 7.92 5.21 22.4 13.32 32.18 18 9.78 4.69 23.5 10.42 30.48 12.74 6.99 2.32 18.8 5.49 26.25 7.03 8.1 1.68 22.76 2.91 36.42 3.06 13.87 0.15 26.85-0.64 33.02-2.02 5.59-1.25 14.93-4.1 20.75-6.33 5.82-2.23 10.67-5.01 10.77-6.17 0.1-1.17 0.03-4.04-0.16-6.37-0.19-2.34-2.55-9.98-5.23-16.98-2.69-7.01-9.37-19.62-14.85-28.02-5.58-8.57-16.2-21.42-24.17-29.25-7.81-7.68-20.3-18.56-27.76-24.18-7.45-5.62-20.02-13.56-27.94-17.65-7.92-4.09-19.73-9.55-26.25-12.13-6.52-2.59-17.19-6.18-23.71-7.99-6.52-1.8-19.1-4.37-27.94-5.71-8.85-1.33-19.52-2.32-23.71-2.21-4.2 0.12-12.58 0.8-18.63 1.51-6.06 0.71-14.44 2.23-18.63 3.37z"/>
		<path id="Path 4" fill-rule="evenodd" class="s0" d="m681.73 504.06c6.52-4.39 17.58-11.14 24.56-15 6.99-3.86 24.45-12.03 31.7-14.96 7.25-2.93 20.04-7.64 28.42-10.46 8.39-2.82 21.72-6.34 29.64-7.82 7.92-1.47 17.83-3.34 22.02-4.15 4.19-0.8 24.77-1.24 45.73-0.96 26.69 0.34 42.16 1.32 51.65 3.25 7.45 1.51 20.79 5.23 29.64 8.26 8.85 3.04 19.52 7.39 23.71 9.69 5.4 2.95 7.78 5.4 8.16 8.39 0.3 2.32-1.07 11.1-3.04 19.51-1.97 8.4-6.83 23.3-10.8 33.11-3.97 9.81-11.71 25.47-17.21 34.81-5.49 9.34-15.44 23.48-22.11 31.42-6.67 7.94-18.52 20.6-26.33 28.13-7.81 7.53-20.29 18.31-27.75 23.95-7.45 5.65-18.69 13.43-24.98 17.3-6.28 3.87-20.38 11.53-31.33 17.03-10.94 5.5-27.9 12.75-37.68 16.12-9.78 3.36-23.5 7.28-30.49 8.7-6.98 1.42-17.65 3.79-23.71 5.25-8.12 1.97-41.34 4.43-45.93 4.29-6.59-0.2-37.77-2.48-43.83-3.54-6.05-1.06-18.24-3.94-27.09-6.39-8.85-2.46-21.05-6.43-27.1-8.83-9.73-3.86-11.46-5.26-14.83-12.01-2.11-4.2-3.82-10.5-3.82-14.01 0.01-3.5 2.4-13.43 5.3-22.07 2.9-8.64 8.91-22.97 13.34-31.84 4.43-8.88 13.61-24.54 20.4-34.82 9.3-14.07 18.52-24.86 37.36-43.73 13.75-13.77 26.25-24.24 27.24-24.97 1.21-0.88 12.64-9.25 19.16-13.65zm77.91 22.17c-5.59 0.99-16.64 3.74-24.56 6.13-7.91 2.38-21.63 7.52-30.48 11.43-8.85 3.9-23.71 12.14-33.03 18.31-9.31 6.16-23.41 17.27-31.33 24.69-7.92 7.41-18.3 18.77-23.08 25.23-4.77 6.47-11.23 16.34-14.35 21.94-3.12 5.61-7.71 16.31-10.21 23.78-4.25 12.69-4.37 13.78-1.74 16.62 1.54 1.66 8.52 4.89 15.51 7.16 6.99 2.27 17.66 4.91 23.71 5.87 6.05 0.95 17.49 1.75 25.4 1.77 7.92 0.02 22.02-1.47 31.34-3.32 9.31-1.85 22.27-4.99 28.79-6.97 6.52-1.98 20.23-7.79 30.48-12.9 10.25-5.11 25.87-14.13 34.72-20.04 9.86-6.58 22.02-16.9 31.41-26.64 8.43-8.74 18.68-20.86 22.79-26.93 4.1-6.07 9.52-16.01 12.04-22.08 2.52-6.07 5.73-14.86 7.13-19.53 1.4-4.67 2.04-9.4 1.42-10.5-0.61-1.11-4.55-3.54-8.74-5.4-4.19-1.86-13.72-4.99-21.17-6.95-7.45-1.97-20.41-3.86-28.79-4.21-8.38-0.35-17.91-0.33-21.17 0.05-3.26 0.38-10.5 1.5-16.09 2.49z"/>
	</g>
</svg>