<svg version="1.2" xmlns="http://www.w3.org/2000/svg" viewBox="0 0 666 665" width="300" height="300">
	<style>
		.s0 { opacity: 1;fill: #caa95d } 
	</style>
	<path id="Path 0" fill-rule="evenodd" class="s0" d="m332.5 14.11c2.2-0.01 5.58 0.75 7.5 1.69 2.04 0.99 4.23 3.16 5.25 5.2 1.49 2.99 1.75 6.51 1.76 24 0.01 11.28 0.45 21.18 0.98 22 0.7 1.11 3.77 1.67 11.73 2.14 5.93 0.35 12.58 1.13 14.78 1.73 2.2 0.6 7.38 1.74 11.5 2.54 4.13 0.8 10.2 2.16 13.5 3.03 3.3 0.88 9.83 2.79 14.5 4.25 4.67 1.46 8.95 2.97 9.5 3.35 0.55 0.39 2.8 1.28 5 2 2.2 0.71 10.3 4.53 18 8.47 7.7 3.95 15.69 8.15 17.75 9.33 3.59 2.07 3.75 2.38 3.71 7.41-0.02 2.89-1.08 9.3-2.35 14.25-1.28 4.95-2.83 9.11-3.46 9.25-0.63 0.14-1.71-0.16-2.4-0.65-0.69-0.5-3.95-2.37-7.25-4.14-3.3-1.78-6.67-3.78-7.5-4.44-0.83-0.65-6.23-3.5-12-6.33-5.77-2.82-14.33-6.56-19-8.3-4.67-1.75-11.65-4.07-15.5-5.16-3.85-1.09-9.7-2.63-13-3.43-3.3-0.79-8.25-2.08-11-2.86-2.75-0.78-9.33-1.76-14.62-2.18-6.85-0.54-10.01-0.43-11 0.4-1.09 0.93-1.44 6.49-1.67 27-0.16 14.21-0.72 27.19-1.25 28.84-0.62 1.92-2.41 3.81-4.96 5.25-2.23 1.25-5.66 2.24-7.75 2.22-2.06-0.02-5.21-0.92-7-2-1.79-1.08-4.04-3.43-5-5.22-1.52-2.82-1.78-6.65-1.97-28.75-0.13-14.02-0.49-26.18-0.81-27-0.5-1.28-2.38-1.39-12.78-0.73-6.77 0.42-15.3 1.65-19.19 2.75-3.85 1.09-7.9 1.98-9 1.97-1.1-0.01-5.15 0.93-9 2.09-3.85 1.16-11.05 3.69-16 5.63-4.95 1.94-13.95 5.91-20 8.83-6.05 2.91-15.5 8.11-21 11.55-5.5 3.43-14.27 9.42-19.5 13.3-5.23 3.88-14.18 11.57-19.89 17.08-5.72 5.52-14.72 15.21-20 21.53-5.29 6.32-12.9 16.45-16.92 22.5-4.02 6.05-9.65 15.76-12.5 21.57-2.86 5.82-5.96 12.34-6.9 14.5-0.94 2.16-2.44 5.73-3.34 7.93-0.89 2.2-2.68 7.15-3.96 11-1.29 3.85-3.03 9.7-3.88 13-0.85 3.3-2.45 9.82-3.55 14.5-1.1 4.68-2.64 13.45-3.41 19.5-1.28 10-1.26 11.16 0.22 12.78 1.48 1.62 3.86 1.78 26.13 1.73 18.73-0.05 25.32 0.27 28 1.34 2.04 0.81 4.44 2.91 5.75 5.02 1.24 2 2.25 5.21 2.25 7.13 0 1.92-0.79 5.15-1.75 7.17-0.96 2.02-2.65 4.28-3.75 5.01-1.48 1-9.15 1.54-29.34 2.08-15.97 0.43-27.71 1.16-28.24 1.74-0.54 0.6-0.28 6.63 0.64 15 0.84 7.7 2.41 16.92 3.48 20.5 1.06 3.58 1.94 7.74 1.95 9.25 0.01 1.51 0.85 4.89 1.87 7.5 1.03 2.61 2.2 6.55 2.61 8.75 0.41 2.2 1.6 5.58 2.64 7.5 1.04 1.92 1.9 3.95 1.91 4.5 0.01 0.55 3.23 7.52 7.17 15.5 3.93 7.98 8.65 16.64 10.48 19.25 1.83 2.61 3.33 4.98 3.33 5.25 0 0.27 2.36 3.94 5.25 8.15 2.89 4.2 8.6 11.51 12.69 16.25 4.1 4.73 11.07 12.23 15.5 16.68 4.43 4.44 12.33 11.42 17.56 15.51 5.23 4.09 12.31 9.34 15.75 11.67 3.44 2.33 6.59 4.25 7 4.27 0.41 0.01 1.43 0.66 2.25 1.44 0.82 0.78 8.02 4.72 16 8.76 7.98 4.03 16.3 8.09 18.5 9.01 2.2 0.92 6.02 2.41 8.5 3.29 2.48 0.89 8.1 2.67 12.5 3.96 4.4 1.28 10.48 2.81 13.5 3.38 3.02 0.58 8.65 1.72 12.5 2.53 3.85 0.82 11.27 1.81 16.5 2.21 8.74 0.67 9.59 0.58 10.65-1.19 0.77-1.28 1.27-10.81 1.5-28.42 0.32-24.59 0.5-26.75 2.41-30 1.13-1.92 3.15-4.08 4.5-4.79 1.4-0.75 4.83-1.17 8.08-1 3.91 0.2 6.32 0.9 7.88 2.29 1.24 1.1 2.87 3.46 3.62 5.25 1.03 2.47 1.35 9.45 1.32 29-0.04 22.85 0.14 25.92 1.63 27.25 1.36 1.22 3.19 1.36 9.79 0.73 4.47-0.42 11.27-1.48 15.12-2.35 3.85-0.87 12.63-3.13 19.5-5.04 6.88-1.9 13.85-4.04 15.5-4.76 1.65-0.72 5.02-2.12 7.5-3.1 2.48-0.99 9-4 14.5-6.7 5.5-2.69 13.01-6.78 16.7-9.09 3.68-2.3 9.53-6.16 13-8.57 3.46-2.42 8.32-6.01 10.8-8 2.48-1.98 5.84-4.74 7.47-6.11 1.63-1.38 7.51-7.01 13.05-12.51 5.55-5.5 13.66-14.58 18.03-20.18 4.37-5.59 9.4-12.12 11.17-14.5 1.77-2.37 3.24-4.66 3.25-5.07 0.02-0.41 1.55-3.11 3.41-6 1.85-2.89 4.12-6.83 5.02-8.75 0.91-1.92 2.97-5.75 4.57-8.5 1.6-2.75 2.94-5.67 2.97-6.5 0.03-0.83 1.18-3.64 2.56-6.25 1.37-2.61 2.5-5.42 2.5-6.25 0-0.83 0.9-3.19 2-5.25 1.11-2.06 2.01-4.54 2-5.5 0-0.96 0.63-2.99 1.4-4.5 0.77-1.51 1.73-5 2.14-7.75 0.4-2.75 1.08-5.9 1.5-7 0.43-1.1 1.94-10.21 3.37-20.25 1.84-12.99 2.3-18.83 1.59-20.25-0.96-1.92-2-2-26.5-2-20.44 0-26.19-0.3-29-1.5-1.92-0.83-4.4-2.96-5.5-4.75-1.21-1.98-1.99-5-1.99-7.75 0-2.75 0.78-5.77 1.99-7.75 1.13-1.84 3.63-3.91 5.75-4.77 3-1.23 8.48-1.52 27.5-1.5 13.06 0.01 24.49-0.32 25.39-0.73 0.9-0.41 2.02-1.54 2.5-2.5 0.53-1.07 0.04-7.25-1.25-16-1.16-7.84-2.75-16.05-3.52-18.25-0.78-2.2-1.39-4.68-1.37-5.5 0.02-0.82-0.69-3.98-1.58-7-0.89-3.02-2.52-8.2-3.63-11.5-1.12-3.3-3.15-8.48-4.52-11.5-1.36-3.02-4.91-10.56-7.88-16.75-2.96-6.19-5.24-11.81-5.06-12.5 0.22-0.84 4.53-1.61 13.25-2.35 7.11-0.6 13.59-0.92 14.42-0.72 0.83 0.21 3.02 3.63 4.88 7.6 1.86 3.97 4.42 9.47 5.69 12.22 1.26 2.75 3.04 7.02 3.95 9.5 0.91 2.48 2.27 6.07 3.02 8 0.76 1.93 1.39 4.74 1.42 6.25 0.02 1.51 0.57 3.76 1.22 5 0.65 1.24 1.73 5.18 2.41 8.75 0.67 3.57 1.91 9.65 2.75 13.5 0.85 3.85 2.06 12.63 2.71 19.5 0.64 6.88 1.68 13.08 2.31 13.79 0.87 0.99 6.2 1.3 43.14 1.28l3.93 2.71c2.38 1.65 4.25 3.9 4.74 5.72 0.45 1.65 0.49 5.25 0.11 8-0.39 2.75-1.4 5.63-2.25 6.41-0.84 0.77-2.43 2.01-3.53 2.76-1.49 1.02-7.43 1.43-45 1.94l-1.19 2.45c-0.66 1.34-1.72 7.84-2.37 14.44-0.64 6.6-1.82 15.15-2.62 19-0.79 3.85-1.91 10.15-2.48 14-0.58 3.85-3.27 13.75-5.99 22-2.72 8.25-5.71 16.74-6.65 18.88-0.93 2.13-4.65 9.78-8.25 17-3.6 7.21-10.57 19.2-15.48 26.62-4.91 7.42-12.14 17.33-16.06 22-3.93 4.67-11.14 12.62-16.03 17.65-4.88 5.03-14.28 13.54-20.88 18.92-6.6 5.37-16.27 12.56-21.5 15.97-5.23 3.4-12.2 7.73-15.5 9.61-3.3 1.87-8.92 4.81-12.5 6.51-3.58 1.71-9.42 4.48-13 6.16-3.58 1.67-10.77 4.38-16 6-5.23 1.63-12.65 3.87-16.5 4.98-3.85 1.11-9.25 2.33-12 2.7-2.75 0.37-7.25 1.26-10 1.98-2.75 0.72-9.66 1.69-15.35 2.16-5.69 0.47-10.72 1.31-11.17 1.86-0.45 0.55-0.97 11.05-1.48 45.66l-3.75 3.42c-3.29 3-4.4 3.42-9 3.39-3.31-0.02-6.36-0.71-8.25-1.88-1.65-1.02-3.65-3.37-4.45-5.22-1.08-2.5-1.52-8.63-1.71-23.87-0.19-15.14-0.59-20.84-1.55-21.79q-1.29-1.3-10.29-1.33c-4.95-0.01-11.25-0.4-14-0.87-2.75-0.46-9.27-1.58-14.5-2.49-5.23-0.91-11.52-2.31-14-3.11-2.48-0.81-7.2-2.09-10.5-2.84-3.3-0.76-9.15-2.6-13-4.09-3.85-1.49-9.02-3.48-11.5-4.42-2.48-0.94-8.1-3.46-12.5-5.59-4.4-2.13-11.6-5.87-16-8.3-4.4-2.44-12.5-7.41-18-11.04-5.5-3.63-10.86-7.28-11.91-8.12-1.06-0.83-5.33-4.39-9.5-7.9-4.18-3.52-11.79-10.5-16.93-15.5-5.14-5.01-13.02-13.61-17.5-19.1-4.49-5.49-9.98-12.47-12.21-15.5-2.23-3.03-6.84-10.12-10.25-15.76-3.41-5.64-6.65-11.26-7.2-12.5-0.55-1.24-1.43-2.92-1.96-3.75-0.54-0.83-2.56-4.99-4.51-9.25-1.94-4.26-3.54-8.31-3.56-9-0.02-0.69-0.88-2.83-1.9-4.75-1.03-1.92-2.79-6.2-3.91-9.5-1.12-3.3-2.77-8.92-3.66-12.5-0.89-3.58-2.07-8.52-2.61-11-0.55-2.48-1.84-8.33-2.87-13-1.03-4.67-2.41-14.8-3.06-22.5-0.87-10.28-1.62-14.48-2.82-15.83-1.46-1.62-2.67-1.75-11.14-1.12-5.22 0.38-14.9 0.34-21.5-0.09-10.96-0.71-12.25-1-14.83-3.37-2.4-2.19-2.92-3.6-3.38-9.09-0.49-5.87-0.3-6.79 1.92-9.5 1.58-1.91 4.17-3.45 7.13-4.25 2.93-0.79 11.51-1.25 23.16-1.25 16.6 0 18.6-0.18 19.43-1.75 0.51-0.96 1.62-8.05 2.47-15.75 0.84-7.7 1.99-15.57 2.55-17.5 0.55-1.93 1.69-7.1 2.51-11.5 0.83-4.4 2.39-11.15 3.47-15 1.07-3.85 3.06-9.93 4.41-13.5 1.36-3.57 3.03-8.07 3.71-10 0.68-1.93 2.36-5.98 3.71-9 1.36-3.02 3.8-7.98 5.42-11 1.61-3.02 3.83-7.3 4.92-9.5 1.1-2.2 2.76-5.19 3.7-6.64 0.93-1.46 3.13-5.06 4.87-8 1.74-2.95 4.12-6.26 5.28-7.36 1.16-1.1 2.1-2.34 2.08-2.75-0.02-0.41 1.86-3.34 4.18-6.5 2.31-3.16 6.68-8.68 9.7-12.25 3.02-3.57 10.46-11.61 16.54-17.85 6.08-6.24 15.78-15.08 21.55-19.64 5.77-4.56 13.54-10.36 17.25-12.9 3.71-2.53 7.11-4.61 7.55-4.61 0.44 0 1.36-0.56 2.05-1.25 0.69-0.69 4.27-2.94 7.95-5 3.69-2.07 10.75-5.73 15.7-8.14 4.95-2.41 11.93-5.41 15.5-6.66 3.57-1.26 6.95-2.62 7.5-3.02 0.55-0.4 4.38-1.87 8.5-3.27 4.13-1.41 10.43-3.29 14-4.19 3.57-0.9 10.1-2.25 14.5-3 4.4-0.76 11.15-2.06 15-2.9 3.85-0.85 9.81-1.54 13.25-1.55 3.44-0.01 7.26-0.41 8.5-0.9 2.21-0.86 2.26-1.27 2.9-22.75 0.36-12.03 1.14-23.22 1.74-24.87 0.62-1.73 2.46-3.71 4.34-4.69 1.8-0.92 5.07-1.69 7.27-1.7zm238.25 5.92c4.58-0.03 5.68 0.38 8.64 3.22 1.87 1.79 3.76 4.6 4.19 6.25 0.44 1.65 0.05 16.95-0.87 34-1.58 29.34-1.58 31.1 0.06 32.8 1.63 1.69 3.75 1.75 35.23 1.08 32.01-0.68 33.63-0.63 36.38 1.2 1.59 1.06 3.5 3.16 4.25 4.67 0.75 1.51 1.38 4.21 1.38 6 0.01 1.9-1.18 5.12-2.87 7.75-1.58 2.48-19.25 20.72-75.64 76.61l-14 2.16c-7.7 1.18-18.73 2.44-24.5 2.78-5.77 0.34-17.25 1.48-25.5 2.53-8.25 1.05-17.25 1.95-20 1.99-2.75 0.04-5.76 0.38-6.7 0.75-0.93 0.37-9.48 8.13-19 17.24-9.51 9.1-20.67 19.67-24.8 23.48-4.12 3.8-10.01 9.4-13.07 12.44-3.06 3.04-13.41 12.94-23 22.01-9.59 9.06-23.73 22.6-31.43 30.08-7.7 7.48-17.37 16.69-21.5 20.48-4.12 3.79-9.08 8.37-11 10.16-3.16 2.95-4.09 3.27-9.5 3.25-4.14-0.02-6.66-0.56-8.14-1.74-1.18-0.95-2.64-2.96-3.25-4.47-0.61-1.51-1.11-4.33-1.11-6.25 0-1.92 0.66-4.96 1.46-6.75 0.81-1.79 5.42-6.91 10.25-11.39 4.84-4.48 11.49-10.79 14.79-14.03 3.3-3.23 12.53-12.17 20.5-19.86 7.98-7.68 21.47-20.49 29.98-28.47 8.5-7.98 21.33-20.12 28.5-27 7.17-6.87 19.45-18.69 27.28-26.25 13.53-13.06 14.34-14.06 16.14-20 1.05-3.44 2.23-9.62 2.63-13.75 0.39-4.12 1.35-9.07 2.13-11 0.78-1.92 1.67-5.98 1.98-9 0.31-3.02 1.39-8.42 2.41-12 1.01-3.57 2.15-9.42 2.52-13 0.38-3.57 1.31-8.07 2.08-10 0.77-1.92 1.67-5.75 2.01-8.5 0.34-2.75 1.65-7.02 2.9-9.5 1.35-2.66 6.24-8.19 11.93-13.5 5.3-4.95 11.8-11.02 14.45-13.5 2.64-2.47 12.61-11.92 22.14-21 9.53-9.07 18.02-17.19 18.87-18.04 0.85-0.84 2.45-2.07 3.55-2.72 1.1-0.65 4.36-1.19 7.25-1.21zm-54.83 85.47c-3.82 18.6-4.92 25.01-4.92 26.25 0 1.24-0.9 4.84-2.01 8-1.1 3.16-2 6.76-2 8 0.01 1.24 0.24 2.25 0.51 2.25 0.27 0 5.49-4.84 11.59-10.75 6.1-5.91 15.66-15.4 21.25-21.09 5.59-5.68 10.47-10.86 10.85-11.5 0.38-0.64 1.15-5.43 1.71-10.66 0.56-5.23 1.18-13.44 1.37-18.25 0.23-5.75-0.02-8.72-0.71-8.66-0.58 0.06-9.29 8.27-19.35 18.25zm57.34 20c-27.32 26.35-38.07 36.46-41.51 39.46-3.44 3-6.25 5.92-6.25 6.49 0 0.66 2.77 0.93 7.5 0.75 4.13-0.17 13.35-1 20.5-1.85 7.15-0.84 13.68-1.9 14.5-2.35 0.83-0.45 4.5-3.9 8.16-7.66 3.66-3.76 13-13.02 20.75-20.59 7.75-7.56 13.87-14.2 13.59-14.75-0.27-0.55-1.51-0.91-2.75-0.81-1.24 0.1-9.5 0.43-18.37 0.75zm-244.26 59.66c10.18-0.04 20.53 0.36 23 0.88 2.48 0.53 7.65 1.6 11.5 2.38 3.85 0.78 11.95 3.2 18 5.39 6.05 2.18 12.58 4.69 14.5 5.59 1.93 0.89 4.4 2.17 5.5 2.84 1.1 0.66 3.71 2.34 5.79 3.73 2.75 1.83 3.78 3.22 3.74 5.03-0.03 1.75-2.37 4.83-7.79 10.25-4.6 4.62-8.55 7.75-9.74 7.73-1.1-0.02-6.27-1.86-11.5-4.09-5.22-2.23-10.96-4.69-12.75-5.47-1.79-0.78-7.97-2.55-13.75-3.92-8.85-2.11-12.93-2.5-26-2.5-10.83 0-17.38 0.47-21.75 1.58-3.44 0.87-8.72 2.29-11.75 3.15-3.02 0.87-7.97 2.52-11 3.67-3.02 1.15-7.3 3.09-9.5 4.31-2.2 1.22-5.35 2.98-7 3.9-1.65 0.93-6.6 4.5-11 7.94-4.4 3.43-11.04 9.33-14.75 13.1-3.72 3.76-7.65 8.2-8.74 9.85-1.09 1.65-3.8 5.47-6.02 8.5-2.21 3.02-5.18 7.97-6.59 11-1.41 3.02-2.96 6.4-3.45 7.5-0.49 1.1-1.61 4.02-2.49 6.5-0.88 2.47-2.05 6.07-2.6 8-0.55 1.92-1.76 5.75-2.68 8.5-1.36 4.05-1.67 8.86-1.63 25.5 0.05 19 0.24 21.15 2.65 29.5 1.42 4.95 3.55 11.47 4.72 14.5 1.17 3.02 2.57 5.95 3.12 6.5 0.55 0.55 0.99 1.67 0.99 2.5 0 0.82 1.03 3.07 2.3 5 1.26 1.92 4.52 6.82 7.23 10.88 2.72 4.07 7.64 10.32 10.94 13.9 3.3 3.58 9.15 9.04 13 12.14 3.85 3.09 9.03 6.95 11.5 8.56 2.48 1.61 6.08 3.76 8 4.78 1.93 1.01 6.88 3.13 11 4.7 4.13 1.58 9.75 3.61 12.5 4.52 2.75 0.91 6.8 2.04 9 2.52 2.2 0.48 8.73 1.17 14.5 1.55 6.09 0.39 15.33 0.18 22-0.49 6.33-0.63 15.1-2.28 19.5-3.66 4.4-1.38 12.95-4.92 19-7.88 6.05-2.95 13.81-7.43 17.25-9.95 3.44-2.51 9.69-8.06 13.89-12.32 4.2-4.27 9.52-10.23 11.81-13.25 2.29-3.03 5.12-7.08 6.28-9 1.17-1.93 3-5.3 4.08-7.5 1.08-2.2 3.14-6.59 4.58-9.75 1.44-3.17 2.61-6.2 2.61-6.75 0-0.55 0.63-2.24 1.4-3.75 0.77-1.52 2.14-7.03 3.04-12.25 0.9-5.23 1.89-13.33 2.2-18 0.35-5.25-0.05-13.48-1.04-21.5-0.88-7.15-2.49-15.48-3.57-18.5-1.08-3.03-1.98-6.29-2-7.25-0.01-0.97-0.93-3.55-2.03-5.75-1.1-2.2-2-5.24-1.99-6.75 0.01-2.12 1.68-4.32 7.25-9.54 3.98-3.73 8.14-7.04 9.24-7.37 1.1-0.32 2.68-0.37 3.5-0.12 0.83 0.26 3.35 4.25 5.6 8.88 2.26 4.62 4.66 10.65 5.33 13.4 0.68 2.75 1.61 5.45 2.08 6 0.46 0.55 1.83 6.62 3.04 13.5 1.63 9.25 2.19 16.26 2.13 27-0.03 7.97-0.76 19.67-1.61 26-0.85 6.32-2.45 14.08-3.55 17.25-1.11 3.16-2.02 6.31-2.02 7 0 0.68-0.85 3.05-1.9 5.25-1.05 2.2-3.84 8.05-6.2 13-2.37 4.95-6.08 11.7-8.26 15-2.17 3.3-6.21 8.92-8.98 12.5-2.77 3.57-8.44 9.7-12.6 13.62-4.16 3.92-10.48 9.35-14.06 12.06-3.57 2.71-9.87 7.01-14 9.57-4.12 2.56-9.3 5.28-11.5 6.05-2.2 0.77-4.9 1.91-6 2.53-1.1 0.63-4.7 2.07-8 3.21-3.3 1.13-10.5 3.24-16 4.67-9.15 2.38-11.79 2.61-31 2.69-18.97 0.09-21.92-0.13-30.5-2.28-5.22-1.31-10.85-2.94-12.5-3.64-1.65-0.69-4.8-1.59-7-1.99-2.2-0.41-8.95-3.19-15-6.19-6.05-3.01-13.25-6.97-16-8.81-2.75-1.83-7.63-5.28-10.86-7.67-3.22-2.38-10.42-9.07-16-14.87-5.57-5.79-12.84-14.57-16.15-19.5-3.31-4.92-8.07-13.23-10.6-18.45-2.52-5.23-5.59-12.43-6.81-16-1.23-3.58-2.65-9.2-3.16-12.5-0.51-3.3-1.4-7.35-1.98-9-0.57-1.65-1.46-9.08-1.98-16.5-0.51-7.43-0.65-18.45-0.3-24.5 0.35-6.17 1.45-13.64 2.5-17 1.03-3.3 1.88-7.13 1.88-8.5 0-1.38 0.82-4.3 1.82-6.5 1-2.2 2.11-5.58 2.47-7.5 0.36-1.93 1.56-5.3 2.67-7.5 1.11-2.2 1.99-4.45 1.96-5-0.02-0.55 0.66-1.68 1.52-2.5 0.87-0.83 1.79-2.74 2.05-4.25 0.26-1.52 1.15-2.98 1.97-3.25 0.83-0.28 1.8-1.52 2.17-2.75 0.37-1.24 1.72-3.83 3.01-5.75 1.29-1.93 3.13-4.6 4.09-5.94 0.95-1.34 3.42-4.6 5.48-7.25 2.06-2.65 6.11-7.19 9-10.1 2.89-2.9 8.18-7.7 11.75-10.65 3.58-2.96 9.65-7.46 13.5-10 3.85-2.54 8.8-5.56 11-6.72 2.2-1.15 5.35-2.79 7-3.63 1.65-0.84 5.25-2.45 8-3.58 2.75-1.12 8.15-2.95 12-4.06 3.85-1.11 10.83-2.87 15.5-3.93 6.61-1.48 12.62-1.93 27-1.98zm-2.75 103.87c6.02-0.03 7.86 0.3 8.25 1.47 0.28 0.82-0.66 2.96-2.08 4.75-1.43 1.78-4.36 5.72-6.53 8.75-2.16 3.02-3.92 6.28-3.91 7.25 0.01 0.96-0.32 1.92-0.73 2.13-0.41 0.21-2.15 3.25-3.86 6.75-1.71 3.5-3.61 7.94-4.23 9.87-0.63 1.92-1.14 4.96-1.15 6.75 0 1.78 0.83 5.16 1.86 7.5 1.07 2.43 3.74 5.71 6.25 7.67 4.3 3.36 4.51 3.41 11.38 2.77 3.85-0.36 9.48-1.59 12.5-2.73 3.03-1.13 7.75-3.19 10.5-4.56 2.75-1.38 7.14-4.05 9.75-5.95 2.61-1.9 5.54-3.33 6.5-3.17 1.41 0.23 1.74 1.26 1.68 5.25-0.06 3.54-1.14 7.2-3.75 12.72-2.06 4.34-5.55 9.63-7.93 12.02-2.34 2.36-6.27 5.69-8.75 7.41-3.3 2.29-6.9 3.58-13.5 4.84-7.86 1.51-10.01 1.56-17 0.44q-8-1.28-14-4.56c-3.3-1.8-7.57-4.77-9.5-6.61-1.92-1.83-4.89-5.35-6.59-7.81-1.71-2.47-3.87-6.73-4.82-9.48-0.94-2.75-1.98-9.05-2.3-14-0.49-7.48-0.23-10.23 1.56-16.25 1.18-3.99 3.41-9.39 4.96-12 1.54-2.62 4.4-6.33 6.34-8.25 1.94-1.93 4.84-4.45 6.44-5.6 1.6-1.15 4.49-2.62 6.41-3.28 1.93-0.66 4.63-1.84 6-2.62 1.56-0.89 5.42-1.45 10.25-1.47z"/>
</svg>